<ttFont>
    <TTGlyph name="A" xMin="0" yMin="0" xMax="768" yMax="700">
      <contour>
        <pt x="389" y="700" on="1"/>
        <pt x="564" y="700" on="1"/>
        <pt x="564" y="625" on="1"/>
        <pt x="504" y="625" on="1"/>
        <pt x="702" y="75" on="1"/>
        <pt x="768" y="75" on="1"/>
        <pt x="768" y="0" on="1"/>
        <pt x="556" y="0" on="1"/>
        <pt x="556" y="75" on="1"/>
        <pt x="615" y="75" on="1"/>
        <pt x="570" y="206" on="1"/>
        <pt x="296" y="206" on="1"/>
        <pt x="251" y="75" on="1"/>
        <pt x="311" y="75" on="1"/>
        <pt x="311" y="0" on="1"/>
        <pt x="99" y="0" on="1"/>
        <pt x="99" y="75" on="1"/>
        <pt x="164" y="75" on="1"/>
        <pt x="362" y="624" on="1"/>
        <pt x="206" y="622" on="0"/>
        <pt x="80" y="555" on="0"/>
        <pt x="80" y="486" on="1"/>
        <pt x="80" y="456" on="0"/>
        <pt x="106" y="417" on="0"/>
        <pt x="131" y="417" on="1"/>
        <pt x="178" y="417" on="0"/>
        <pt x="178" y="496" on="1"/>
        <pt x="258" y="496" on="1"/>
        <pt x="258" y="431" on="0"/>
        <pt x="198" y="342" on="0"/>
        <pt x="64" y="342" on="0"/>
        <pt x="0" y="426" on="0"/>
        <pt x="0" y="486" on="1"/>
        <pt x="0" y="584" on="0"/>
        <pt x="186" y="700" on="0"/>
      </contour>
      <contour>
        <pt x="433" y="605" on="1"/>
        <pt x="318" y="271" on="1"/>
        <pt x="548" y="271" on="1"/>
      </contour>
    </TTGlyph>
    <TTGlyph name="AE" xMin="0" yMin="0" xMax="953" yMax="700">
      <contour>
        <pt x="594" y="311" on="1"/>
        <pt x="594" y="75" on="1"/>
        <pt x="883" y="75" on="1"/>
        <pt x="883" y="190" on="1"/>
        <pt x="953" y="190" on="1"/>
        <pt x="953" y="0" on="1"/>
        <pt x="412" y="0" on="1"/>
        <pt x="412" y="75" on="1"/>
        <pt x="509" y="75" on="1"/>
        <pt x="509" y="206" on="1"/>
        <pt x="285" y="206" on="1"/>
        <pt x="221" y="75" on="1"/>
        <pt x="271" y="75" on="1"/>
        <pt x="271" y="0" on="1"/>
        <pt x="59" y="0" on="1"/>
        <pt x="59" y="75" on="1"/>
        <pt x="133" y="75" on="1"/>
        <pt x="402" y="625" on="1"/>
        <pt x="389" y="625" on="1"/>
        <pt x="217" y="625" on="0"/>
        <pt x="80" y="558" on="0"/>
        <pt x="80" y="486" on="1"/>
        <pt x="80" y="456" on="0"/>
        <pt x="106" y="417" on="0"/>
        <pt x="131" y="417" on="1"/>
        <pt x="178" y="417" on="0"/>
        <pt x="178" y="496" on="1"/>
        <pt x="258" y="496" on="1"/>
        <pt x="258" y="431" on="0"/>
        <pt x="198" y="342" on="0"/>
        <pt x="64" y="342" on="0"/>
        <pt x="0" y="426" on="0"/>
        <pt x="0" y="486" on="1"/>
        <pt x="0" y="584" on="0"/>
        <pt x="186" y="700" on="0"/>
        <pt x="389" y="700" on="1"/>
        <pt x="944" y="700" on="1"/>
        <pt x="944" y="510" on="1"/>
        <pt x="874" y="510" on="1"/>
        <pt x="874" y="625" on="1"/>
        <pt x="594" y="625" on="1"/>
        <pt x="594" y="386" on="1"/>
        <pt x="732" y="386" on="1"/>
        <pt x="732" y="446" on="1"/>
        <pt x="802" y="446" on="1"/>
        <pt x="802" y="251" on="1"/>
        <pt x="732" y="251" on="1"/>
        <pt x="732" y="311" on="1"/>
      </contour>
      <contour>
        <pt x="509" y="271" on="1"/>
        <pt x="509" y="625" on="1"/>
        <pt x="490" y="625" on="1"/>
        <pt x="317" y="271" on="1"/>
      </contour>
    </TTGlyph>
    <TTGlyph name="Aacute" xMin="0" yMin="0" xMax="768" yMax="968">
      <contour>
        <pt x="389" y="700" on="1"/>
        <pt x="564" y="700" on="1"/>
        <pt x="564" y="625" on="1"/>
        <pt x="504" y="625" on="1"/>
        <pt x="702" y="75" on="1"/>
        <pt x="768" y="75" on="1"/>
        <pt x="768" y="0" on="1"/>
        <pt x="556" y="0" on="1"/>
        <pt x="556" y="75" on="1"/>
        <pt x="615" y="75" on="1"/>
        <pt x="570" y="206" on="1"/>
        <pt x="296" y="206" on="1"/>
        <pt x="251" y="75" on="1"/>
        <pt x="311" y="75" on="1"/>
        <pt x="311" y="0" on="1"/>
        <pt x="99" y="0" on="1"/>
        <pt x="99" y="75" on="1"/>
        <pt x="164" y="75" on="1"/>
        <pt x="362" y="624" on="1"/>
        <pt x="206" y="622" on="0"/>
        <pt x="80" y="555" on="0"/>
        <pt x="80" y="486" on="1"/>
        <pt x="80" y="456" on="0"/>
        <pt x="106" y="417" on="0"/>
        <pt x="131" y="417" on="1"/>
        <pt x="178" y="417" on="0"/>
        <pt x="178" y="496" on="1"/>
        <pt x="258" y="496" on="1"/>
        <pt x="258" y="431" on="0"/>
        <pt x="198" y="342" on="0"/>
        <pt x="64" y="342" on="0"/>
        <pt x="0" y="426" on="0"/>
        <pt x="0" y="486" on="1"/>
        <pt x="0" y="584" on="0"/>
        <pt x="186" y="700" on="0"/>
      </contour>
      <contour>
        <pt x="433" y="605" on="1"/>
        <pt x="318" y="271" on="1"/>
        <pt x="548" y="271" on="1"/>
      </contour>
      <contour>
        <pt x="557" y="921" on="1"/>
        <pt x="433" y="760" on="1"/>
        <pt x="389" y="786" on="1"/>
        <pt x="486" y="968" on="1"/>
      </contour>
    </TTGlyph>
    <TTGlyph name="Abreve" xMin="0" yMin="0" xMax="768" yMax="894">
      <contour>
        <pt x="389" y="700" on="1"/>
        <pt x="564" y="700" on="1"/>
        <pt x="564" y="625" on="1"/>
        <pt x="504" y="625" on="1"/>
        <pt x="702" y="75" on="1"/>
        <pt x="768" y="75" on="1"/>
        <pt x="768" y="0" on="1"/>
        <pt x="556" y="0" on="1"/>
        <pt x="556" y="75" on="1"/>
        <pt x="615" y="75" on="1"/>
        <pt x="570" y="206" on="1"/>
        <pt x="296" y="206" on="1"/>
        <pt x="251" y="75" on="1"/>
        <pt x="311" y="75" on="1"/>
        <pt x="311" y="0" on="1"/>
        <pt x="99" y="0" on="1"/>
        <pt x="99" y="75" on="1"/>
        <pt x="164" y="75" on="1"/>
        <pt x="362" y="624" on="1"/>
        <pt x="206" y="622" on="0"/>
        <pt x="80" y="555" on="0"/>
        <pt x="80" y="486" on="1"/>
        <pt x="80" y="456" on="0"/>
        <pt x="106" y="417" on="0"/>
        <pt x="131" y="417" on="1"/>
        <pt x="178" y="417" on="0"/>
        <pt x="178" y="496" on="1"/>
        <pt x="258" y="496" on="1"/>
        <pt x="258" y="431" on="0"/>
        <pt x="198" y="342" on="0"/>
        <pt x="64" y="342" on="0"/>
        <pt x="0" y="426" on="0"/>
        <pt x="0" y="486" on="1"/>
        <pt x="0" y="584" on="0"/>
        <pt x="186" y="700" on="0"/>
      </contour>
      <contour>
        <pt x="433" y="605" on="1"/>
        <pt x="318" y="271" on="1"/>
        <pt x="548" y="271" on="1"/>
      </contour>
      <contour>
        <pt x="526" y="750" on="0"/>
        <pt x="340" y="750" on="0"/>
        <pt x="260" y="864" on="1"/>
        <pt x="304" y="894" on="1"/>
        <pt x="361" y="825" on="0"/>
        <pt x="410" y="815" on="1"/>
        <pt x="420" y="813" on="0"/>
        <pt x="446" y="813" on="0"/>
        <pt x="466" y="817" on="0"/>
        <pt x="482" y="824" on="1"/>
        <pt x="516" y="838" on="0"/>
        <pt x="562" y="894" on="1"/>
        <pt x="606" y="864" on="1"/>
      </contour>
    </TTGlyph>
    <TTGlyph name="Acircumflex" xMin="0" yMin="0" xMax="768" yMax="935">
      <contour>
        <pt x="389" y="700" on="1"/>
        <pt x="564" y="700" on="1"/>
        <pt x="564" y="625" on="1"/>
        <pt x="504" y="625" on="1"/>
        <pt x="702" y="75" on="1"/>
        <pt x="768" y="75" on="1"/>
        <pt x="768" y="0" on="1"/>
        <pt x="556" y="0" on="1"/>
        <pt x="556" y="75" on="1"/>
        <pt x="615" y="75" on="1"/>
        <pt x="570" y="206" on="1"/>
        <pt x="296" y="206" on="1"/>
        <pt x="251" y="75" on="1"/>
        <pt x="311" y="75" on="1"/>
        <pt x="311" y="0" on="1"/>
        <pt x="99" y="0" on="1"/>
        <pt x="99" y="75" on="1"/>
        <pt x="164" y="75" on="1"/>
        <pt x="362" y="624" on="1"/>
        <pt x="206" y="622" on="0"/>
        <pt x="80" y="555" on="0"/>
        <pt x="80" y="486" on="1"/>
        <pt x="80" y="456" on="0"/>
        <pt x="106" y="417" on="0"/>
        <pt x="131" y="417" on="1"/>
        <pt x="178" y="417" on="0"/>
        <pt x="178" y="496" on="1"/>
        <pt x="258" y="496" on="1"/>
        <pt x="258" y="431" on="0"/>
        <pt x="198" y="342" on="0"/>
        <pt x="64" y="342" on="0"/>
        <pt x="0" y="426" on="0"/>
        <pt x="0" y="486" on="1"/>
        <pt x="0" y="584" on="0"/>
        <pt x="186" y="700" on="0"/>
      </contour>
      <contour>
        <pt x="433" y="605" on="1"/>
        <pt x="318" y="271" on="1"/>
        <pt x="548" y="271" on="1"/>
      </contour>
      <contour>
        <pt x="460" y="935" on="1"/>
        <pt x="596" y="783" on="1"/>
        <pt x="557" y="750" on="1"/>
        <pt x="433" y="864" on="1"/>
        <pt x="309" y="750" on="1"/>
        <pt x="270" y="783" on="1"/>
        <pt x="406" y="935" on="1"/>
      </contour>
    </TTGlyph>
    <TTGlyph name="Adieresis" xMin="0" yMin="0" xMax="768" yMax="895">
      <contour>
        <pt x="389" y="700" on="1"/>
        <pt x="564" y="700" on="1"/>
        <pt x="564" y="625" on="1"/>
        <pt x="504" y="625" on="1"/>
        <pt x="702" y="75" on="1"/>
        <pt x="768" y="75" on="1"/>
        <pt x="768" y="0" on="1"/>
        <pt x="556" y="0" on="1"/>
        <pt x="556" y="75" on="1"/>
        <pt x="615" y="75" on="1"/>
        <pt x="570" y="206" on="1"/>
        <pt x="296" y="206" on="1"/>
        <pt x="251" y="75" on="1"/>
        <pt x="311" y="75" on="1"/>
        <pt x="311" y="0" on="1"/>
        <pt x="99" y="0" on="1"/>
        <pt x="99" y="75" on="1"/>
        <pt x="164" y="75" on="1"/>
        <pt x="362" y="624" on="1"/>
        <pt x="206" y="622" on="0"/>
        <pt x="80" y="555" on="0"/>
        <pt x="80" y="486" on="1"/>
        <pt x="80" y="456" on="0"/>
        <pt x="106" y="417" on="0"/>
        <pt x="131" y="417" on="1"/>
        <pt x="178" y="417" on="0"/>
        <pt x="178" y="496" on="1"/>
        <pt x="258" y="496" on="1"/>
        <pt x="258" y="431" on="0"/>
        <pt x="198" y="342" on="0"/>
        <pt x="64" y="342" on="0"/>
        <pt x="0" y="426" on="0"/>
        <pt x="0" y="486" on="1"/>
        <pt x="0" y="584" on="0"/>
        <pt x="186" y="700" on="0"/>
      </contour>
      <contour>
        <pt x="433" y="605" on="1"/>
        <pt x="318" y="271" on="1"/>
        <pt x="548" y="271" on="1"/>
      </contour>
      <contour>
        <pt x="289" y="826" on="0"/>
        <pt x="289" y="866" on="0"/>
        <pt x="317" y="895" on="0"/>
        <pt x="357" y="895" on="0"/>
        <pt x="386" y="866" on="0"/>
        <pt x="386" y="826" on="0"/>
        <pt x="357" y="798" on="0"/>
        <pt x="318" y="798" on="0"/>
      </contour>
      <contour>
        <pt x="480" y="826" on="0"/>
        <pt x="480" y="866" on="0"/>
        <pt x="508" y="895" on="0"/>
        <pt x="548" y="895" on="0"/>
        <pt x="577" y="866" on="0"/>
        <pt x="577" y="826" on="0"/>
        <pt x="548" y="798" on="0"/>
        <pt x="508" y="798" on="0"/>
      </contour>
    </TTGlyph>
    <TTGlyph name="Agrave" xMin="0" yMin="0" xMax="768" yMax="968">
      <contour>
        <pt x="389" y="700" on="1"/>
        <pt x="564" y="700" on="1"/>
        <pt x="564" y="625" on="1"/>
        <pt x="504" y="625" on="1"/>
        <pt x="702" y="75" on="1"/>
        <pt x="768" y="75" on="1"/>
        <pt x="768" y="0" on="1"/>
        <pt x="556" y="0" on="1"/>
        <pt x="556" y="75" on="1"/>
        <pt x="615" y="75" on="1"/>
        <pt x="570" y="206" on="1"/>
        <pt x="296" y="206" on="1"/>
        <pt x="251" y="75" on="1"/>
        <pt x="311" y="75" on="1"/>
        <pt x="311" y="0" on="1"/>
        <pt x="99" y="0" on="1"/>
        <pt x="99" y="75" on="1"/>
        <pt x="164" y="75" on="1"/>
        <pt x="362" y="624" on="1"/>
        <pt x="206" y="622" on="0"/>
        <pt x="80" y="555" on="0"/>
        <pt x="80" y="486" on="1"/>
        <pt x="80" y="456" on="0"/>
        <pt x="106" y="417" on="0"/>
        <pt x="131" y="417" on="1"/>
        <pt x="178" y="417" on="0"/>
        <pt x="178" y="496" on="1"/>
        <pt x="258" y="496" on="1"/>
        <pt x="258" y="431" on="0"/>
        <pt x="198" y="342" on="0"/>
        <pt x="64" y="342" on="0"/>
        <pt x="0" y="426" on="0"/>
        <pt x="0" y="486" on="1"/>
        <pt x="0" y="584" on="0"/>
        <pt x="186" y="700" on="0"/>
      </contour>
      <contour>
        <pt x="433" y="605" on="1"/>
        <pt x="318" y="271" on="1"/>
        <pt x="548" y="271" on="1"/>
      </contour>
      <contour>
        <pt x="455" y="760" on="1"/>
        <pt x="331" y="921" on="1"/>
        <pt x="402" y="968" on="1"/>
        <pt x="499" y="786" on="1"/>
      </contour>
    </TTGlyph>
    <TTGlyph name="Aring" xMin="0" yMin="0" xMax="768" yMax="960">
      <contour>
        <pt x="389" y="700" on="1"/>
        <pt x="564" y="700" on="1"/>
        <pt x="564" y="625" on="1"/>
        <pt x="504" y="625" on="1"/>
        <pt x="702" y="75" on="1"/>
        <pt x="768" y="75" on="1"/>
        <pt x="768" y="0" on="1"/>
        <pt x="556" y="0" on="1"/>
        <pt x="556" y="75" on="1"/>
        <pt x="615" y="75" on="1"/>
        <pt x="570" y="206" on="1"/>
        <pt x="296" y="206" on="1"/>
        <pt x="251" y="75" on="1"/>
        <pt x="311" y="75" on="1"/>
        <pt x="311" y="0" on="1"/>
        <pt x="99" y="0" on="1"/>
        <pt x="99" y="75" on="1"/>
        <pt x="164" y="75" on="1"/>
        <pt x="362" y="624" on="1"/>
        <pt x="206" y="622" on="0"/>
        <pt x="80" y="555" on="0"/>
        <pt x="80" y="486" on="1"/>
        <pt x="80" y="456" on="0"/>
        <pt x="106" y="417" on="0"/>
        <pt x="131" y="417" on="1"/>
        <pt x="178" y="417" on="0"/>
        <pt x="178" y="496" on="1"/>
        <pt x="258" y="496" on="1"/>
        <pt x="258" y="431" on="0"/>
        <pt x="198" y="342" on="0"/>
        <pt x="64" y="342" on="0"/>
        <pt x="0" y="426" on="0"/>
        <pt x="0" y="486" on="1"/>
        <pt x="0" y="584" on="0"/>
        <pt x="186" y="700" on="0"/>
      </contour>
      <contour>
        <pt x="433" y="605" on="1"/>
        <pt x="318" y="271" on="1"/>
        <pt x="548" y="271" on="1"/>
      </contour>
      <contour>
        <pt x="539" y="810" on="0"/>
        <pt x="478" y="750" on="0"/>
        <pt x="387" y="750" on="0"/>
        <pt x="324" y="811" on="0"/>
        <pt x="324" y="897" on="0"/>
        <pt x="388" y="960" on="0"/>
        <pt x="478" y="960" on="0"/>
        <pt x="539" y="898" on="0"/>
      </contour>
      <contour>
        <pt x="384" y="834" on="0"/>
        <pt x="411" y="805" on="0"/>
        <pt x="454" y="805" on="0"/>
        <pt x="479" y="833" on="0"/>
        <pt x="479" y="876" on="0"/>
        <pt x="454" y="905" on="0"/>
        <pt x="411" y="905" on="0"/>
        <pt x="384" y="875" on="0"/>
      </contour>
    </TTGlyph>
    <TTGlyph name="Atilde" xMin="0" yMin="0" xMax="768" yMax="885">
      <contour>
        <pt x="389" y="700" on="1"/>
        <pt x="564" y="700" on="1"/>
        <pt x="564" y="625" on="1"/>
        <pt x="504" y="625" on="1"/>
        <pt x="702" y="75" on="1"/>
        <pt x="768" y="75" on="1"/>
        <pt x="768" y="0" on="1"/>
        <pt x="556" y="0" on="1"/>
        <pt x="556" y="75" on="1"/>
        <pt x="615" y="75" on="1"/>
        <pt x="570" y="206" on="1"/>
        <pt x="296" y="206" on="1"/>
        <pt x="251" y="75" on="1"/>
        <pt x="311" y="75" on="1"/>
        <pt x="311" y="0" on="1"/>
        <pt x="99" y="0" on="1"/>
        <pt x="99" y="75" on="1"/>
        <pt x="164" y="75" on="1"/>
        <pt x="362" y="624" on="1"/>
        <pt x="206" y="622" on="0"/>
        <pt x="80" y="555" on="0"/>
        <pt x="80" y="486" on="1"/>
        <pt x="80" y="456" on="0"/>
        <pt x="106" y="417" on="0"/>
        <pt x="131" y="417" on="1"/>
        <pt x="178" y="417" on="0"/>
        <pt x="178" y="496" on="1"/>
        <pt x="258" y="496" on="1"/>
        <pt x="258" y="431" on="0"/>
        <pt x="198" y="342" on="0"/>
        <pt x="64" y="342" on="0"/>
        <pt x="0" y="426" on="0"/>
        <pt x="0" y="486" on="1"/>
        <pt x="0" y="584" on="0"/>
        <pt x="186" y="700" on="0"/>
      </contour>
      <contour>
        <pt x="433" y="605" on="1"/>
        <pt x="318" y="271" on="1"/>
        <pt x="548" y="271" on="1"/>
      </contour>
      <contour>
        <pt x="373" y="885" on="1"/>
        <pt x="403" y="885" on="0"/>
        <pt x="484" y="850" on="0"/>
        <pt x="497" y="846" on="1"/>
        <pt x="555" y="885" on="1"/>
        <pt x="587" y="861" on="1"/>
        <pt x="558" y="782" on="0"/>
        <pt x="496" y="782" on="1"/>
        <pt x="466" y="782" on="0"/>
        <pt x="385" y="817" on="0"/>
        <pt x="372" y="821" on="1"/>
        <pt x="314" y="782" on="1"/>
        <pt x="282" y="806" on="1"/>
        <pt x="311" y="885" on="0"/>
      </contour>
    </TTGlyph>
    <TTGlyph name="B" xMin="0" yMin="-10" xMax="773" yMax="710">
      <contour>
        <pt x="258" y="441" on="0"/>
        <pt x="198" y="352" on="0"/>
        <pt x="64" y="352" on="0"/>
        <pt x="0" y="436" on="0"/>
        <pt x="0" y="496" on="1"/>
        <pt x="0" y="594" on="0"/>
        <pt x="186" y="710" on="0"/>
        <pt x="389" y="710" on="1"/>
        <pt x="742" y="710" on="0"/>
        <pt x="742" y="506" on="1"/>
        <pt x="742" y="404" on="0"/>
        <pt x="647" y="362" on="1"/>
        <pt x="705" y="342" on="0"/>
        <pt x="773" y="251" on="0"/>
        <pt x="773" y="187" on="1"/>
        <pt x="773" y="101" on="0"/>
        <pt x="651" y="-10" on="0"/>
        <pt x="534" y="-10" on="1"/>
        <pt x="512" y="-10" on="0"/>
        <pt x="352" y="0" on="0"/>
        <pt x="304" y="0" on="1"/>
        <pt x="207" y="0" on="1"/>
        <pt x="207" y="75" on="1"/>
        <pt x="304" y="75" on="1"/>
        <pt x="304" y="632" on="1"/>
        <pt x="182" y="623" on="0"/>
        <pt x="80" y="555" on="0"/>
        <pt x="80" y="496" on="1"/>
        <pt x="80" y="466" on="0"/>
        <pt x="106" y="427" on="0"/>
        <pt x="131" y="427" on="1"/>
        <pt x="178" y="427" on="0"/>
        <pt x="178" y="506" on="1"/>
        <pt x="258" y="506" on="1"/>
      </contour>
      <contour>
        <pt x="439" y="317" on="1"/>
        <pt x="439" y="392" on="1"/>
        <pt x="538" y="392" on="1"/>
        <pt x="589" y="392" on="0"/>
        <pt x="657" y="452" on="0"/>
        <pt x="657" y="506" on="1"/>
        <pt x="657" y="572" on="0"/>
        <pt x="535" y="635" on="0"/>
        <pt x="389" y="635" on="1"/>
        <pt x="389" y="72" on="1"/>
        <pt x="513" y="65" on="0"/>
        <pt x="549" y="65" on="1"/>
        <pt x="612" y="65" on="0"/>
        <pt x="688" y="132" on="0"/>
        <pt x="688" y="252" on="0"/>
        <pt x="611" y="317" on="0"/>
        <pt x="549" y="317" on="1"/>
      </contour>
    </TTGlyph>
    <TTGlyph name="C" xMin="35" yMin="-10" xMax="601" yMax="710">
      <contour>
        <pt x="582" y="465" on="0"/>
        <pt x="518" y="381" on="0"/>
        <pt x="384" y="381" on="0"/>
        <pt x="324" y="470" on="0"/>
        <pt x="324" y="535" on="1"/>
        <pt x="404" y="535" on="1"/>
        <pt x="404" y="456" on="0"/>
        <pt x="451" y="456" on="1"/>
        <pt x="476" y="456" on="0"/>
        <pt x="502" y="495" on="0"/>
        <pt x="502" y="525" on="1"/>
        <pt x="502" y="573" on="0"/>
        <pt x="414" y="630" on="0"/>
        <pt x="355" y="630" on="1"/>
        <pt x="251" y="630" on="0"/>
        <pt x="125" y="471" on="0"/>
        <pt x="125" y="229" on="0"/>
        <pt x="251" y="70" on="0"/>
        <pt x="458" y="70" on="0"/>
        <pt x="540" y="156" on="1"/>
        <pt x="601" y="106" on="1"/>
        <pt x="512" y="-10" on="0"/>
        <pt x="206" y="-10" on="0"/>
        <pt x="35" y="189" on="0"/>
        <pt x="35" y="507" on="0"/>
        <pt x="207" y="710" on="0"/>
        <pt x="355" y="710" on="1"/>
        <pt x="446" y="710" on="0"/>
        <pt x="582" y="607" on="0"/>
        <pt x="582" y="525" on="1"/>
      </contour>
    </TTGlyph>
    <TTGlyph name="Cacute" xMin="35" yMin="-10" xMax="601" yMax="968">
      <contour>
        <pt x="582" y="465" on="0"/>
        <pt x="518" y="381" on="0"/>
        <pt x="384" y="381" on="0"/>
        <pt x="324" y="470" on="0"/>
        <pt x="324" y="535" on="1"/>
        <pt x="404" y="535" on="1"/>
        <pt x="404" y="456" on="0"/>
        <pt x="451" y="456" on="1"/>
        <pt x="476" y="456" on="0"/>
        <pt x="502" y="495" on="0"/>
        <pt x="502" y="525" on="1"/>
        <pt x="502" y="573" on="0"/>
        <pt x="414" y="630" on="0"/>
        <pt x="355" y="630" on="1"/>
        <pt x="251" y="630" on="0"/>
        <pt x="125" y="471" on="0"/>
        <pt x="125" y="229" on="0"/>
        <pt x="251" y="70" on="0"/>
        <pt x="458" y="70" on="0"/>
        <pt x="540" y="156" on="1"/>
        <pt x="601" y="106" on="1"/>
        <pt x="512" y="-10" on="0"/>
        <pt x="206" y="-10" on="0"/>
        <pt x="35" y="189" on="0"/>
        <pt x="35" y="507" on="0"/>
        <pt x="207" y="710" on="0"/>
        <pt x="355" y="710" on="1"/>
        <pt x="446" y="710" on="0"/>
        <pt x="582" y="607" on="0"/>
        <pt x="582" y="525" on="1"/>
      </contour>
      <contour>
        <pt x="479" y="921" on="1"/>
        <pt x="355" y="760" on="1"/>
        <pt x="311" y="786" on="1"/>
        <pt x="408" y="968" on="1"/>
      </contour>
    </TTGlyph>
    <TTGlyph name="Ccaron" xMin="35" yMin="-10" xMax="601" yMax="935">
      <contour>
        <pt x="582" y="465" on="0"/>
        <pt x="518" y="381" on="0"/>
        <pt x="384" y="381" on="0"/>
        <pt x="324" y="470" on="0"/>
        <pt x="324" y="535" on="1"/>
        <pt x="404" y="535" on="1"/>
        <pt x="404" y="456" on="0"/>
        <pt x="451" y="456" on="1"/>
        <pt x="476" y="456" on="0"/>
        <pt x="502" y="495" on="0"/>
        <pt x="502" y="525" on="1"/>
        <pt x="502" y="573" on="0"/>
        <pt x="414" y="630" on="0"/>
        <pt x="355" y="630" on="1"/>
        <pt x="251" y="630" on="0"/>
        <pt x="125" y="471" on="0"/>
        <pt x="125" y="229" on="0"/>
        <pt x="251" y="70" on="0"/>
        <pt x="458" y="70" on="0"/>
        <pt x="540" y="156" on="1"/>
        <pt x="601" y="106" on="1"/>
        <pt x="512" y="-10" on="0"/>
        <pt x="206" y="-10" on="0"/>
        <pt x="35" y="189" on="0"/>
        <pt x="35" y="507" on="0"/>
        <pt x="207" y="710" on="0"/>
        <pt x="355" y="710" on="1"/>
        <pt x="446" y="710" on="0"/>
        <pt x="582" y="607" on="0"/>
        <pt x="582" y="525" on="1"/>
      </contour>
      <contour>
        <pt x="518" y="902" on="1"/>
        <pt x="382" y="750" on="1"/>
        <pt x="328" y="750" on="1"/>
        <pt x="192" y="902" on="1"/>
        <pt x="231" y="935" on="1"/>
        <pt x="355" y="821" on="1"/>
        <pt x="479" y="935" on="1"/>
      </contour>
    </TTGlyph>
    <TTGlyph name="Ccedilla" xMin="15" yMin="-260" xMax="581" yMax="710">
      <contour>
        <pt x="498" y="381" on="0"/>
        <pt x="562" y="465" on="0"/>
        <pt x="562" y="525" on="1"/>
        <pt x="562" y="607" on="0"/>
        <pt x="426" y="710" on="0"/>
        <pt x="335" y="710" on="1"/>
        <pt x="187" y="710" on="0"/>
        <pt x="15" y="507" on="0"/>
        <pt x="15" y="189" on="0"/>
        <pt x="186" y="-10" on="0"/>
        <pt x="492" y="-10" on="0"/>
        <pt x="581" y="106" on="1"/>
        <pt x="520" y="156" on="1"/>
        <pt x="438" y="70" on="0"/>
        <pt x="231" y="70" on="0"/>
        <pt x="105" y="229" on="0"/>
        <pt x="105" y="471" on="0"/>
        <pt x="231" y="630" on="0"/>
        <pt x="335" y="630" on="1"/>
        <pt x="394" y="630" on="0"/>
        <pt x="482" y="573" on="0"/>
        <pt x="482" y="525" on="1"/>
        <pt x="482" y="495" on="0"/>
        <pt x="456" y="456" on="0"/>
        <pt x="431" y="456" on="1"/>
        <pt x="384" y="456" on="0"/>
        <pt x="384" y="535" on="1"/>
        <pt x="304" y="535" on="1"/>
        <pt x="304" y="470" on="0"/>
        <pt x="364" y="381" on="0"/>
      </contour>
      <contour>
        <pt x="393" y="-51" on="0"/>
        <pt x="445" y="-101" on="0"/>
        <pt x="445" y="-203" on="0"/>
        <pt x="374" y="-260" on="0"/>
        <pt x="270" y="-260" on="0"/>
        <pt x="227" y="-238" on="1"/>
        <pt x="248" y="-184" on="1"/>
        <pt x="284" y="-200" on="0"/>
        <pt x="315" y="-200" on="1"/>
        <pt x="382" y="-200" on="0"/>
        <pt x="382" y="-147" on="1"/>
        <pt x="382" y="-96" on="0"/>
        <pt x="328" y="-96" on="1"/>
        <pt x="307" y="-96" on="0"/>
        <pt x="275" y="-104" on="1"/>
        <pt x="260" y="-74" on="1"/>
        <pt x="320" y="8" on="1"/>
        <pt x="392" y="8" on="1"/>
        <pt x="350" y="-47" on="1"/>
      </contour>
    </TTGlyph>
    <TTGlyph name="D" xMin="0" yMin="-10" xMax="812" yMax="700">
      <contour>
        <pt x="509" y="-10" on="1"/>
        <pt x="304" y="0" on="1"/>
        <pt x="216" y="0" on="1"/>
        <pt x="216" y="75" on="1"/>
        <pt x="304" y="75" on="1"/>
        <pt x="304" y="622" on="1"/>
        <pt x="182" y="613" on="0"/>
        <pt x="80" y="545" on="0"/>
        <pt x="80" y="486" on="1"/>
        <pt x="80" y="456" on="0"/>
        <pt x="106" y="417" on="0"/>
        <pt x="131" y="417" on="1"/>
        <pt x="178" y="417" on="0"/>
        <pt x="178" y="496" on="1"/>
        <pt x="258" y="496" on="1"/>
        <pt x="258" y="431" on="0"/>
        <pt x="198" y="342" on="0"/>
        <pt x="64" y="342" on="0"/>
        <pt x="0" y="426" on="0"/>
        <pt x="0" y="486" on="1"/>
        <pt x="0" y="584" on="0"/>
        <pt x="186" y="700" on="0"/>
        <pt x="595" y="700" on="0"/>
        <pt x="812" y="495" on="0"/>
        <pt x="812" y="320" on="1"/>
        <pt x="812" y="148" on="0"/>
        <pt x="715" y="58" on="1"/>
        <pt x="641" y="-10" on="0"/>
      </contour>
      <contour>
        <pt x="509" y="65" on="1"/>
        <pt x="569" y="65" on="0"/>
        <pt x="657" y="110" on="0"/>
        <pt x="680" y="148" on="1"/>
        <pt x="722" y="221" on="0"/>
        <pt x="722" y="320" on="1"/>
        <pt x="722" y="465" on="0"/>
        <pt x="552" y="625" on="0"/>
        <pt x="389" y="625" on="1"/>
        <pt x="389" y="71" on="1"/>
        <pt x="481" y="65" on="0"/>
      </contour>
    </TTGlyph>
    <TTGlyph name="Dcaron" xMin="0" yMin="-10" xMax="812" yMax="935">
      <contour>
        <pt x="304" y="0" on="1"/>
        <pt x="216" y="0" on="1"/>
        <pt x="216" y="75" on="1"/>
        <pt x="304" y="75" on="1"/>
        <pt x="304" y="622" on="1"/>
        <pt x="182" y="613" on="0"/>
        <pt x="80" y="545" on="0"/>
        <pt x="80" y="486" on="1"/>
        <pt x="80" y="456" on="0"/>
        <pt x="106" y="417" on="0"/>
        <pt x="131" y="417" on="1"/>
        <pt x="178" y="417" on="0"/>
        <pt x="178" y="496" on="1"/>
        <pt x="258" y="496" on="1"/>
        <pt x="258" y="431" on="0"/>
        <pt x="198" y="342" on="0"/>
        <pt x="64" y="342" on="0"/>
        <pt x="0" y="426" on="0"/>
        <pt x="0" y="486" on="1"/>
        <pt x="0" y="584" on="0"/>
        <pt x="186" y="700" on="0"/>
        <pt x="595" y="700" on="0"/>
        <pt x="812" y="495" on="0"/>
        <pt x="812" y="320" on="1"/>
        <pt x="812" y="210" on="0"/>
        <pt x="772" y="133" on="1"/>
        <pt x="697" y="-10" on="0"/>
        <pt x="509" y="-10" on="1"/>
      </contour>
      <contour>
        <pt x="509" y="65" on="1"/>
        <pt x="569" y="65" on="0"/>
        <pt x="657" y="110" on="0"/>
        <pt x="680" y="148" on="1"/>
        <pt x="722" y="221" on="0"/>
        <pt x="722" y="320" on="1"/>
        <pt x="722" y="465" on="0"/>
        <pt x="552" y="625" on="0"/>
        <pt x="389" y="625" on="1"/>
        <pt x="389" y="71" on="1"/>
        <pt x="481" y="65" on="0"/>
      </contour>
      <contour>
        <pt x="553" y="902" on="1"/>
        <pt x="417" y="750" on="1"/>
        <pt x="363" y="750" on="1"/>
        <pt x="227" y="902" on="1"/>
        <pt x="266" y="935" on="1"/>
        <pt x="390" y="821" on="1"/>
        <pt x="514" y="935" on="1"/>
      </contour>
    </TTGlyph>
    <TTGlyph name="E" xMin="0" yMin="0" xMax="748" yMax="700">
      <contour>
        <pt x="389" y="311" on="1"/>
        <pt x="389" y="75" on="1"/>
        <pt x="678" y="75" on="1"/>
        <pt x="678" y="190" on="1"/>
        <pt x="748" y="190" on="1"/>
        <pt x="748" y="0" on="1"/>
        <pt x="207" y="0" on="1"/>
        <pt x="207" y="75" on="1"/>
        <pt x="304" y="75" on="1"/>
        <pt x="304" y="623" on="1"/>
        <pt x="181" y="615" on="0"/>
        <pt x="80" y="549" on="0"/>
        <pt x="80" y="486" on="1"/>
        <pt x="80" y="456" on="0"/>
        <pt x="106" y="417" on="0"/>
        <pt x="131" y="417" on="1"/>
        <pt x="178" y="417" on="0"/>
        <pt x="178" y="496" on="1"/>
        <pt x="258" y="496" on="1"/>
        <pt x="258" y="431" on="0"/>
        <pt x="198" y="342" on="0"/>
        <pt x="64" y="342" on="0"/>
        <pt x="0" y="426" on="0"/>
        <pt x="0" y="486" on="1"/>
        <pt x="0" y="584" on="0"/>
        <pt x="186" y="700" on="0"/>
        <pt x="389" y="700" on="1"/>
        <pt x="739" y="700" on="1"/>
        <pt x="739" y="510" on="1"/>
        <pt x="669" y="510" on="1"/>
        <pt x="669" y="625" on="1"/>
        <pt x="389" y="625" on="1"/>
        <pt x="389" y="386" on="1"/>
        <pt x="527" y="386" on="1"/>
        <pt x="527" y="446" on="1"/>
        <pt x="597" y="446" on="1"/>
        <pt x="597" y="251" on="1"/>
        <pt x="527" y="251" on="1"/>
        <pt x="527" y="311" on="1"/>
      </contour>
    </TTGlyph>
    <TTGlyph name="Eacute" xMin="0" yMin="0" xMax="748" yMax="968">
      <contour>
        <pt x="389" y="311" on="1"/>
        <pt x="389" y="75" on="1"/>
        <pt x="678" y="75" on="1"/>
        <pt x="678" y="190" on="1"/>
        <pt x="748" y="190" on="1"/>
        <pt x="748" y="0" on="1"/>
        <pt x="207" y="0" on="1"/>
        <pt x="207" y="75" on="1"/>
        <pt x="304" y="75" on="1"/>
        <pt x="304" y="623" on="1"/>
        <pt x="181" y="615" on="0"/>
        <pt x="80" y="549" on="0"/>
        <pt x="80" y="486" on="1"/>
        <pt x="80" y="456" on="0"/>
        <pt x="106" y="417" on="0"/>
        <pt x="131" y="417" on="1"/>
        <pt x="178" y="417" on="0"/>
        <pt x="178" y="496" on="1"/>
        <pt x="258" y="496" on="1"/>
        <pt x="258" y="431" on="0"/>
        <pt x="198" y="342" on="0"/>
        <pt x="64" y="342" on="0"/>
        <pt x="0" y="426" on="0"/>
        <pt x="0" y="486" on="1"/>
        <pt x="0" y="584" on="0"/>
        <pt x="186" y="700" on="0"/>
        <pt x="389" y="700" on="1"/>
        <pt x="739" y="700" on="1"/>
        <pt x="739" y="510" on="1"/>
        <pt x="669" y="510" on="1"/>
        <pt x="669" y="625" on="1"/>
        <pt x="389" y="625" on="1"/>
        <pt x="389" y="386" on="1"/>
        <pt x="527" y="386" on="1"/>
        <pt x="527" y="446" on="1"/>
        <pt x="597" y="446" on="1"/>
        <pt x="597" y="251" on="1"/>
        <pt x="527" y="251" on="1"/>
        <pt x="527" y="311" on="1"/>
      </contour>
      <contour>
        <pt x="574" y="921" on="1"/>
        <pt x="450" y="760" on="1"/>
        <pt x="406" y="786" on="1"/>
        <pt x="503" y="968" on="1"/>
      </contour>
    </TTGlyph>
    <TTGlyph name="Ecaron" xMin="0" yMin="0" xMax="748" yMax="935">
      <contour>
        <pt x="389" y="311" on="1"/>
        <pt x="389" y="75" on="1"/>
        <pt x="678" y="75" on="1"/>
        <pt x="678" y="190" on="1"/>
        <pt x="748" y="190" on="1"/>
        <pt x="748" y="0" on="1"/>
        <pt x="207" y="0" on="1"/>
        <pt x="207" y="75" on="1"/>
        <pt x="304" y="75" on="1"/>
        <pt x="304" y="623" on="1"/>
        <pt x="181" y="615" on="0"/>
        <pt x="80" y="549" on="0"/>
        <pt x="80" y="486" on="1"/>
        <pt x="80" y="456" on="0"/>
        <pt x="106" y="417" on="0"/>
        <pt x="131" y="417" on="1"/>
        <pt x="178" y="417" on="0"/>
        <pt x="178" y="496" on="1"/>
        <pt x="258" y="496" on="1"/>
        <pt x="258" y="431" on="0"/>
        <pt x="198" y="342" on="0"/>
        <pt x="64" y="342" on="0"/>
        <pt x="0" y="426" on="0"/>
        <pt x="0" y="486" on="1"/>
        <pt x="0" y="584" on="0"/>
        <pt x="186" y="700" on="0"/>
        <pt x="389" y="700" on="1"/>
        <pt x="739" y="700" on="1"/>
        <pt x="739" y="510" on="1"/>
        <pt x="669" y="510" on="1"/>
        <pt x="669" y="625" on="1"/>
        <pt x="389" y="625" on="1"/>
        <pt x="389" y="386" on="1"/>
        <pt x="527" y="386" on="1"/>
        <pt x="527" y="446" on="1"/>
        <pt x="597" y="446" on="1"/>
        <pt x="597" y="251" on="1"/>
        <pt x="527" y="251" on="1"/>
        <pt x="527" y="311" on="1"/>
      </contour>
      <contour>
        <pt x="613" y="902" on="1"/>
        <pt x="477" y="750" on="1"/>
        <pt x="423" y="750" on="1"/>
        <pt x="287" y="902" on="1"/>
        <pt x="326" y="935" on="1"/>
        <pt x="450" y="821" on="1"/>
        <pt x="574" y="935" on="1"/>
      </contour>
    </TTGlyph>
    <TTGlyph name="Ecircumflex" xMin="0" yMin="0" xMax="748" yMax="935">
      <contour>
        <pt x="389" y="311" on="1"/>
        <pt x="389" y="75" on="1"/>
        <pt x="678" y="75" on="1"/>
        <pt x="678" y="190" on="1"/>
        <pt x="748" y="190" on="1"/>
        <pt x="748" y="0" on="1"/>
        <pt x="207" y="0" on="1"/>
        <pt x="207" y="75" on="1"/>
        <pt x="304" y="75" on="1"/>
        <pt x="304" y="623" on="1"/>
        <pt x="181" y="615" on="0"/>
        <pt x="80" y="549" on="0"/>
        <pt x="80" y="486" on="1"/>
        <pt x="80" y="456" on="0"/>
        <pt x="106" y="417" on="0"/>
        <pt x="131" y="417" on="1"/>
        <pt x="178" y="417" on="0"/>
        <pt x="178" y="496" on="1"/>
        <pt x="258" y="496" on="1"/>
        <pt x="258" y="431" on="0"/>
        <pt x="198" y="342" on="0"/>
        <pt x="64" y="342" on="0"/>
        <pt x="0" y="426" on="0"/>
        <pt x="0" y="486" on="1"/>
        <pt x="0" y="584" on="0"/>
        <pt x="186" y="700" on="0"/>
        <pt x="389" y="700" on="1"/>
        <pt x="739" y="700" on="1"/>
        <pt x="739" y="510" on="1"/>
        <pt x="669" y="510" on="1"/>
        <pt x="669" y="625" on="1"/>
        <pt x="389" y="625" on="1"/>
        <pt x="389" y="386" on="1"/>
        <pt x="527" y="386" on="1"/>
        <pt x="527" y="446" on="1"/>
        <pt x="597" y="446" on="1"/>
        <pt x="597" y="251" on="1"/>
        <pt x="527" y="251" on="1"/>
        <pt x="527" y="311" on="1"/>
      </contour>
      <contour>
        <pt x="477" y="935" on="1"/>
        <pt x="613" y="783" on="1"/>
        <pt x="574" y="750" on="1"/>
        <pt x="450" y="864" on="1"/>
        <pt x="326" y="750" on="1"/>
        <pt x="287" y="783" on="1"/>
        <pt x="423" y="935" on="1"/>
      </contour>
    </TTGlyph>
    <TTGlyph name="Edieresis" xMin="0" yMin="0" xMax="748" yMax="895">
      <contour>
        <pt x="389" y="311" on="1"/>
        <pt x="389" y="75" on="1"/>
        <pt x="678" y="75" on="1"/>
        <pt x="678" y="190" on="1"/>
        <pt x="748" y="190" on="1"/>
        <pt x="748" y="0" on="1"/>
        <pt x="207" y="0" on="1"/>
        <pt x="207" y="75" on="1"/>
        <pt x="304" y="75" on="1"/>
        <pt x="304" y="623" on="1"/>
        <pt x="181" y="615" on="0"/>
        <pt x="80" y="549" on="0"/>
        <pt x="80" y="486" on="1"/>
        <pt x="80" y="456" on="0"/>
        <pt x="106" y="417" on="0"/>
        <pt x="131" y="417" on="1"/>
        <pt x="178" y="417" on="0"/>
        <pt x="178" y="496" on="1"/>
        <pt x="258" y="496" on="1"/>
        <pt x="258" y="431" on="0"/>
        <pt x="198" y="342" on="0"/>
        <pt x="64" y="342" on="0"/>
        <pt x="0" y="426" on="0"/>
        <pt x="0" y="486" on="1"/>
        <pt x="0" y="584" on="0"/>
        <pt x="186" y="700" on="0"/>
        <pt x="389" y="700" on="1"/>
        <pt x="739" y="700" on="1"/>
        <pt x="739" y="510" on="1"/>
        <pt x="669" y="510" on="1"/>
        <pt x="669" y="625" on="1"/>
        <pt x="389" y="625" on="1"/>
        <pt x="389" y="386" on="1"/>
        <pt x="527" y="386" on="1"/>
        <pt x="527" y="446" on="1"/>
        <pt x="597" y="446" on="1"/>
        <pt x="597" y="251" on="1"/>
        <pt x="527" y="251" on="1"/>
        <pt x="527" y="311" on="1"/>
      </contour>
      <contour>
        <pt x="306" y="826" on="0"/>
        <pt x="306" y="866" on="0"/>
        <pt x="334" y="895" on="0"/>
        <pt x="374" y="895" on="0"/>
        <pt x="403" y="866" on="0"/>
        <pt x="403" y="826" on="0"/>
        <pt x="374" y="798" on="0"/>
        <pt x="334" y="798" on="0"/>
      </contour>
      <contour>
        <pt x="497" y="826" on="0"/>
        <pt x="497" y="866" on="0"/>
        <pt x="525" y="895" on="0"/>
        <pt x="565" y="895" on="0"/>
        <pt x="594" y="866" on="0"/>
        <pt x="594" y="826" on="0"/>
        <pt x="565" y="798" on="0"/>
        <pt x="526" y="798" on="0"/>
      </contour>
    </TTGlyph>
    <TTGlyph name="Egrave" xMin="0" yMin="0" xMax="748" yMax="968">
      <contour>
        <pt x="389" y="311" on="1"/>
        <pt x="389" y="75" on="1"/>
        <pt x="678" y="75" on="1"/>
        <pt x="678" y="190" on="1"/>
        <pt x="748" y="190" on="1"/>
        <pt x="748" y="0" on="1"/>
        <pt x="207" y="0" on="1"/>
        <pt x="207" y="75" on="1"/>
        <pt x="304" y="75" on="1"/>
        <pt x="304" y="623" on="1"/>
        <pt x="181" y="615" on="0"/>
        <pt x="80" y="549" on="0"/>
        <pt x="80" y="486" on="1"/>
        <pt x="80" y="456" on="0"/>
        <pt x="106" y="417" on="0"/>
        <pt x="131" y="417" on="1"/>
        <pt x="178" y="417" on="0"/>
        <pt x="178" y="496" on="1"/>
        <pt x="258" y="496" on="1"/>
        <pt x="258" y="431" on="0"/>
        <pt x="198" y="342" on="0"/>
        <pt x="64" y="342" on="0"/>
        <pt x="0" y="426" on="0"/>
        <pt x="0" y="486" on="1"/>
        <pt x="0" y="584" on="0"/>
        <pt x="186" y="700" on="0"/>
        <pt x="389" y="700" on="1"/>
        <pt x="739" y="700" on="1"/>
        <pt x="739" y="510" on="1"/>
        <pt x="669" y="510" on="1"/>
        <pt x="669" y="625" on="1"/>
        <pt x="389" y="625" on="1"/>
        <pt x="389" y="386" on="1"/>
        <pt x="527" y="386" on="1"/>
        <pt x="527" y="446" on="1"/>
        <pt x="597" y="446" on="1"/>
        <pt x="597" y="251" on="1"/>
        <pt x="527" y="251" on="1"/>
        <pt x="527" y="311" on="1"/>
      </contour>
      <contour>
        <pt x="472" y="760" on="1"/>
        <pt x="348" y="921" on="1"/>
        <pt x="419" y="968" on="1"/>
        <pt x="516" y="786" on="1"/>
      </contour>
    </TTGlyph>
    <TTGlyph name="Eth" xMin="0" yMin="-10" xMax="812" yMax="700">
      <contour>
        <pt x="509" y="-10" on="1"/>
        <pt x="304" y="0" on="1"/>
        <pt x="216" y="0" on="1"/>
        <pt x="216" y="75" on="1"/>
        <pt x="304" y="75" on="1"/>
        <pt x="304" y="260" on="1"/>
        <pt x="200" y="260" on="1"/>
        <pt x="200" y="317" on="1"/>
        <pt x="304" y="317" on="1"/>
        <pt x="304" y="622" on="1"/>
        <pt x="182" y="613" on="0"/>
        <pt x="80" y="545" on="0"/>
        <pt x="80" y="486" on="1"/>
        <pt x="80" y="456" on="0"/>
        <pt x="106" y="417" on="0"/>
        <pt x="131" y="417" on="1"/>
        <pt x="178" y="417" on="0"/>
        <pt x="178" y="496" on="1"/>
        <pt x="258" y="496" on="1"/>
        <pt x="258" y="431" on="0"/>
        <pt x="198" y="342" on="0"/>
        <pt x="64" y="342" on="0"/>
        <pt x="0" y="426" on="0"/>
        <pt x="0" y="486" on="1"/>
        <pt x="0" y="584" on="0"/>
        <pt x="186" y="700" on="0"/>
        <pt x="595" y="700" on="0"/>
        <pt x="812" y="495" on="0"/>
        <pt x="812" y="320" on="1"/>
        <pt x="812" y="148" on="0"/>
        <pt x="715" y="58" on="1"/>
        <pt x="641" y="-10" on="0"/>
      </contour>
      <contour>
        <pt x="509" y="65" on="1"/>
        <pt x="569" y="65" on="0"/>
        <pt x="657" y="110" on="0"/>
        <pt x="680" y="148" on="1"/>
        <pt x="722" y="221" on="0"/>
        <pt x="722" y="320" on="1"/>
        <pt x="722" y="465" on="0"/>
        <pt x="552" y="625" on="0"/>
        <pt x="389" y="625" on="1"/>
        <pt x="389" y="317" on="1"/>
        <pt x="490" y="317" on="1"/>
        <pt x="490" y="260" on="1"/>
        <pt x="389" y="260" on="1"/>
        <pt x="389" y="71" on="1"/>
        <pt x="481" y="65" on="0"/>
      </contour>
    </TTGlyph>
    <TTGlyph name="Euro" xMin="7" yMin="-10" xMax="638" yMax="710">
      <contour>
        <pt x="619" y="465" on="0"/>
        <pt x="555" y="381" on="0"/>
        <pt x="421" y="381" on="0"/>
        <pt x="361" y="470" on="0"/>
        <pt x="361" y="535" on="1"/>
        <pt x="441" y="535" on="1"/>
        <pt x="441" y="456" on="0"/>
        <pt x="488" y="456" on="1"/>
        <pt x="513" y="456" on="0"/>
        <pt x="539" y="495" on="0"/>
        <pt x="539" y="525" on="1"/>
        <pt x="539" y="573" on="0"/>
        <pt x="451" y="630" on="0"/>
        <pt x="392" y="630" on="1"/>
        <pt x="301" y="630" on="0"/>
        <pt x="181" y="506" on="0"/>
        <pt x="166" y="407" on="1"/>
        <pt x="334" y="407" on="1"/>
        <pt x="314" y="350" on="1"/>
        <pt x="162" y="350" on="1"/>
        <pt x="162" y="324" on="0"/>
        <pt x="165" y="302" on="1"/>
        <pt x="334" y="302" on="1"/>
        <pt x="314" y="245" on="1"/>
        <pt x="176" y="245" on="1"/>
        <pt x="200" y="165" on="0"/>
        <pt x="313" y="70" on="0"/>
        <pt x="392" y="70" on="1"/>
        <pt x="495" y="70" on="0"/>
        <pt x="577" y="156" on="1"/>
        <pt x="638" y="106" on="1"/>
        <pt x="549" y="-10" on="0"/>
        <pt x="392" y="-10" on="1"/>
        <pt x="269" y="-10" on="0"/>
        <pt x="107" y="128" on="0"/>
        <pt x="82" y="245" on="1"/>
        <pt x="7" y="245" on="1"/>
        <pt x="27" y="302" on="1"/>
        <pt x="74" y="302" on="1"/>
        <pt x="72" y="317" on="0"/>
        <pt x="72" y="350" on="1"/>
        <pt x="7" y="350" on="1"/>
        <pt x="27" y="407" on="1"/>
        <pt x="75" y="407" on="1"/>
        <pt x="91" y="544" on="0"/>
        <pt x="258" y="710" on="0"/>
        <pt x="392" y="710" on="1"/>
        <pt x="483" y="710" on="0"/>
        <pt x="619" y="607" on="0"/>
        <pt x="619" y="525" on="1"/>
      </contour>
    </TTGlyph>
    <TTGlyph name="F" xMin="0" yMin="0" xMax="739" yMax="700">
      <contour>
        <pt x="207" y="0" on="1"/>
        <pt x="207" y="75" on="1"/>
        <pt x="304" y="75" on="1"/>
        <pt x="304" y="623" on="1"/>
        <pt x="181" y="615" on="0"/>
        <pt x="80" y="549" on="0"/>
        <pt x="80" y="486" on="1"/>
        <pt x="80" y="456" on="0"/>
        <pt x="106" y="417" on="0"/>
        <pt x="131" y="417" on="1"/>
        <pt x="178" y="417" on="0"/>
        <pt x="178" y="496" on="1"/>
        <pt x="258" y="496" on="1"/>
        <pt x="258" y="431" on="0"/>
        <pt x="198" y="342" on="0"/>
        <pt x="64" y="342" on="0"/>
        <pt x="0" y="426" on="0"/>
        <pt x="0" y="486" on="1"/>
        <pt x="0" y="584" on="0"/>
        <pt x="186" y="700" on="0"/>
        <pt x="389" y="700" on="1"/>
        <pt x="739" y="700" on="1"/>
        <pt x="739" y="510" on="1"/>
        <pt x="669" y="510" on="1"/>
        <pt x="669" y="625" on="1"/>
        <pt x="389" y="625" on="1"/>
        <pt x="389" y="386" on="1"/>
        <pt x="527" y="386" on="1"/>
        <pt x="527" y="446" on="1"/>
        <pt x="597" y="446" on="1"/>
        <pt x="597" y="251" on="1"/>
        <pt x="527" y="251" on="1"/>
        <pt x="527" y="311" on="1"/>
        <pt x="389" y="311" on="1"/>
        <pt x="389" y="75" on="1"/>
        <pt x="496" y="75" on="1"/>
        <pt x="496" y="0" on="1"/>
      </contour>
    </TTGlyph>
    <TTGlyph name="G" xMin="48" yMin="-10" xMax="604" yMax="710">
      <contour>
        <pt x="48" y="189" on="0"/>
        <pt x="48" y="507" on="0"/>
        <pt x="220" y="710" on="0"/>
        <pt x="368" y="710" on="1"/>
        <pt x="470" y="710" on="0"/>
        <pt x="595" y="609" on="0"/>
        <pt x="595" y="525" on="1"/>
        <pt x="595" y="465" on="0"/>
        <pt x="531" y="381" on="0"/>
        <pt x="397" y="381" on="0"/>
        <pt x="337" y="470" on="0"/>
        <pt x="337" y="535" on="1"/>
        <pt x="417" y="535" on="1"/>
        <pt x="417" y="456" on="0"/>
        <pt x="464" y="456" on="1"/>
        <pt x="489" y="456" on="0"/>
        <pt x="515" y="495" on="0"/>
        <pt x="515" y="525" on="1"/>
        <pt x="515" y="579" on="0"/>
        <pt x="438" y="635" on="0"/>
        <pt x="368" y="635" on="1"/>
        <pt x="264" y="635" on="0"/>
        <pt x="138" y="474" on="0"/>
        <pt x="138" y="230" on="0"/>
        <pt x="266" y="65" on="0"/>
        <pt x="432" y="65" on="0"/>
        <pt x="519" y="157" on="0"/>
        <pt x="519" y="223" on="1"/>
        <pt x="519" y="235" on="1"/>
        <pt x="355" y="235" on="1"/>
        <pt x="355" y="310" on="1"/>
        <pt x="604" y="310" on="1"/>
        <pt x="604" y="0" on="1"/>
        <pt x="542" y="0" on="1"/>
        <pt x="523" y="73" on="1"/>
        <pt x="505" y="51" on="0"/>
        <pt x="479" y="25" on="0"/>
        <pt x="399" y="-10" on="0"/>
        <pt x="348" y="-10" on="1"/>
        <pt x="208" y="-10" on="0"/>
      </contour>
    </TTGlyph>
    <TTGlyph name="H" xMin="0" yMin="0" xMax="899" yMax="700">
      <contour>
        <pt x="389" y="625" on="1"/>
        <pt x="389" y="393" on="1"/>
        <pt x="717" y="393" on="1"/>
        <pt x="717" y="625" on="1"/>
        <pt x="630" y="625" on="1"/>
        <pt x="630" y="700" on="1"/>
        <pt x="899" y="700" on="1"/>
        <pt x="899" y="625" on="1"/>
        <pt x="802" y="625" on="1"/>
        <pt x="802" y="75" on="1"/>
        <pt x="899" y="75" on="1"/>
        <pt x="899" y="0" on="1"/>
        <pt x="630" y="0" on="1"/>
        <pt x="630" y="75" on="1"/>
        <pt x="717" y="75" on="1"/>
        <pt x="717" y="318" on="1"/>
        <pt x="389" y="318" on="1"/>
        <pt x="389" y="75" on="1"/>
        <pt x="476" y="75" on="1"/>
        <pt x="476" y="0" on="1"/>
        <pt x="207" y="0" on="1"/>
        <pt x="207" y="75" on="1"/>
        <pt x="304" y="75" on="1"/>
        <pt x="304" y="623" on="1"/>
        <pt x="181" y="615" on="0"/>
        <pt x="80" y="549" on="0"/>
        <pt x="80" y="486" on="1"/>
        <pt x="80" y="456" on="0"/>
        <pt x="106" y="417" on="0"/>
        <pt x="131" y="417" on="1"/>
        <pt x="178" y="417" on="0"/>
        <pt x="178" y="496" on="1"/>
        <pt x="258" y="496" on="1"/>
        <pt x="258" y="431" on="0"/>
        <pt x="198" y="342" on="0"/>
        <pt x="64" y="342" on="0"/>
        <pt x="0" y="426" on="0"/>
        <pt x="0" y="486" on="1"/>
        <pt x="0" y="584" on="0"/>
        <pt x="186" y="700" on="0"/>
        <pt x="389" y="700" on="1"/>
        <pt x="476" y="700" on="1"/>
        <pt x="476" y="625" on="1"/>
      </contour>
    </TTGlyph>
    <TTGlyph name="I" xMin="0" yMin="0" xMax="486" yMax="700">
      <contour>
        <pt x="389" y="625" on="1"/>
        <pt x="389" y="75" on="1"/>
        <pt x="486" y="75" on="1"/>
        <pt x="486" y="0" on="1"/>
        <pt x="216" y="0" on="1"/>
        <pt x="216" y="75" on="1"/>
        <pt x="304" y="75" on="1"/>
        <pt x="304" y="623" on="1"/>
        <pt x="181" y="615" on="0"/>
        <pt x="80" y="549" on="0"/>
        <pt x="80" y="486" on="1"/>
        <pt x="80" y="456" on="0"/>
        <pt x="106" y="417" on="0"/>
        <pt x="131" y="417" on="1"/>
        <pt x="178" y="417" on="0"/>
        <pt x="178" y="496" on="1"/>
        <pt x="258" y="496" on="1"/>
        <pt x="258" y="431" on="0"/>
        <pt x="198" y="342" on="0"/>
        <pt x="64" y="342" on="0"/>
        <pt x="0" y="426" on="0"/>
        <pt x="0" y="486" on="1"/>
        <pt x="0" y="584" on="0"/>
        <pt x="186" y="700" on="0"/>
        <pt x="389" y="700" on="1"/>
        <pt x="486" y="700" on="1"/>
        <pt x="486" y="625" on="1"/>
      </contour>
    </TTGlyph>
    <TTGlyph name="IJ" xMin="0" yMin="-160" xMax="841" yMax="700">
      <contour>
        <pt x="542" y="625" on="1"/>
        <pt x="542" y="700" on="1"/>
        <pt x="841" y="700" on="1"/>
        <pt x="841" y="625" on="1"/>
        <pt x="734" y="625" on="1"/>
        <pt x="734" y="100" on="1"/>
        <pt x="734" y="-21" on="0"/>
        <pt x="618" y="-160" on="0"/>
        <pt x="505" y="-160" on="1"/>
        <pt x="505" y="-90" on="1"/>
        <pt x="574" y="-90" on="0"/>
        <pt x="649" y="10" on="0"/>
        <pt x="649" y="100" on="1"/>
        <pt x="649" y="625" on="1"/>
      </contour>
      <contour>
        <pt x="389" y="625" on="1"/>
        <pt x="389" y="75" on="1"/>
        <pt x="486" y="75" on="1"/>
        <pt x="486" y="0" on="1"/>
        <pt x="216" y="0" on="1"/>
        <pt x="216" y="75" on="1"/>
        <pt x="304" y="75" on="1"/>
        <pt x="304" y="623" on="1"/>
        <pt x="181" y="615" on="0"/>
        <pt x="80" y="549" on="0"/>
        <pt x="80" y="486" on="1"/>
        <pt x="80" y="456" on="0"/>
        <pt x="106" y="417" on="0"/>
        <pt x="131" y="417" on="1"/>
        <pt x="178" y="417" on="0"/>
        <pt x="178" y="496" on="1"/>
        <pt x="258" y="496" on="1"/>
        <pt x="258" y="431" on="0"/>
        <pt x="198" y="342" on="0"/>
        <pt x="64" y="342" on="0"/>
        <pt x="0" y="426" on="0"/>
        <pt x="0" y="486" on="1"/>
        <pt x="0" y="584" on="0"/>
        <pt x="186" y="700" on="0"/>
        <pt x="389" y="700" on="1"/>
        <pt x="486" y="700" on="1"/>
        <pt x="486" y="625" on="1"/>
      </contour>
    </TTGlyph>
    <TTGlyph name="Iacute" xMin="0" yMin="0" xMax="496" yMax="968">
      <contour>
        <pt x="389" y="625" on="1"/>
        <pt x="389" y="75" on="1"/>
        <pt x="486" y="75" on="1"/>
        <pt x="486" y="0" on="1"/>
        <pt x="216" y="0" on="1"/>
        <pt x="216" y="75" on="1"/>
        <pt x="304" y="75" on="1"/>
        <pt x="304" y="623" on="1"/>
        <pt x="181" y="615" on="0"/>
        <pt x="80" y="549" on="0"/>
        <pt x="80" y="486" on="1"/>
        <pt x="80" y="456" on="0"/>
        <pt x="106" y="417" on="0"/>
        <pt x="131" y="417" on="1"/>
        <pt x="178" y="417" on="0"/>
        <pt x="178" y="496" on="1"/>
        <pt x="258" y="496" on="1"/>
        <pt x="258" y="431" on="0"/>
        <pt x="198" y="342" on="0"/>
        <pt x="64" y="342" on="0"/>
        <pt x="0" y="426" on="0"/>
        <pt x="0" y="486" on="1"/>
        <pt x="0" y="584" on="0"/>
        <pt x="186" y="700" on="0"/>
        <pt x="389" y="700" on="1"/>
        <pt x="486" y="700" on="1"/>
        <pt x="486" y="625" on="1"/>
      </contour>
      <contour>
        <pt x="496" y="921" on="1"/>
        <pt x="372" y="760" on="1"/>
        <pt x="328" y="786" on="1"/>
        <pt x="425" y="968" on="1"/>
      </contour>
    </TTGlyph>
    <TTGlyph name="Icircumflex" xMin="0" yMin="0" xMax="505" yMax="935">
      <contour>
        <pt x="389" y="625" on="1"/>
        <pt x="389" y="75" on="1"/>
        <pt x="486" y="75" on="1"/>
        <pt x="486" y="0" on="1"/>
        <pt x="216" y="0" on="1"/>
        <pt x="216" y="75" on="1"/>
        <pt x="304" y="75" on="1"/>
        <pt x="304" y="623" on="1"/>
        <pt x="181" y="615" on="0"/>
        <pt x="80" y="549" on="0"/>
        <pt x="80" y="486" on="1"/>
        <pt x="80" y="456" on="0"/>
        <pt x="106" y="417" on="0"/>
        <pt x="131" y="417" on="1"/>
        <pt x="178" y="417" on="0"/>
        <pt x="178" y="496" on="1"/>
        <pt x="258" y="496" on="1"/>
        <pt x="258" y="431" on="0"/>
        <pt x="198" y="342" on="0"/>
        <pt x="64" y="342" on="0"/>
        <pt x="0" y="426" on="0"/>
        <pt x="0" y="486" on="1"/>
        <pt x="0" y="584" on="0"/>
        <pt x="186" y="700" on="0"/>
        <pt x="389" y="700" on="1"/>
        <pt x="486" y="700" on="1"/>
        <pt x="486" y="625" on="1"/>
      </contour>
      <contour>
        <pt x="369" y="935" on="1"/>
        <pt x="505" y="783" on="1"/>
        <pt x="466" y="750" on="1"/>
        <pt x="342" y="864" on="1"/>
        <pt x="218" y="750" on="1"/>
        <pt x="179" y="783" on="1"/>
        <pt x="315" y="935" on="1"/>
      </contour>
    </TTGlyph>
    <TTGlyph name="Idieresis" xMin="0" yMin="0" xMax="486" yMax="895">
      <contour>
        <pt x="389" y="625" on="1"/>
        <pt x="389" y="75" on="1"/>
        <pt x="486" y="75" on="1"/>
        <pt x="486" y="0" on="1"/>
        <pt x="216" y="0" on="1"/>
        <pt x="216" y="75" on="1"/>
        <pt x="304" y="75" on="1"/>
        <pt x="304" y="623" on="1"/>
        <pt x="181" y="615" on="0"/>
        <pt x="80" y="549" on="0"/>
        <pt x="80" y="486" on="1"/>
        <pt x="80" y="456" on="0"/>
        <pt x="106" y="417" on="0"/>
        <pt x="131" y="417" on="1"/>
        <pt x="178" y="417" on="0"/>
        <pt x="178" y="496" on="1"/>
        <pt x="258" y="496" on="1"/>
        <pt x="258" y="431" on="0"/>
        <pt x="198" y="342" on="0"/>
        <pt x="64" y="342" on="0"/>
        <pt x="0" y="426" on="0"/>
        <pt x="0" y="486" on="1"/>
        <pt x="0" y="584" on="0"/>
        <pt x="186" y="700" on="0"/>
        <pt x="389" y="700" on="1"/>
        <pt x="486" y="700" on="1"/>
        <pt x="486" y="625" on="1"/>
      </contour>
      <contour>
        <pt x="189" y="826" on="0"/>
        <pt x="189" y="866" on="0"/>
        <pt x="217" y="895" on="0"/>
        <pt x="257" y="895" on="0"/>
        <pt x="286" y="866" on="0"/>
        <pt x="286" y="826" on="0"/>
        <pt x="257" y="798" on="0"/>
        <pt x="218" y="798" on="0"/>
      </contour>
      <contour>
        <pt x="380" y="826" on="0"/>
        <pt x="380" y="866" on="0"/>
        <pt x="408" y="895" on="0"/>
        <pt x="448" y="895" on="0"/>
        <pt x="477" y="866" on="0"/>
        <pt x="477" y="826" on="0"/>
        <pt x="448" y="798" on="0"/>
        <pt x="408" y="798" on="0"/>
      </contour>
    </TTGlyph>
    <TTGlyph name="Igrave" xMin="0" yMin="0" xMax="486" yMax="968">
      <contour>
        <pt x="389" y="625" on="1"/>
        <pt x="389" y="75" on="1"/>
        <pt x="486" y="75" on="1"/>
        <pt x="486" y="0" on="1"/>
        <pt x="216" y="0" on="1"/>
        <pt x="216" y="75" on="1"/>
        <pt x="304" y="75" on="1"/>
        <pt x="304" y="623" on="1"/>
        <pt x="181" y="615" on="0"/>
        <pt x="80" y="549" on="0"/>
        <pt x="80" y="486" on="1"/>
        <pt x="80" y="456" on="0"/>
        <pt x="106" y="417" on="0"/>
        <pt x="131" y="417" on="1"/>
        <pt x="178" y="417" on="0"/>
        <pt x="178" y="496" on="1"/>
        <pt x="258" y="496" on="1"/>
        <pt x="258" y="431" on="0"/>
        <pt x="198" y="342" on="0"/>
        <pt x="64" y="342" on="0"/>
        <pt x="0" y="426" on="0"/>
        <pt x="0" y="486" on="1"/>
        <pt x="0" y="584" on="0"/>
        <pt x="186" y="700" on="0"/>
        <pt x="389" y="700" on="1"/>
        <pt x="486" y="700" on="1"/>
        <pt x="486" y="625" on="1"/>
      </contour>
      <contour>
        <pt x="328" y="760" on="1"/>
        <pt x="204" y="921" on="1"/>
        <pt x="275" y="968" on="1"/>
        <pt x="372" y="786" on="1"/>
      </contour>
    </TTGlyph>
    <TTGlyph name="Itilde" xMin="0" yMin="0" xMax="526" yMax="885">
      <contour>
        <pt x="389" y="625" on="1"/>
        <pt x="389" y="75" on="1"/>
        <pt x="486" y="75" on="1"/>
        <pt x="486" y="0" on="1"/>
        <pt x="216" y="0" on="1"/>
        <pt x="216" y="75" on="1"/>
        <pt x="304" y="75" on="1"/>
        <pt x="304" y="623" on="1"/>
        <pt x="181" y="615" on="0"/>
        <pt x="80" y="549" on="0"/>
        <pt x="80" y="486" on="1"/>
        <pt x="80" y="456" on="0"/>
        <pt x="106" y="417" on="0"/>
        <pt x="131" y="417" on="1"/>
        <pt x="178" y="417" on="0"/>
        <pt x="178" y="496" on="1"/>
        <pt x="258" y="496" on="1"/>
        <pt x="258" y="431" on="0"/>
        <pt x="198" y="342" on="0"/>
        <pt x="64" y="342" on="0"/>
        <pt x="0" y="426" on="0"/>
        <pt x="0" y="486" on="1"/>
        <pt x="0" y="584" on="0"/>
        <pt x="186" y="700" on="0"/>
        <pt x="389" y="700" on="1"/>
        <pt x="486" y="700" on="1"/>
        <pt x="486" y="625" on="1"/>
      </contour>
      <contour>
        <pt x="312" y="885" on="1"/>
        <pt x="342" y="885" on="0"/>
        <pt x="423" y="850" on="0"/>
        <pt x="436" y="846" on="1"/>
        <pt x="494" y="885" on="1"/>
        <pt x="526" y="861" on="1"/>
        <pt x="497" y="782" on="0"/>
        <pt x="435" y="782" on="1"/>
        <pt x="405" y="782" on="0"/>
        <pt x="324" y="817" on="0"/>
        <pt x="311" y="821" on="1"/>
        <pt x="253" y="782" on="1"/>
        <pt x="221" y="806" on="1"/>
        <pt x="250" y="885" on="0"/>
      </contour>
    </TTGlyph>
    <TTGlyph name="J" xMin="0" yMin="-160" xMax="496" yMax="700">
      <contour>
        <pt x="389" y="700" on="1"/>
        <pt x="496" y="700" on="1"/>
        <pt x="496" y="625" on="1"/>
        <pt x="389" y="625" on="1"/>
        <pt x="389" y="100" on="1"/>
        <pt x="389" y="-21" on="0"/>
        <pt x="273" y="-160" on="0"/>
        <pt x="160" y="-160" on="1"/>
        <pt x="160" y="-90" on="1"/>
        <pt x="229" y="-90" on="0"/>
        <pt x="304" y="10" on="0"/>
        <pt x="304" y="100" on="1"/>
        <pt x="304" y="623" on="1"/>
        <pt x="181" y="615" on="0"/>
        <pt x="80" y="549" on="0"/>
        <pt x="80" y="486" on="1"/>
        <pt x="80" y="456" on="0"/>
        <pt x="106" y="417" on="0"/>
        <pt x="131" y="417" on="1"/>
        <pt x="178" y="417" on="0"/>
        <pt x="178" y="496" on="1"/>
        <pt x="258" y="496" on="1"/>
        <pt x="258" y="431" on="0"/>
        <pt x="198" y="342" on="0"/>
        <pt x="64" y="342" on="0"/>
        <pt x="0" y="426" on="0"/>
        <pt x="0" y="486" on="1"/>
        <pt x="0" y="584" on="0"/>
        <pt x="186" y="700" on="0"/>
      </contour>
    </TTGlyph>
    <TTGlyph name="Jcircumflex" xMin="0" yMin="-160" xMax="502" yMax="930">
      <contour>
        <pt x="389" y="700" on="1"/>
        <pt x="496" y="700" on="1"/>
        <pt x="496" y="625" on="1"/>
        <pt x="389" y="625" on="1"/>
        <pt x="389" y="100" on="1"/>
        <pt x="389" y="-21" on="0"/>
        <pt x="273" y="-160" on="0"/>
        <pt x="160" y="-160" on="1"/>
        <pt x="160" y="-90" on="1"/>
        <pt x="229" y="-90" on="0"/>
        <pt x="304" y="10" on="0"/>
        <pt x="304" y="100" on="1"/>
        <pt x="304" y="623" on="1"/>
        <pt x="181" y="615" on="0"/>
        <pt x="80" y="549" on="0"/>
        <pt x="80" y="486" on="1"/>
        <pt x="80" y="456" on="0"/>
        <pt x="106" y="417" on="0"/>
        <pt x="131" y="417" on="1"/>
        <pt x="178" y="417" on="0"/>
        <pt x="178" y="496" on="1"/>
        <pt x="258" y="496" on="1"/>
        <pt x="258" y="431" on="0"/>
        <pt x="198" y="342" on="0"/>
        <pt x="64" y="342" on="0"/>
        <pt x="0" y="426" on="0"/>
        <pt x="0" y="486" on="1"/>
        <pt x="0" y="584" on="0"/>
        <pt x="186" y="700" on="0"/>
      </contour>
      <contour>
        <pt x="366" y="930" on="1"/>
        <pt x="502" y="778" on="1"/>
        <pt x="463" y="745" on="1"/>
        <pt x="339" y="859" on="1"/>
        <pt x="215" y="745" on="1"/>
        <pt x="176" y="778" on="1"/>
        <pt x="312" y="930" on="1"/>
      </contour>
    </TTGlyph>
    <TTGlyph name="K" xMin="0" yMin="-11" xMax="894" yMax="700">
      <contour>
        <pt x="819" y="140" on="1"/>
        <pt x="894" y="140" on="1"/>
        <pt x="894" y="63" on="0"/>
        <pt x="816" y="-11" on="0"/>
        <pt x="697" y="-11" on="0"/>
        <pt x="624" y="43" on="0"/>
        <pt x="587" y="111" on="1"/>
        <pt x="477" y="310" on="1"/>
        <pt x="389" y="270" on="1"/>
        <pt x="389" y="75" on="1"/>
        <pt x="486" y="75" on="1"/>
        <pt x="486" y="0" on="1"/>
        <pt x="304" y="0" on="1"/>
        <pt x="304" y="623" on="1"/>
        <pt x="181" y="615" on="0"/>
        <pt x="80" y="549" on="0"/>
        <pt x="80" y="486" on="1"/>
        <pt x="80" y="456" on="0"/>
        <pt x="106" y="417" on="0"/>
        <pt x="131" y="417" on="1"/>
        <pt x="178" y="417" on="0"/>
        <pt x="178" y="496" on="1"/>
        <pt x="258" y="496" on="1"/>
        <pt x="258" y="431" on="0"/>
        <pt x="198" y="342" on="0"/>
        <pt x="64" y="342" on="0"/>
        <pt x="0" y="426" on="0"/>
        <pt x="0" y="486" on="1"/>
        <pt x="0" y="580" on="0"/>
        <pt x="168" y="700" on="0"/>
        <pt x="348" y="700" on="1"/>
        <pt x="476" y="700" on="1"/>
        <pt x="476" y="625" on="1"/>
        <pt x="389" y="625" on="1"/>
        <pt x="389" y="356" on="1"/>
        <pt x="463" y="390" on="1"/>
        <pt x="656" y="625" on="1"/>
        <pt x="608" y="625" on="1"/>
        <pt x="608" y="700" on="1"/>
        <pt x="835" y="700" on="1"/>
        <pt x="835" y="625" on="1"/>
        <pt x="760" y="625" on="1"/>
        <pt x="541" y="367" on="1"/>
        <pt x="666" y="140" on="1"/>
        <pt x="691" y="99" on="0"/>
        <pt x="728" y="64" on="0"/>
        <pt x="780" y="64" on="0"/>
        <pt x="819" y="105" on="0"/>
      </contour>
      <contour>
        <pt x="207" y="0" on="1"/>
        <pt x="207" y="75" on="1"/>
        <pt x="304" y="75" on="1"/>
        <pt x="304" y="0" on="1"/>
      </contour>
    </TTGlyph>
    <TTGlyph name="L" xMin="0" yMin="0" xMax="738" yMax="700">
      <contour>
        <pt x="389" y="625" on="1"/>
        <pt x="389" y="75" on="1"/>
        <pt x="668" y="75" on="1"/>
        <pt x="668" y="190" on="1"/>
        <pt x="738" y="190" on="1"/>
        <pt x="738" y="0" on="1"/>
        <pt x="207" y="0" on="1"/>
        <pt x="207" y="75" on="1"/>
        <pt x="304" y="75" on="1"/>
        <pt x="304" y="623" on="1"/>
        <pt x="181" y="615" on="0"/>
        <pt x="80" y="549" on="0"/>
        <pt x="80" y="486" on="1"/>
        <pt x="80" y="456" on="0"/>
        <pt x="106" y="417" on="0"/>
        <pt x="131" y="417" on="1"/>
        <pt x="178" y="417" on="0"/>
        <pt x="178" y="496" on="1"/>
        <pt x="258" y="496" on="1"/>
        <pt x="258" y="431" on="0"/>
        <pt x="198" y="342" on="0"/>
        <pt x="64" y="342" on="0"/>
        <pt x="0" y="426" on="0"/>
        <pt x="0" y="486" on="1"/>
        <pt x="0" y="580" on="0"/>
        <pt x="168" y="700" on="0"/>
        <pt x="348" y="700" on="1"/>
        <pt x="476" y="700" on="1"/>
        <pt x="476" y="625" on="1"/>
      </contour>
    </TTGlyph>
    <TTGlyph name="Lacute" xMin="0" yMin="0" xMax="738" yMax="968">
      <contour>
        <pt x="389" y="625" on="1"/>
        <pt x="389" y="75" on="1"/>
        <pt x="668" y="75" on="1"/>
        <pt x="668" y="190" on="1"/>
        <pt x="738" y="190" on="1"/>
        <pt x="738" y="0" on="1"/>
        <pt x="207" y="0" on="1"/>
        <pt x="207" y="75" on="1"/>
        <pt x="304" y="75" on="1"/>
        <pt x="304" y="623" on="1"/>
        <pt x="181" y="615" on="0"/>
        <pt x="80" y="549" on="0"/>
        <pt x="80" y="486" on="1"/>
        <pt x="80" y="456" on="0"/>
        <pt x="106" y="417" on="0"/>
        <pt x="131" y="417" on="1"/>
        <pt x="178" y="417" on="0"/>
        <pt x="178" y="496" on="1"/>
        <pt x="258" y="496" on="1"/>
        <pt x="258" y="431" on="0"/>
        <pt x="198" y="342" on="0"/>
        <pt x="64" y="342" on="0"/>
        <pt x="0" y="426" on="0"/>
        <pt x="0" y="486" on="1"/>
        <pt x="0" y="580" on="0"/>
        <pt x="168" y="700" on="0"/>
        <pt x="348" y="700" on="1"/>
        <pt x="476" y="700" on="1"/>
        <pt x="476" y="625" on="1"/>
      </contour>
      <contour>
        <pt x="474" y="921" on="1"/>
        <pt x="350" y="760" on="1"/>
        <pt x="306" y="786" on="1"/>
        <pt x="403" y="968" on="1"/>
      </contour>
    </TTGlyph>
    <TTGlyph name="Ldotaccent" xMin="0" yMin="0" xMax="738" yMax="700">
      <contour>
        <pt x="389" y="625" on="1"/>
        <pt x="389" y="75" on="1"/>
        <pt x="668" y="75" on="1"/>
        <pt x="668" y="190" on="1"/>
        <pt x="738" y="190" on="1"/>
        <pt x="738" y="0" on="1"/>
        <pt x="207" y="0" on="1"/>
        <pt x="207" y="75" on="1"/>
        <pt x="304" y="75" on="1"/>
        <pt x="304" y="623" on="1"/>
        <pt x="181" y="615" on="0"/>
        <pt x="80" y="549" on="0"/>
        <pt x="80" y="486" on="1"/>
        <pt x="80" y="456" on="0"/>
        <pt x="106" y="417" on="0"/>
        <pt x="131" y="417" on="1"/>
        <pt x="178" y="417" on="0"/>
        <pt x="178" y="496" on="1"/>
        <pt x="258" y="496" on="1"/>
        <pt x="258" y="431" on="0"/>
        <pt x="198" y="342" on="0"/>
        <pt x="64" y="342" on="0"/>
        <pt x="0" y="426" on="0"/>
        <pt x="0" y="486" on="1"/>
        <pt x="0" y="582" on="0"/>
        <pt x="182" y="700" on="0"/>
        <pt x="389" y="700" on="1"/>
        <pt x="476" y="700" on="1"/>
        <pt x="476" y="625" on="1"/>
      </contour>
      <contour>
        <pt x="523" y="313" on="0"/>
        <pt x="489" y="347" on="0"/>
        <pt x="489" y="396" on="0"/>
        <pt x="523" y="430" on="0"/>
        <pt x="572" y="430" on="0"/>
        <pt x="606" y="396" on="0"/>
        <pt x="606" y="347" on="0"/>
        <pt x="572" y="313" on="0"/>
      </contour>
    </TTGlyph>
    <TTGlyph name="Lslash" xMin="0" yMin="0" xMax="738" yMax="700">
      <contour>
        <pt x="389" y="625" on="1"/>
        <pt x="389" y="378" on="1"/>
        <pt x="518" y="417" on="1"/>
        <pt x="539" y="357" on="1"/>
        <pt x="389" y="312" on="1"/>
        <pt x="389" y="75" on="1"/>
        <pt x="668" y="75" on="1"/>
        <pt x="668" y="190" on="1"/>
        <pt x="738" y="190" on="1"/>
        <pt x="738" y="0" on="1"/>
        <pt x="207" y="0" on="1"/>
        <pt x="207" y="75" on="1"/>
        <pt x="304" y="75" on="1"/>
        <pt x="304" y="287" on="1"/>
        <pt x="201" y="257" on="1"/>
        <pt x="180" y="317" on="1"/>
        <pt x="304" y="353" on="1"/>
        <pt x="304" y="623" on="1"/>
        <pt x="181" y="615" on="0"/>
        <pt x="80" y="549" on="0"/>
        <pt x="80" y="486" on="1"/>
        <pt x="80" y="456" on="0"/>
        <pt x="106" y="417" on="0"/>
        <pt x="131" y="417" on="1"/>
        <pt x="178" y="417" on="0"/>
        <pt x="178" y="496" on="1"/>
        <pt x="258" y="496" on="1"/>
        <pt x="258" y="431" on="0"/>
        <pt x="198" y="342" on="0"/>
        <pt x="64" y="342" on="0"/>
        <pt x="0" y="426" on="0"/>
        <pt x="0" y="486" on="1"/>
        <pt x="0" y="580" on="0"/>
        <pt x="168" y="700" on="0"/>
        <pt x="348" y="700" on="1"/>
        <pt x="476" y="700" on="1"/>
        <pt x="476" y="625" on="1"/>
      </contour>
    </TTGlyph>
    <TTGlyph name="M" xMin="0" yMin="0" xMax="1032" yMax="700">
      <contour>
        <pt x="1032" y="700" on="1"/>
        <pt x="1032" y="625" on="1"/>
        <pt x="935" y="625" on="1"/>
        <pt x="935" y="75" on="1"/>
        <pt x="1032" y="75" on="1"/>
        <pt x="1032" y="0" on="1"/>
        <pt x="763" y="0" on="1"/>
        <pt x="763" y="75" on="1"/>
        <pt x="850" y="75" on="1"/>
        <pt x="850" y="497" on="1"/>
        <pt x="663" y="60" on="1"/>
        <pt x="593" y="60" on="1"/>
        <pt x="406" y="497" on="1"/>
        <pt x="406" y="75" on="1"/>
        <pt x="493" y="75" on="1"/>
        <pt x="493" y="0" on="1"/>
        <pt x="224" y="0" on="1"/>
        <pt x="224" y="75" on="1"/>
        <pt x="321" y="75" on="1"/>
        <pt x="321" y="623" on="1"/>
        <pt x="189" y="617" on="0"/>
        <pt x="80" y="550" on="0"/>
        <pt x="80" y="486" on="1"/>
        <pt x="80" y="456" on="0"/>
        <pt x="106" y="417" on="0"/>
        <pt x="131" y="417" on="1"/>
        <pt x="178" y="417" on="0"/>
        <pt x="178" y="496" on="1"/>
        <pt x="258" y="496" on="1"/>
        <pt x="258" y="431" on="0"/>
        <pt x="198" y="342" on="0"/>
        <pt x="64" y="342" on="0"/>
        <pt x="0" y="426" on="0"/>
        <pt x="0" y="486" on="1"/>
        <pt x="0" y="584" on="0"/>
        <pt x="186" y="700" on="0"/>
        <pt x="389" y="700" on="1"/>
        <pt x="406" y="700" on="1"/>
        <pt x="628" y="175" on="1"/>
        <pt x="850" y="700" on="1"/>
      </contour>
    </TTGlyph>
    <TTGlyph name="N" xMin="0" yMin="0" xMax="923" yMax="710">
      <contour>
        <pt x="257" y="710" on="1"/>
        <pt x="336" y="710" on="0"/>
        <pt x="428" y="654" on="0"/>
        <pt x="472" y="583" on="1"/>
        <pt x="741" y="150" on="1"/>
        <pt x="741" y="625" on="1"/>
        <pt x="654" y="625" on="1"/>
        <pt x="654" y="700" on="1"/>
        <pt x="923" y="700" on="1"/>
        <pt x="923" y="625" on="1"/>
        <pt x="826" y="625" on="1"/>
        <pt x="826" y="0" on="1"/>
        <pt x="741" y="0" on="1"/>
        <pt x="388" y="564" on="1"/>
        <pt x="388" y="75" on="1"/>
        <pt x="475" y="75" on="1"/>
        <pt x="475" y="0" on="1"/>
        <pt x="206" y="0" on="1"/>
        <pt x="206" y="75" on="1"/>
        <pt x="303" y="75" on="1"/>
        <pt x="303" y="629" on="1"/>
        <pt x="276" y="635" on="0"/>
        <pt x="249" y="635" on="1"/>
        <pt x="177" y="635" on="0"/>
        <pt x="80" y="559" on="0"/>
        <pt x="80" y="496" on="1"/>
        <pt x="80" y="466" on="0"/>
        <pt x="106" y="427" on="0"/>
        <pt x="131" y="427" on="1"/>
        <pt x="178" y="427" on="0"/>
        <pt x="178" y="506" on="1"/>
        <pt x="258" y="506" on="1"/>
        <pt x="258" y="441" on="0"/>
        <pt x="198" y="352" on="0"/>
        <pt x="64" y="352" on="0"/>
        <pt x="0" y="436" on="0"/>
        <pt x="0" y="496" on="1"/>
        <pt x="0" y="591" on="0"/>
        <pt x="135" y="710" on="0"/>
      </contour>
    </TTGlyph>
    <TTGlyph name="Nacute" xMin="0" yMin="0" xMax="923" yMax="968">
      <contour>
        <pt x="664" y="921" on="1"/>
        <pt x="540" y="760" on="1"/>
        <pt x="496" y="786" on="1"/>
        <pt x="593" y="968" on="1"/>
      </contour>
      <contour>
        <pt x="257" y="710" on="1"/>
        <pt x="336" y="710" on="0"/>
        <pt x="428" y="654" on="0"/>
        <pt x="472" y="583" on="1"/>
        <pt x="741" y="150" on="1"/>
        <pt x="741" y="625" on="1"/>
        <pt x="654" y="625" on="1"/>
        <pt x="654" y="700" on="1"/>
        <pt x="923" y="700" on="1"/>
        <pt x="923" y="625" on="1"/>
        <pt x="826" y="625" on="1"/>
        <pt x="826" y="0" on="1"/>
        <pt x="741" y="0" on="1"/>
        <pt x="388" y="564" on="1"/>
        <pt x="388" y="75" on="1"/>
        <pt x="475" y="75" on="1"/>
        <pt x="475" y="0" on="1"/>
        <pt x="206" y="0" on="1"/>
        <pt x="206" y="75" on="1"/>
        <pt x="303" y="75" on="1"/>
        <pt x="303" y="629" on="1"/>
        <pt x="276" y="635" on="0"/>
        <pt x="249" y="635" on="1"/>
        <pt x="177" y="635" on="0"/>
        <pt x="80" y="559" on="0"/>
        <pt x="80" y="496" on="1"/>
        <pt x="80" y="466" on="0"/>
        <pt x="106" y="427" on="0"/>
        <pt x="131" y="427" on="1"/>
        <pt x="178" y="427" on="0"/>
        <pt x="178" y="506" on="1"/>
        <pt x="258" y="506" on="1"/>
        <pt x="258" y="441" on="0"/>
        <pt x="198" y="352" on="0"/>
        <pt x="64" y="352" on="0"/>
        <pt x="0" y="436" on="0"/>
        <pt x="0" y="496" on="1"/>
        <pt x="0" y="591" on="0"/>
        <pt x="135" y="710" on="0"/>
      </contour>
    </TTGlyph>
    <TTGlyph name="Ncaron" xMin="0" yMin="0" xMax="923" yMax="935">
      <contour>
        <pt x="703" y="902" on="1"/>
        <pt x="567" y="750" on="1"/>
        <pt x="513" y="750" on="1"/>
        <pt x="377" y="902" on="1"/>
        <pt x="416" y="935" on="1"/>
        <pt x="540" y="821" on="1"/>
        <pt x="664" y="935" on="1"/>
      </contour>
      <contour>
        <pt x="257" y="710" on="1"/>
        <pt x="336" y="710" on="0"/>
        <pt x="428" y="654" on="0"/>
        <pt x="472" y="583" on="1"/>
        <pt x="741" y="150" on="1"/>
        <pt x="741" y="625" on="1"/>
        <pt x="654" y="625" on="1"/>
        <pt x="654" y="700" on="1"/>
        <pt x="923" y="700" on="1"/>
        <pt x="923" y="625" on="1"/>
        <pt x="826" y="625" on="1"/>
        <pt x="826" y="0" on="1"/>
        <pt x="741" y="0" on="1"/>
        <pt x="388" y="564" on="1"/>
        <pt x="388" y="75" on="1"/>
        <pt x="475" y="75" on="1"/>
        <pt x="475" y="0" on="1"/>
        <pt x="206" y="0" on="1"/>
        <pt x="206" y="75" on="1"/>
        <pt x="303" y="75" on="1"/>
        <pt x="303" y="629" on="1"/>
        <pt x="276" y="635" on="0"/>
        <pt x="249" y="635" on="1"/>
        <pt x="177" y="635" on="0"/>
        <pt x="80" y="559" on="0"/>
        <pt x="80" y="496" on="1"/>
        <pt x="80" y="466" on="0"/>
        <pt x="106" y="427" on="0"/>
        <pt x="131" y="427" on="1"/>
        <pt x="178" y="427" on="0"/>
        <pt x="178" y="506" on="1"/>
        <pt x="258" y="506" on="1"/>
        <pt x="258" y="441" on="0"/>
        <pt x="198" y="352" on="0"/>
        <pt x="64" y="352" on="0"/>
        <pt x="0" y="436" on="0"/>
        <pt x="0" y="496" on="1"/>
        <pt x="0" y="591" on="0"/>
        <pt x="135" y="710" on="0"/>
      </contour>
    </TTGlyph>
    <TTGlyph name="Ntilde" xMin="0" yMin="0" xMax="923" yMax="885">
      <contour>
        <pt x="480" y="885" on="1"/>
        <pt x="510" y="885" on="0"/>
        <pt x="591" y="850" on="0"/>
        <pt x="604" y="846" on="1"/>
        <pt x="662" y="885" on="1"/>
        <pt x="694" y="861" on="1"/>
        <pt x="665" y="782" on="0"/>
        <pt x="603" y="782" on="1"/>
        <pt x="573" y="782" on="0"/>
        <pt x="492" y="817" on="0"/>
        <pt x="479" y="821" on="1"/>
        <pt x="421" y="782" on="1"/>
        <pt x="389" y="806" on="1"/>
        <pt x="418" y="885" on="0"/>
      </contour>
      <contour>
        <pt x="257" y="710" on="1"/>
        <pt x="336" y="710" on="0"/>
        <pt x="428" y="654" on="0"/>
        <pt x="472" y="583" on="1"/>
        <pt x="741" y="150" on="1"/>
        <pt x="741" y="625" on="1"/>
        <pt x="654" y="625" on="1"/>
        <pt x="654" y="700" on="1"/>
        <pt x="923" y="700" on="1"/>
        <pt x="923" y="625" on="1"/>
        <pt x="826" y="625" on="1"/>
        <pt x="826" y="0" on="1"/>
        <pt x="741" y="0" on="1"/>
        <pt x="388" y="564" on="1"/>
        <pt x="388" y="75" on="1"/>
        <pt x="475" y="75" on="1"/>
        <pt x="475" y="0" on="1"/>
        <pt x="206" y="0" on="1"/>
        <pt x="206" y="75" on="1"/>
        <pt x="303" y="75" on="1"/>
        <pt x="303" y="629" on="1"/>
        <pt x="276" y="635" on="0"/>
        <pt x="249" y="635" on="1"/>
        <pt x="177" y="635" on="0"/>
        <pt x="80" y="559" on="0"/>
        <pt x="80" y="496" on="1"/>
        <pt x="80" y="466" on="0"/>
        <pt x="106" y="427" on="0"/>
        <pt x="131" y="427" on="1"/>
        <pt x="178" y="427" on="0"/>
        <pt x="178" y="506" on="1"/>
        <pt x="258" y="506" on="1"/>
        <pt x="258" y="441" on="0"/>
        <pt x="198" y="352" on="0"/>
        <pt x="64" y="352" on="0"/>
        <pt x="0" y="436" on="0"/>
        <pt x="0" y="496" on="1"/>
        <pt x="0" y="591" on="0"/>
        <pt x="135" y="710" on="0"/>
      </contour>
    </TTGlyph>
    <TTGlyph name="O" xMin="35" yMin="-10" xMax="675" yMax="710">
      <contour>
        <pt x="545" y="375" on="0"/>
        <pt x="485" y="286" on="0"/>
        <pt x="351" y="286" on="0"/>
        <pt x="287" y="370" on="0"/>
        <pt x="287" y="430" on="1"/>
        <pt x="287" y="512" on="0"/>
        <pt x="399" y="615" on="0"/>
        <pt x="474" y="615" on="1"/>
        <pt x="546" y="615" on="0"/>
        <pt x="606" y="561" on="1"/>
        <pt x="637" y="533" on="0"/>
        <pt x="675" y="425" on="0"/>
        <pt x="675" y="352" on="1"/>
        <pt x="675" y="193" on="0"/>
        <pt x="503" y="-10" on="0"/>
        <pt x="207" y="-10" on="0"/>
        <pt x="35" y="193" on="0"/>
        <pt x="35" y="507" on="0"/>
        <pt x="207" y="710" on="0"/>
        <pt x="355" y="710" on="1"/>
        <pt x="355" y="635" on="1"/>
        <pt x="251" y="635" on="0"/>
        <pt x="125" y="474" on="0"/>
        <pt x="125" y="226" on="0"/>
        <pt x="251" y="65" on="0"/>
        <pt x="459" y="65" on="0"/>
        <pt x="585" y="226" on="0"/>
        <pt x="585" y="455" on="0"/>
        <pt x="519" y="540" on="0"/>
        <pt x="431" y="540" on="0"/>
        <pt x="367" y="478" on="0"/>
        <pt x="367" y="430" on="1"/>
        <pt x="367" y="400" on="0"/>
        <pt x="393" y="361" on="0"/>
        <pt x="418" y="361" on="1"/>
        <pt x="465" y="361" on="0"/>
        <pt x="465" y="440" on="1"/>
        <pt x="545" y="440" on="1"/>
      </contour>
    </TTGlyph>
    <TTGlyph name="OE" xMin="35" yMin="-10" xMax="1034" yMax="710">
      <contour>
        <pt x="675" y="311" on="1"/>
        <pt x="675" y="75" on="1"/>
        <pt x="964" y="75" on="1"/>
        <pt x="964" y="190" on="1"/>
        <pt x="1034" y="190" on="1"/>
        <pt x="1034" y="0" on="1"/>
        <pt x="590" y="0" on="1"/>
        <pt x="590" y="92" on="1"/>
        <pt x="502" y="-10" on="0"/>
        <pt x="207" y="-10" on="0"/>
        <pt x="35" y="193" on="0"/>
        <pt x="35" y="352" on="1"/>
        <pt x="35" y="425" on="0"/>
        <pt x="73" y="533" on="0"/>
        <pt x="104" y="561" on="1"/>
        <pt x="164" y="615" on="0"/>
        <pt x="311" y="615" on="0"/>
        <pt x="423" y="512" on="0"/>
        <pt x="423" y="430" on="1"/>
        <pt x="423" y="370" on="0"/>
        <pt x="359" y="286" on="0"/>
        <pt x="225" y="286" on="0"/>
        <pt x="165" y="375" on="0"/>
        <pt x="165" y="440" on="1"/>
        <pt x="245" y="440" on="1"/>
        <pt x="245" y="361" on="0"/>
        <pt x="292" y="361" on="1"/>
        <pt x="317" y="361" on="0"/>
        <pt x="343" y="400" on="0"/>
        <pt x="343" y="430" on="1"/>
        <pt x="343" y="478" on="0"/>
        <pt x="279" y="540" on="0"/>
        <pt x="191" y="540" on="0"/>
        <pt x="125" y="455" on="0"/>
        <pt x="125" y="226" on="0"/>
        <pt x="251" y="65" on="0"/>
        <pt x="459" y="65" on="0"/>
        <pt x="586" y="226" on="0"/>
        <pt x="586" y="474" on="0"/>
        <pt x="459" y="635" on="0"/>
        <pt x="355" y="635" on="1"/>
        <pt x="355" y="710" on="1"/>
        <pt x="501" y="710" on="0"/>
        <pt x="590" y="607" on="1"/>
        <pt x="590" y="700" on="1"/>
        <pt x="1025" y="700" on="1"/>
        <pt x="1025" y="510" on="1"/>
        <pt x="955" y="510" on="1"/>
        <pt x="955" y="625" on="1"/>
        <pt x="675" y="625" on="1"/>
        <pt x="675" y="386" on="1"/>
        <pt x="813" y="386" on="1"/>
        <pt x="813" y="446" on="1"/>
        <pt x="883" y="446" on="1"/>
        <pt x="883" y="251" on="1"/>
        <pt x="813" y="251" on="1"/>
        <pt x="813" y="311" on="1"/>
      </contour>
    </TTGlyph>
    <TTGlyph name="Oacute" xMin="35" yMin="-10" xMax="675" yMax="968">
      <contour>
        <pt x="545" y="375" on="0"/>
        <pt x="485" y="286" on="0"/>
        <pt x="351" y="286" on="0"/>
        <pt x="287" y="370" on="0"/>
        <pt x="287" y="430" on="1"/>
        <pt x="287" y="512" on="0"/>
        <pt x="399" y="615" on="0"/>
        <pt x="474" y="615" on="1"/>
        <pt x="546" y="615" on="0"/>
        <pt x="606" y="561" on="1"/>
        <pt x="637" y="533" on="0"/>
        <pt x="675" y="425" on="0"/>
        <pt x="675" y="352" on="1"/>
        <pt x="675" y="193" on="0"/>
        <pt x="503" y="-10" on="0"/>
        <pt x="207" y="-10" on="0"/>
        <pt x="35" y="193" on="0"/>
        <pt x="35" y="507" on="0"/>
        <pt x="207" y="710" on="0"/>
        <pt x="355" y="710" on="1"/>
        <pt x="355" y="635" on="1"/>
        <pt x="251" y="635" on="0"/>
        <pt x="125" y="474" on="0"/>
        <pt x="125" y="226" on="0"/>
        <pt x="251" y="65" on="0"/>
        <pt x="459" y="65" on="0"/>
        <pt x="585" y="226" on="0"/>
        <pt x="585" y="455" on="0"/>
        <pt x="519" y="540" on="0"/>
        <pt x="431" y="540" on="0"/>
        <pt x="367" y="478" on="0"/>
        <pt x="367" y="430" on="1"/>
        <pt x="367" y="400" on="0"/>
        <pt x="393" y="361" on="0"/>
        <pt x="418" y="361" on="1"/>
        <pt x="465" y="361" on="0"/>
        <pt x="465" y="440" on="1"/>
        <pt x="545" y="440" on="1"/>
      </contour>
      <contour>
        <pt x="479" y="921" on="1"/>
        <pt x="355" y="760" on="1"/>
        <pt x="311" y="786" on="1"/>
        <pt x="408" y="968" on="1"/>
      </contour>
    </TTGlyph>
    <TTGlyph name="Ocircumflex" xMin="35" yMin="-10" xMax="675" yMax="935">
      <contour>
        <pt x="545" y="375" on="0"/>
        <pt x="485" y="286" on="0"/>
        <pt x="351" y="286" on="0"/>
        <pt x="287" y="370" on="0"/>
        <pt x="287" y="430" on="1"/>
        <pt x="287" y="512" on="0"/>
        <pt x="399" y="615" on="0"/>
        <pt x="474" y="615" on="1"/>
        <pt x="546" y="615" on="0"/>
        <pt x="606" y="561" on="1"/>
        <pt x="637" y="533" on="0"/>
        <pt x="675" y="425" on="0"/>
        <pt x="675" y="352" on="1"/>
        <pt x="675" y="193" on="0"/>
        <pt x="503" y="-10" on="0"/>
        <pt x="207" y="-10" on="0"/>
        <pt x="35" y="193" on="0"/>
        <pt x="35" y="507" on="0"/>
        <pt x="207" y="710" on="0"/>
        <pt x="355" y="710" on="1"/>
        <pt x="355" y="635" on="1"/>
        <pt x="251" y="635" on="0"/>
        <pt x="125" y="474" on="0"/>
        <pt x="125" y="226" on="0"/>
        <pt x="251" y="65" on="0"/>
        <pt x="459" y="65" on="0"/>
        <pt x="585" y="226" on="0"/>
        <pt x="585" y="455" on="0"/>
        <pt x="519" y="540" on="0"/>
        <pt x="431" y="540" on="0"/>
        <pt x="367" y="478" on="0"/>
        <pt x="367" y="430" on="1"/>
        <pt x="367" y="400" on="0"/>
        <pt x="393" y="361" on="0"/>
        <pt x="418" y="361" on="1"/>
        <pt x="465" y="361" on="0"/>
        <pt x="465" y="440" on="1"/>
        <pt x="545" y="440" on="1"/>
      </contour>
      <contour>
        <pt x="382" y="935" on="1"/>
        <pt x="518" y="783" on="1"/>
        <pt x="479" y="750" on="1"/>
        <pt x="355" y="864" on="1"/>
        <pt x="231" y="750" on="1"/>
        <pt x="192" y="783" on="1"/>
        <pt x="328" y="935" on="1"/>
      </contour>
    </TTGlyph>
    <TTGlyph name="Odieresis" xMin="35" yMin="-10" xMax="675" yMax="895">
      <contour>
        <pt x="545" y="375" on="0"/>
        <pt x="485" y="286" on="0"/>
        <pt x="351" y="286" on="0"/>
        <pt x="287" y="370" on="0"/>
        <pt x="287" y="430" on="1"/>
        <pt x="287" y="512" on="0"/>
        <pt x="399" y="615" on="0"/>
        <pt x="474" y="615" on="1"/>
        <pt x="546" y="615" on="0"/>
        <pt x="606" y="561" on="1"/>
        <pt x="637" y="533" on="0"/>
        <pt x="675" y="425" on="0"/>
        <pt x="675" y="352" on="1"/>
        <pt x="675" y="193" on="0"/>
        <pt x="503" y="-10" on="0"/>
        <pt x="207" y="-10" on="0"/>
        <pt x="35" y="193" on="0"/>
        <pt x="35" y="507" on="0"/>
        <pt x="207" y="710" on="0"/>
        <pt x="355" y="710" on="1"/>
        <pt x="355" y="635" on="1"/>
        <pt x="251" y="635" on="0"/>
        <pt x="125" y="474" on="0"/>
        <pt x="125" y="226" on="0"/>
        <pt x="251" y="65" on="0"/>
        <pt x="459" y="65" on="0"/>
        <pt x="585" y="226" on="0"/>
        <pt x="585" y="455" on="0"/>
        <pt x="519" y="540" on="0"/>
        <pt x="431" y="540" on="0"/>
        <pt x="367" y="478" on="0"/>
        <pt x="367" y="430" on="1"/>
        <pt x="367" y="400" on="0"/>
        <pt x="393" y="361" on="0"/>
        <pt x="418" y="361" on="1"/>
        <pt x="465" y="361" on="0"/>
        <pt x="465" y="440" on="1"/>
        <pt x="545" y="440" on="1"/>
      </contour>
      <contour>
        <pt x="211" y="826" on="0"/>
        <pt x="211" y="866" on="0"/>
        <pt x="239" y="895" on="0"/>
        <pt x="279" y="895" on="0"/>
        <pt x="308" y="866" on="0"/>
        <pt x="308" y="826" on="0"/>
        <pt x="279" y="798" on="0"/>
        <pt x="240" y="798" on="0"/>
      </contour>
      <contour>
        <pt x="402" y="826" on="0"/>
        <pt x="402" y="866" on="0"/>
        <pt x="430" y="895" on="0"/>
        <pt x="470" y="895" on="0"/>
        <pt x="499" y="866" on="0"/>
        <pt x="499" y="826" on="0"/>
        <pt x="470" y="798" on="0"/>
        <pt x="430" y="798" on="0"/>
      </contour>
    </TTGlyph>
    <TTGlyph name="Ograve" xMin="35" yMin="-10" xMax="675" yMax="968">
      <contour>
        <pt x="545" y="375" on="0"/>
        <pt x="485" y="286" on="0"/>
        <pt x="351" y="286" on="0"/>
        <pt x="287" y="370" on="0"/>
        <pt x="287" y="430" on="1"/>
        <pt x="287" y="512" on="0"/>
        <pt x="399" y="615" on="0"/>
        <pt x="474" y="615" on="1"/>
        <pt x="546" y="615" on="0"/>
        <pt x="606" y="561" on="1"/>
        <pt x="637" y="533" on="0"/>
        <pt x="675" y="425" on="0"/>
        <pt x="675" y="352" on="1"/>
        <pt x="675" y="193" on="0"/>
        <pt x="503" y="-10" on="0"/>
        <pt x="207" y="-10" on="0"/>
        <pt x="35" y="193" on="0"/>
        <pt x="35" y="507" on="0"/>
        <pt x="207" y="710" on="0"/>
        <pt x="355" y="710" on="1"/>
        <pt x="355" y="635" on="1"/>
        <pt x="251" y="635" on="0"/>
        <pt x="125" y="474" on="0"/>
        <pt x="125" y="226" on="0"/>
        <pt x="251" y="65" on="0"/>
        <pt x="459" y="65" on="0"/>
        <pt x="585" y="226" on="0"/>
        <pt x="585" y="455" on="0"/>
        <pt x="519" y="540" on="0"/>
        <pt x="431" y="540" on="0"/>
        <pt x="367" y="478" on="0"/>
        <pt x="367" y="430" on="1"/>
        <pt x="367" y="400" on="0"/>
        <pt x="393" y="361" on="0"/>
        <pt x="418" y="361" on="1"/>
        <pt x="465" y="361" on="0"/>
        <pt x="465" y="440" on="1"/>
        <pt x="545" y="440" on="1"/>
      </contour>
      <contour>
        <pt x="377" y="760" on="1"/>
        <pt x="253" y="921" on="1"/>
        <pt x="324" y="968" on="1"/>
        <pt x="421" y="786" on="1"/>
      </contour>
    </TTGlyph>
    <TTGlyph name="Oslash" xMin="35" yMin="-30" xMax="675" yMax="710">
      <contour>
        <pt x="35" y="350" on="1"/>
        <pt x="35" y="507" on="0"/>
        <pt x="207" y="710" on="0"/>
        <pt x="355" y="710" on="1"/>
        <pt x="355" y="635" on="1"/>
        <pt x="251" y="635" on="0"/>
        <pt x="125" y="474" on="0"/>
        <pt x="125" y="350" on="1"/>
        <pt x="125" y="269" on="0"/>
        <pt x="181" y="140" on="0"/>
        <pt x="232" y="103" on="1"/>
        <pt x="323" y="323" on="1"/>
        <pt x="287" y="362" on="0"/>
        <pt x="287" y="512" on="0"/>
        <pt x="399" y="615" on="0"/>
        <pt x="474" y="615" on="1"/>
        <pt x="546" y="615" on="0"/>
        <pt x="606" y="561" on="1"/>
        <pt x="637" y="533" on="0"/>
        <pt x="675" y="425" on="0"/>
        <pt x="675" y="352" on="1"/>
        <pt x="675" y="193" on="0"/>
        <pt x="503" y="-10" on="0"/>
        <pt x="355" y="-10" on="1"/>
        <pt x="309" y="-10" on="0"/>
        <pt x="265" y="1" on="1"/>
        <pt x="252" y="-30" on="1"/>
        <pt x="177" y="-30" on="1"/>
        <pt x="200" y="27" on="1"/>
        <pt x="121" y="70" on="0"/>
        <pt x="35" y="240" on="0"/>
      </contour>
      <contour>
        <pt x="417" y="286" on="1"/>
        <pt x="399" y="286" on="0"/>
        <pt x="384" y="289" on="1"/>
        <pt x="294" y="73" on="1"/>
        <pt x="319" y="65" on="0"/>
        <pt x="355" y="65" on="1"/>
        <pt x="459" y="65" on="0"/>
        <pt x="585" y="226" on="0"/>
        <pt x="585" y="455" on="0"/>
        <pt x="519" y="540" on="0"/>
        <pt x="431" y="540" on="0"/>
        <pt x="367" y="478" on="0"/>
        <pt x="367" y="430" on="1"/>
        <pt x="367" y="400" on="0"/>
        <pt x="393" y="361" on="0"/>
        <pt x="418" y="361" on="1"/>
        <pt x="465" y="361" on="0"/>
        <pt x="465" y="440" on="1"/>
        <pt x="545" y="440" on="1"/>
        <pt x="545" y="375" on="0"/>
        <pt x="485" y="286" on="0"/>
      </contour>
    </TTGlyph>
    <TTGlyph name="Otilde" xMin="35" yMin="-10" xMax="675" yMax="885">
      <contour>
        <pt x="545" y="375" on="0"/>
        <pt x="485" y="286" on="0"/>
        <pt x="351" y="286" on="0"/>
        <pt x="287" y="370" on="0"/>
        <pt x="287" y="430" on="1"/>
        <pt x="287" y="512" on="0"/>
        <pt x="399" y="615" on="0"/>
        <pt x="474" y="615" on="1"/>
        <pt x="546" y="615" on="0"/>
        <pt x="606" y="561" on="1"/>
        <pt x="637" y="533" on="0"/>
        <pt x="675" y="425" on="0"/>
        <pt x="675" y="352" on="1"/>
        <pt x="675" y="193" on="0"/>
        <pt x="503" y="-10" on="0"/>
        <pt x="207" y="-10" on="0"/>
        <pt x="35" y="193" on="0"/>
        <pt x="35" y="507" on="0"/>
        <pt x="207" y="710" on="0"/>
        <pt x="355" y="710" on="1"/>
        <pt x="355" y="635" on="1"/>
        <pt x="251" y="635" on="0"/>
        <pt x="125" y="474" on="0"/>
        <pt x="125" y="226" on="0"/>
        <pt x="251" y="65" on="0"/>
        <pt x="459" y="65" on="0"/>
        <pt x="585" y="226" on="0"/>
        <pt x="585" y="455" on="0"/>
        <pt x="519" y="540" on="0"/>
        <pt x="431" y="540" on="0"/>
        <pt x="367" y="478" on="0"/>
        <pt x="367" y="430" on="1"/>
        <pt x="367" y="400" on="0"/>
        <pt x="393" y="361" on="0"/>
        <pt x="418" y="361" on="1"/>
        <pt x="465" y="361" on="0"/>
        <pt x="465" y="440" on="1"/>
        <pt x="545" y="440" on="1"/>
      </contour>
      <contour>
        <pt x="295" y="885" on="1"/>
        <pt x="325" y="885" on="0"/>
        <pt x="406" y="850" on="0"/>
        <pt x="419" y="846" on="1"/>
        <pt x="477" y="885" on="1"/>
        <pt x="509" y="861" on="1"/>
        <pt x="480" y="782" on="0"/>
        <pt x="418" y="782" on="1"/>
        <pt x="388" y="782" on="0"/>
        <pt x="307" y="817" on="0"/>
        <pt x="294" y="821" on="1"/>
        <pt x="236" y="782" on="1"/>
        <pt x="204" y="806" on="1"/>
        <pt x="233" y="885" on="0"/>
      </contour>
    </TTGlyph>
    <TTGlyph name="P" xMin="0" yMin="0" xMax="742" yMax="710">
      <contour>
        <pt x="389" y="75" on="1"/>
        <pt x="506" y="75" on="1"/>
        <pt x="506" y="0" on="1"/>
        <pt x="207" y="0" on="1"/>
        <pt x="207" y="75" on="1"/>
        <pt x="304" y="75" on="1"/>
        <pt x="304" y="632" on="1"/>
        <pt x="182" y="623" on="0"/>
        <pt x="80" y="555" on="0"/>
        <pt x="80" y="496" on="1"/>
        <pt x="80" y="466" on="0"/>
        <pt x="106" y="427" on="0"/>
        <pt x="131" y="427" on="1"/>
        <pt x="178" y="427" on="0"/>
        <pt x="178" y="506" on="1"/>
        <pt x="258" y="506" on="1"/>
        <pt x="258" y="441" on="0"/>
        <pt x="198" y="352" on="0"/>
        <pt x="64" y="352" on="0"/>
        <pt x="0" y="436" on="0"/>
        <pt x="0" y="496" on="1"/>
        <pt x="0" y="594" on="0"/>
        <pt x="186" y="710" on="0"/>
        <pt x="568" y="710" on="0"/>
        <pt x="742" y="583" on="0"/>
        <pt x="742" y="374" on="0"/>
        <pt x="615" y="257" on="0"/>
        <pt x="518" y="257" on="1"/>
        <pt x="443" y="257" on="0"/>
        <pt x="389" y="280" on="1"/>
      </contour>
      <contour>
        <pt x="389" y="635" on="1"/>
        <pt x="389" y="354" on="1"/>
        <pt x="436" y="332" on="0"/>
        <pt x="518" y="332" on="1"/>
        <pt x="575" y="332" on="0"/>
        <pt x="657" y="413" on="0"/>
        <pt x="657" y="476" on="1"/>
        <pt x="657" y="553" on="0"/>
        <pt x="533" y="635" on="0"/>
      </contour>
    </TTGlyph>
    <TTGlyph name="Q" xMin="35" yMin="-240" xMax="675" yMax="710">
      <contour>
        <pt x="545" y="375" on="0"/>
        <pt x="485" y="286" on="0"/>
        <pt x="351" y="286" on="0"/>
        <pt x="287" y="370" on="0"/>
        <pt x="287" y="430" on="1"/>
        <pt x="287" y="512" on="0"/>
        <pt x="399" y="615" on="0"/>
        <pt x="474" y="615" on="1"/>
        <pt x="546" y="615" on="0"/>
        <pt x="606" y="561" on="1"/>
        <pt x="637" y="533" on="0"/>
        <pt x="675" y="425" on="0"/>
        <pt x="675" y="352" on="1"/>
        <pt x="675" y="217" on="0"/>
        <pt x="550" y="27" on="0"/>
        <pt x="438" y="0" on="1"/>
        <pt x="659" y="-173" on="1"/>
        <pt x="607" y="-240" on="1"/>
        <pt x="334" y="-9" on="1"/>
        <pt x="195" y="-2" on="0"/>
        <pt x="35" y="199" on="0"/>
        <pt x="35" y="507" on="0"/>
        <pt x="207" y="710" on="0"/>
        <pt x="355" y="710" on="1"/>
        <pt x="355" y="635" on="1"/>
        <pt x="251" y="635" on="0"/>
        <pt x="120" y="471" on="0"/>
        <pt x="120" y="229" on="0"/>
        <pt x="251" y="65" on="0"/>
        <pt x="459" y="65" on="0"/>
        <pt x="590" y="229" on="0"/>
        <pt x="590" y="454" on="0"/>
        <pt x="520" y="540" on="0"/>
        <pt x="431" y="540" on="0"/>
        <pt x="367" y="478" on="0"/>
        <pt x="367" y="430" on="1"/>
        <pt x="367" y="400" on="0"/>
        <pt x="393" y="361" on="0"/>
        <pt x="418" y="361" on="1"/>
        <pt x="465" y="361" on="0"/>
        <pt x="465" y="440" on="1"/>
        <pt x="545" y="440" on="1"/>
      </contour>
    </TTGlyph>
    <TTGlyph name="R" xMin="0" yMin="-11" xMax="836" yMax="710">
      <contour>
        <pt x="761" y="140" on="1"/>
        <pt x="836" y="140" on="1"/>
        <pt x="836" y="63" on="0"/>
        <pt x="758" y="-11" on="0"/>
        <pt x="702" y="-11" on="1"/>
        <pt x="609" y="-11" on="0"/>
        <pt x="499" y="120" on="0"/>
        <pt x="453" y="281" on="1"/>
        <pt x="425" y="286" on="0"/>
        <pt x="389" y="300" on="1"/>
        <pt x="389" y="75" on="1"/>
        <pt x="476" y="75" on="1"/>
        <pt x="476" y="0" on="1"/>
        <pt x="207" y="0" on="1"/>
        <pt x="207" y="75" on="1"/>
        <pt x="304" y="75" on="1"/>
        <pt x="304" y="632" on="1"/>
        <pt x="182" y="623" on="0"/>
        <pt x="80" y="555" on="0"/>
        <pt x="80" y="496" on="1"/>
        <pt x="80" y="466" on="0"/>
        <pt x="106" y="427" on="0"/>
        <pt x="131" y="427" on="1"/>
        <pt x="178" y="427" on="0"/>
        <pt x="178" y="506" on="1"/>
        <pt x="258" y="506" on="1"/>
        <pt x="258" y="441" on="0"/>
        <pt x="198" y="352" on="0"/>
        <pt x="64" y="352" on="0"/>
        <pt x="0" y="436" on="0"/>
        <pt x="0" y="496" on="1"/>
        <pt x="0" y="594" on="0"/>
        <pt x="186" y="710" on="0"/>
        <pt x="568" y="710" on="0"/>
        <pt x="742" y="588" on="0"/>
        <pt x="742" y="393" on="0"/>
        <pt x="628" y="283" on="0"/>
        <pt x="538" y="277" on="1"/>
        <pt x="571" y="162" on="0"/>
        <pt x="645" y="64" on="0"/>
        <pt x="692" y="64" on="1"/>
        <pt x="722" y="64" on="0"/>
        <pt x="761" y="105" on="0"/>
      </contour>
      <contour>
        <pt x="389" y="635" on="1"/>
        <pt x="389" y="374" on="1"/>
        <pt x="436" y="352" on="0"/>
        <pt x="518" y="352" on="1"/>
        <pt x="575" y="352" on="0"/>
        <pt x="657" y="427" on="0"/>
        <pt x="657" y="486" on="1"/>
        <pt x="657" y="558" on="0"/>
        <pt x="533" y="635" on="0"/>
      </contour>
    </TTGlyph>
    <TTGlyph name="Racute" xMin="0" yMin="-11" xMax="836" yMax="968">
      <contour>
        <pt x="836" y="140" on="1"/>
        <pt x="836" y="63" on="0"/>
        <pt x="758" y="-11" on="0"/>
        <pt x="702" y="-11" on="1"/>
        <pt x="609" y="-11" on="0"/>
        <pt x="499" y="120" on="0"/>
        <pt x="453" y="281" on="1"/>
        <pt x="425" y="286" on="0"/>
        <pt x="389" y="300" on="1"/>
        <pt x="389" y="75" on="1"/>
        <pt x="476" y="75" on="1"/>
        <pt x="476" y="0" on="1"/>
        <pt x="207" y="0" on="1"/>
        <pt x="207" y="75" on="1"/>
        <pt x="304" y="75" on="1"/>
        <pt x="304" y="632" on="1"/>
        <pt x="182" y="623" on="0"/>
        <pt x="80" y="555" on="0"/>
        <pt x="80" y="496" on="1"/>
        <pt x="80" y="466" on="0"/>
        <pt x="106" y="427" on="0"/>
        <pt x="131" y="427" on="1"/>
        <pt x="178" y="427" on="0"/>
        <pt x="178" y="506" on="1"/>
        <pt x="178" y="506" on="0"/>
        <pt x="258" y="506" on="1"/>
        <pt x="258" y="441" on="0"/>
        <pt x="198" y="352" on="0"/>
        <pt x="64" y="352" on="0"/>
        <pt x="0" y="436" on="0"/>
        <pt x="0" y="496" on="1"/>
        <pt x="0" y="594" on="0"/>
        <pt x="186" y="710" on="0"/>
        <pt x="568" y="710" on="0"/>
        <pt x="742" y="588" on="0"/>
        <pt x="742" y="393" on="0"/>
        <pt x="628" y="283" on="0"/>
        <pt x="538" y="277" on="1"/>
        <pt x="571" y="162" on="0"/>
        <pt x="645" y="64" on="0"/>
        <pt x="692" y="64" on="1"/>
        <pt x="722" y="64" on="0"/>
        <pt x="761" y="105" on="0"/>
        <pt x="761" y="140" on="1"/>
      </contour>
      <contour>
        <pt x="389" y="635" on="1"/>
        <pt x="389" y="374" on="1"/>
        <pt x="436" y="352" on="0"/>
        <pt x="518" y="352" on="1"/>
        <pt x="575" y="352" on="0"/>
        <pt x="657" y="427" on="0"/>
        <pt x="657" y="486" on="1"/>
        <pt x="657" y="558" on="0"/>
        <pt x="533" y="635" on="0"/>
      </contour>
      <contour>
        <pt x="504" y="921" on="1"/>
        <pt x="380" y="760" on="1"/>
        <pt x="336" y="786" on="1"/>
        <pt x="433" y="968" on="1"/>
      </contour>
    </TTGlyph>
    <TTGlyph name="Rcaron" xMin="0" yMin="-11" xMax="836" yMax="935">
      <contour>
        <pt x="836" y="140" on="1"/>
        <pt x="836" y="63" on="0"/>
        <pt x="758" y="-11" on="0"/>
        <pt x="702" y="-11" on="1"/>
        <pt x="609" y="-11" on="0"/>
        <pt x="499" y="120" on="0"/>
        <pt x="453" y="281" on="1"/>
        <pt x="425" y="286" on="0"/>
        <pt x="389" y="300" on="1"/>
        <pt x="389" y="75" on="1"/>
        <pt x="476" y="75" on="1"/>
        <pt x="476" y="0" on="1"/>
        <pt x="207" y="0" on="1"/>
        <pt x="207" y="75" on="1"/>
        <pt x="304" y="75" on="1"/>
        <pt x="304" y="632" on="1"/>
        <pt x="182" y="623" on="0"/>
        <pt x="80" y="555" on="0"/>
        <pt x="80" y="496" on="1"/>
        <pt x="80" y="466" on="0"/>
        <pt x="106" y="427" on="0"/>
        <pt x="131" y="427" on="1"/>
        <pt x="178" y="427" on="0"/>
        <pt x="178" y="506" on="1"/>
        <pt x="178" y="506" on="0"/>
        <pt x="258" y="506" on="1"/>
        <pt x="258" y="441" on="0"/>
        <pt x="198" y="352" on="0"/>
        <pt x="64" y="352" on="0"/>
        <pt x="0" y="436" on="0"/>
        <pt x="0" y="496" on="1"/>
        <pt x="0" y="594" on="0"/>
        <pt x="186" y="710" on="0"/>
        <pt x="568" y="710" on="0"/>
        <pt x="742" y="588" on="0"/>
        <pt x="742" y="393" on="0"/>
        <pt x="628" y="283" on="0"/>
        <pt x="538" y="277" on="1"/>
        <pt x="571" y="162" on="0"/>
        <pt x="645" y="64" on="0"/>
        <pt x="692" y="64" on="1"/>
        <pt x="722" y="64" on="0"/>
        <pt x="761" y="105" on="0"/>
        <pt x="761" y="140" on="1"/>
      </contour>
      <contour>
        <pt x="389" y="635" on="1"/>
        <pt x="389" y="374" on="1"/>
        <pt x="436" y="352" on="0"/>
        <pt x="518" y="352" on="1"/>
        <pt x="575" y="352" on="0"/>
        <pt x="657" y="427" on="0"/>
        <pt x="657" y="486" on="1"/>
        <pt x="657" y="558" on="0"/>
        <pt x="533" y="635" on="0"/>
      </contour>
      <contour>
        <pt x="543" y="902" on="1"/>
        <pt x="407" y="750" on="1"/>
        <pt x="353" y="750" on="1"/>
        <pt x="217" y="902" on="1"/>
        <pt x="256" y="935" on="1"/>
        <pt x="380" y="821" on="1"/>
        <pt x="504" y="935" on="1"/>
      </contour>
    </TTGlyph>
    <TTGlyph name="Rcommaaccent" xMin="0" yMin="-11" xMax="836" yMax="710">
      <contour>
        <pt x="761" y="140" on="1"/>
        <pt x="836" y="140" on="1"/>
        <pt x="836" y="63" on="0"/>
        <pt x="758" y="-11" on="0"/>
        <pt x="702" y="-11" on="1"/>
        <pt x="609" y="-11" on="0"/>
        <pt x="499" y="120" on="0"/>
        <pt x="453" y="281" on="1"/>
        <pt x="425" y="286" on="0"/>
        <pt x="389" y="300" on="1"/>
        <pt x="389" y="75" on="1"/>
        <pt x="476" y="75" on="1"/>
        <pt x="476" y="0" on="1"/>
        <pt x="207" y="0" on="1"/>
        <pt x="207" y="75" on="1"/>
        <pt x="304" y="75" on="1"/>
        <pt x="304" y="632" on="1"/>
        <pt x="182" y="623" on="0"/>
        <pt x="80" y="555" on="0"/>
        <pt x="80" y="496" on="1"/>
        <pt x="80" y="466" on="0"/>
        <pt x="106" y="427" on="0"/>
        <pt x="131" y="427" on="1"/>
        <pt x="178" y="427" on="0"/>
        <pt x="178" y="506" on="1"/>
        <pt x="258" y="506" on="1"/>
        <pt x="258" y="441" on="0"/>
        <pt x="198" y="352" on="0"/>
        <pt x="64" y="352" on="0"/>
        <pt x="0" y="436" on="0"/>
        <pt x="0" y="496" on="1"/>
        <pt x="0" y="594" on="0"/>
        <pt x="186" y="710" on="0"/>
        <pt x="568" y="710" on="0"/>
        <pt x="742" y="588" on="0"/>
        <pt x="742" y="393" on="0"/>
        <pt x="628" y="283" on="0"/>
        <pt x="538" y="277" on="1"/>
        <pt x="571" y="162" on="0"/>
        <pt x="645" y="64" on="0"/>
        <pt x="692" y="64" on="1"/>
        <pt x="722" y="64" on="0"/>
        <pt x="761" y="105" on="0"/>
      </contour>
      <contour>
        <pt x="389" y="635" on="1"/>
        <pt x="389" y="374" on="1"/>
        <pt x="436" y="352" on="0"/>
        <pt x="518" y="352" on="1"/>
        <pt x="575" y="352" on="0"/>
        <pt x="657" y="427" on="0"/>
        <pt x="657" y="486" on="1"/>
        <pt x="657" y="558" on="0"/>
        <pt x="533" y="635" on="0"/>
      </contour>
    </TTGlyph>
    <TTGlyph name="S" xMin="36" yMin="-8" xMax="509" yMax="717">
      <contour>
        <pt x="45" y="615" on="0"/>
        <pt x="177" y="717" on="0"/>
        <pt x="371" y="717" on="0"/>
        <pt x="496" y="626" on="0"/>
        <pt x="496" y="491" on="0"/>
        <pt x="437" y="408" on="0"/>
        <pt x="308" y="408" on="0"/>
        <pt x="248" y="492" on="0"/>
        <pt x="248" y="552" on="1"/>
        <pt x="328" y="552" on="1"/>
        <pt x="328" y="483" on="0"/>
        <pt x="373" y="483" on="1"/>
        <pt x="416" y="483" on="0"/>
        <pt x="416" y="552" on="1"/>
        <pt x="416" y="594" on="0"/>
        <pt x="339" y="642" on="0"/>
        <pt x="216" y="642" on="0"/>
        <pt x="129" y="584" on="0"/>
        <pt x="129" y="488" on="0"/>
        <pt x="208" y="422" on="0"/>
        <pt x="323" y="365" on="0"/>
        <pt x="341" y="355" on="0"/>
        <pt x="401" y="324" on="0"/>
        <pt x="420" y="309" on="0"/>
        <pt x="463" y="277" on="0"/>
        <pt x="479" y="253" on="0"/>
        <pt x="490" y="236" on="1"/>
        <pt x="509" y="205" on="0"/>
        <pt x="509" y="159" on="1"/>
        <pt x="509" y="75" on="0"/>
        <pt x="370" y="-8" on="0"/>
        <pt x="124" y="-8" on="0"/>
        <pt x="36" y="43" on="1"/>
        <pt x="36" y="178" on="1"/>
        <pt x="106" y="178" on="1"/>
        <pt x="106" y="97" on="1"/>
        <pt x="173" y="67" on="0"/>
        <pt x="330" y="67" on="0"/>
        <pt x="423" y="123" on="0"/>
        <pt x="423" y="167" on="1"/>
        <pt x="423" y="208" on="0"/>
        <pt x="376" y="242" on="1"/>
        <pt x="339" y="267" on="0"/>
        <pt x="142" y="365" on="0"/>
        <pt x="45" y="455" on="0"/>
        <pt x="45" y="527" on="1"/>
      </contour>
    </TTGlyph>
    <TTGlyph name="Sacute" xMin="36" yMin="-8" xMax="509" yMax="968">
      <contour>
        <pt x="404" y="921" on="1"/>
        <pt x="280" y="760" on="1"/>
        <pt x="236" y="786" on="1"/>
        <pt x="333" y="968" on="1"/>
      </contour>
      <contour>
        <pt x="371" y="717" on="0"/>
        <pt x="496" y="626" on="0"/>
        <pt x="496" y="491" on="0"/>
        <pt x="437" y="408" on="0"/>
        <pt x="308" y="408" on="0"/>
        <pt x="248" y="492" on="0"/>
        <pt x="248" y="552" on="1"/>
        <pt x="328" y="552" on="1"/>
        <pt x="328" y="483" on="0"/>
        <pt x="373" y="483" on="1"/>
        <pt x="416" y="483" on="0"/>
        <pt x="416" y="552" on="1"/>
        <pt x="416" y="594" on="0"/>
        <pt x="339" y="642" on="0"/>
        <pt x="216" y="642" on="0"/>
        <pt x="129" y="584" on="0"/>
        <pt x="129" y="485" on="0"/>
        <pt x="178" y="448" on="1"/>
        <pt x="203" y="428" on="0"/>
        <pt x="249" y="402" on="0"/>
        <pt x="323" y="365" on="0"/>
        <pt x="341" y="355" on="0"/>
        <pt x="401" y="324" on="0"/>
        <pt x="420" y="309" on="0"/>
        <pt x="463" y="277" on="0"/>
        <pt x="479" y="253" on="0"/>
        <pt x="509" y="205" on="0"/>
        <pt x="509" y="159" on="1"/>
        <pt x="509" y="75" on="0"/>
        <pt x="370" y="-8" on="0"/>
        <pt x="124" y="-8" on="0"/>
        <pt x="36" y="43" on="1"/>
        <pt x="36" y="178" on="1"/>
        <pt x="106" y="178" on="1"/>
        <pt x="106" y="97" on="1"/>
        <pt x="173" y="67" on="0"/>
        <pt x="330" y="67" on="0"/>
        <pt x="423" y="123" on="0"/>
        <pt x="423" y="167" on="1"/>
        <pt x="423" y="188" on="0"/>
        <pt x="412" y="206" on="1"/>
        <pt x="391" y="241" on="0"/>
        <pt x="263" y="305" on="1"/>
        <pt x="142" y="365" on="0"/>
        <pt x="45" y="455" on="0"/>
        <pt x="45" y="527" on="1"/>
        <pt x="45" y="615" on="0"/>
        <pt x="177" y="717" on="0"/>
      </contour>
    </TTGlyph>
    <TTGlyph name="Scaron" xMin="36" yMin="-8" xMax="509" yMax="935">
      <contour>
        <pt x="443" y="902" on="1"/>
        <pt x="307" y="750" on="1"/>
        <pt x="253" y="750" on="1"/>
        <pt x="117" y="902" on="1"/>
        <pt x="156" y="935" on="1"/>
        <pt x="280" y="821" on="1"/>
        <pt x="404" y="935" on="1"/>
      </contour>
      <contour>
        <pt x="371" y="717" on="0"/>
        <pt x="496" y="626" on="0"/>
        <pt x="496" y="491" on="0"/>
        <pt x="437" y="408" on="0"/>
        <pt x="308" y="408" on="0"/>
        <pt x="248" y="492" on="0"/>
        <pt x="248" y="552" on="1"/>
        <pt x="328" y="552" on="1"/>
        <pt x="328" y="483" on="0"/>
        <pt x="373" y="483" on="1"/>
        <pt x="416" y="483" on="0"/>
        <pt x="416" y="552" on="1"/>
        <pt x="416" y="594" on="0"/>
        <pt x="339" y="642" on="0"/>
        <pt x="216" y="642" on="0"/>
        <pt x="129" y="584" on="0"/>
        <pt x="129" y="485" on="0"/>
        <pt x="178" y="448" on="1"/>
        <pt x="203" y="428" on="0"/>
        <pt x="249" y="402" on="0"/>
        <pt x="323" y="365" on="0"/>
        <pt x="341" y="355" on="0"/>
        <pt x="401" y="324" on="0"/>
        <pt x="420" y="309" on="0"/>
        <pt x="463" y="277" on="0"/>
        <pt x="479" y="253" on="0"/>
        <pt x="509" y="205" on="0"/>
        <pt x="509" y="159" on="1"/>
        <pt x="509" y="75" on="0"/>
        <pt x="370" y="-8" on="0"/>
        <pt x="124" y="-8" on="0"/>
        <pt x="36" y="43" on="1"/>
        <pt x="36" y="178" on="1"/>
        <pt x="106" y="178" on="1"/>
        <pt x="106" y="97" on="1"/>
        <pt x="173" y="67" on="0"/>
        <pt x="330" y="67" on="0"/>
        <pt x="423" y="123" on="0"/>
        <pt x="423" y="167" on="1"/>
        <pt x="423" y="188" on="0"/>
        <pt x="412" y="206" on="1"/>
        <pt x="391" y="241" on="0"/>
        <pt x="263" y="305" on="1"/>
        <pt x="142" y="365" on="0"/>
        <pt x="45" y="455" on="0"/>
        <pt x="45" y="527" on="1"/>
        <pt x="45" y="615" on="0"/>
        <pt x="177" y="717" on="0"/>
      </contour>
    </TTGlyph>
    <TTGlyph name="T" xMin="0" yMin="0" xMax="672" yMax="700">
      <contour>
        <pt x="389" y="700" on="1"/>
        <pt x="672" y="700" on="1"/>
        <pt x="672" y="538" on="1"/>
        <pt x="598" y="538" on="1"/>
        <pt x="598" y="625" on="1"/>
        <pt x="444" y="625" on="1"/>
        <pt x="444" y="75" on="1"/>
        <pt x="541" y="75" on="1"/>
        <pt x="541" y="0" on="1"/>
        <pt x="271" y="0" on="1"/>
        <pt x="271" y="75" on="1"/>
        <pt x="359" y="75" on="1"/>
        <pt x="359" y="625" on="1"/>
        <pt x="304" y="625" on="1"/>
        <pt x="181" y="617" on="0"/>
        <pt x="80" y="549" on="0"/>
        <pt x="80" y="486" on="1"/>
        <pt x="80" y="456" on="0"/>
        <pt x="106" y="417" on="0"/>
        <pt x="131" y="417" on="1"/>
        <pt x="178" y="417" on="0"/>
        <pt x="178" y="496" on="1"/>
        <pt x="258" y="496" on="1"/>
        <pt x="258" y="431" on="0"/>
        <pt x="198" y="342" on="0"/>
        <pt x="64" y="342" on="0"/>
        <pt x="0" y="426" on="0"/>
        <pt x="0" y="486" on="1"/>
        <pt x="0" y="584" on="0"/>
        <pt x="186" y="700" on="0"/>
      </contour>
    </TTGlyph>
    <TTGlyph name="Tcaron" xMin="-1" yMin="0" xMax="671" yMax="935">
      <contour>
        <pt x="563" y="902" on="1"/>
        <pt x="427" y="750" on="1"/>
        <pt x="373" y="750" on="1"/>
        <pt x="237" y="902" on="1"/>
        <pt x="276" y="935" on="1"/>
        <pt x="400" y="821" on="1"/>
        <pt x="524" y="935" on="1"/>
      </contour>
      <contour>
        <pt x="388" y="700" on="1"/>
        <pt x="671" y="700" on="1"/>
        <pt x="671" y="538" on="1"/>
        <pt x="597" y="538" on="1"/>
        <pt x="597" y="625" on="1"/>
        <pt x="443" y="625" on="1"/>
        <pt x="443" y="75" on="1"/>
        <pt x="540" y="75" on="1"/>
        <pt x="540" y="0" on="1"/>
        <pt x="270" y="0" on="1"/>
        <pt x="270" y="75" on="1"/>
        <pt x="358" y="75" on="1"/>
        <pt x="358" y="625" on="1"/>
        <pt x="303" y="625" on="1"/>
        <pt x="180" y="617" on="0"/>
        <pt x="79" y="549" on="0"/>
        <pt x="79" y="486" on="1"/>
        <pt x="79" y="456" on="0"/>
        <pt x="105" y="417" on="0"/>
        <pt x="130" y="417" on="1"/>
        <pt x="177" y="417" on="0"/>
        <pt x="177" y="496" on="1"/>
        <pt x="257" y="496" on="1"/>
        <pt x="257" y="431" on="0"/>
        <pt x="197" y="342" on="0"/>
        <pt x="63" y="342" on="0"/>
        <pt x="-1" y="426" on="0"/>
        <pt x="-1" y="486" on="1"/>
        <pt x="-1" y="584" on="0"/>
        <pt x="185" y="700" on="0"/>
      </contour>
    </TTGlyph>
    <TTGlyph name="Thorn" xMin="18" yMin="0" xMax="545" yMax="691">
      <contour>
        <pt x="181" y="65" on="1"/>
        <pt x="268" y="65" on="1"/>
        <pt x="268" y="0" on="1"/>
        <pt x="18" y="0" on="1"/>
        <pt x="18" y="65" on="1"/>
        <pt x="96" y="65" on="1"/>
        <pt x="96" y="626" on="1"/>
        <pt x="19" y="626" on="1"/>
        <pt x="19" y="691" on="1"/>
        <pt x="268" y="691" on="1"/>
        <pt x="268" y="626" on="1"/>
        <pt x="181" y="626" on="1"/>
        <pt x="181" y="583" on="1"/>
        <pt x="295" y="590" on="0"/>
        <pt x="306" y="590" on="1"/>
        <pt x="423" y="590" on="0"/>
        <pt x="545" y="452" on="0"/>
        <pt x="545" y="245" on="0"/>
        <pt x="423" y="110" on="0"/>
        <pt x="306" y="110" on="1"/>
        <pt x="230" y="110" on="0"/>
        <pt x="181" y="112" on="1"/>
      </contour>
      <contour>
        <pt x="385" y="185" on="0"/>
        <pt x="460" y="273" on="0"/>
        <pt x="460" y="429" on="0"/>
        <pt x="385" y="515" on="0"/>
        <pt x="321" y="515" on="1"/>
        <pt x="288" y="515" on="0"/>
        <pt x="181" y="508" on="1"/>
        <pt x="181" y="187" on="1"/>
        <pt x="217" y="185" on="0"/>
        <pt x="321" y="185" on="1"/>
      </contour>
    </TTGlyph>
    <TTGlyph name="U" xMin="0" yMin="-10" xMax="949" yMax="700">
      <contour>
        <pt x="389" y="156" on="0"/>
        <pt x="491" y="70" on="0"/>
        <pt x="652" y="70" on="0"/>
        <pt x="757" y="157" on="0"/>
        <pt x="757" y="220" on="1"/>
        <pt x="757" y="625" on="1"/>
        <pt x="670" y="625" on="1"/>
        <pt x="670" y="700" on="1"/>
        <pt x="949" y="700" on="1"/>
        <pt x="949" y="625" on="1"/>
        <pt x="842" y="625" on="1"/>
        <pt x="842" y="220" on="1"/>
        <pt x="842" y="122" on="0"/>
        <pt x="696" y="-10" on="0"/>
        <pt x="448" y="-10" on="0"/>
        <pt x="304" y="121" on="0"/>
        <pt x="304" y="220" on="1"/>
        <pt x="304" y="623" on="1"/>
        <pt x="181" y="615" on="0"/>
        <pt x="80" y="549" on="0"/>
        <pt x="80" y="486" on="1"/>
        <pt x="80" y="456" on="0"/>
        <pt x="106" y="417" on="0"/>
        <pt x="131" y="417" on="1"/>
        <pt x="178" y="417" on="0"/>
        <pt x="178" y="496" on="1"/>
        <pt x="258" y="496" on="1"/>
        <pt x="258" y="431" on="0"/>
        <pt x="198" y="342" on="0"/>
        <pt x="64" y="342" on="0"/>
        <pt x="0" y="426" on="0"/>
        <pt x="0" y="486" on="1"/>
        <pt x="0" y="584" on="0"/>
        <pt x="186" y="700" on="0"/>
        <pt x="389" y="700" on="1"/>
        <pt x="476" y="700" on="1"/>
        <pt x="476" y="625" on="1"/>
        <pt x="389" y="625" on="1"/>
        <pt x="389" y="220" on="1"/>
      </contour>
    </TTGlyph>
    <TTGlyph name="Uacute" xMin="0" yMin="-10" xMax="949" yMax="968">
      <contour>
        <pt x="389" y="156" on="0"/>
        <pt x="491" y="70" on="0"/>
        <pt x="652" y="70" on="0"/>
        <pt x="757" y="157" on="0"/>
        <pt x="757" y="220" on="1"/>
        <pt x="757" y="625" on="1"/>
        <pt x="670" y="625" on="1"/>
        <pt x="670" y="700" on="1"/>
        <pt x="949" y="700" on="1"/>
        <pt x="949" y="625" on="1"/>
        <pt x="842" y="625" on="1"/>
        <pt x="842" y="220" on="1"/>
        <pt x="842" y="122" on="0"/>
        <pt x="696" y="-10" on="0"/>
        <pt x="448" y="-10" on="0"/>
        <pt x="304" y="121" on="0"/>
        <pt x="304" y="220" on="1"/>
        <pt x="304" y="623" on="1"/>
        <pt x="181" y="615" on="0"/>
        <pt x="80" y="549" on="0"/>
        <pt x="80" y="486" on="1"/>
        <pt x="80" y="456" on="0"/>
        <pt x="106" y="417" on="0"/>
        <pt x="131" y="417" on="1"/>
        <pt x="178" y="417" on="0"/>
        <pt x="178" y="496" on="1"/>
        <pt x="258" y="496" on="1"/>
        <pt x="258" y="431" on="0"/>
        <pt x="198" y="342" on="0"/>
        <pt x="64" y="342" on="0"/>
        <pt x="0" y="426" on="0"/>
        <pt x="0" y="486" on="1"/>
        <pt x="0" y="584" on="0"/>
        <pt x="186" y="700" on="0"/>
        <pt x="389" y="700" on="1"/>
        <pt x="476" y="700" on="1"/>
        <pt x="476" y="625" on="1"/>
        <pt x="389" y="625" on="1"/>
        <pt x="389" y="220" on="1"/>
      </contour>
      <contour>
        <pt x="701" y="921" on="1"/>
        <pt x="577" y="760" on="1"/>
        <pt x="533" y="786" on="1"/>
        <pt x="630" y="968" on="1"/>
      </contour>
    </TTGlyph>
    <TTGlyph name="Ucircumflex" xMin="0" yMin="-10" xMax="949" yMax="935">
      <contour>
        <pt x="389" y="156" on="0"/>
        <pt x="491" y="70" on="0"/>
        <pt x="652" y="70" on="0"/>
        <pt x="757" y="157" on="0"/>
        <pt x="757" y="220" on="1"/>
        <pt x="757" y="625" on="1"/>
        <pt x="670" y="625" on="1"/>
        <pt x="670" y="700" on="1"/>
        <pt x="949" y="700" on="1"/>
        <pt x="949" y="625" on="1"/>
        <pt x="842" y="625" on="1"/>
        <pt x="842" y="220" on="1"/>
        <pt x="842" y="122" on="0"/>
        <pt x="696" y="-10" on="0"/>
        <pt x="448" y="-10" on="0"/>
        <pt x="304" y="121" on="0"/>
        <pt x="304" y="220" on="1"/>
        <pt x="304" y="623" on="1"/>
        <pt x="181" y="615" on="0"/>
        <pt x="80" y="549" on="0"/>
        <pt x="80" y="486" on="1"/>
        <pt x="80" y="456" on="0"/>
        <pt x="106" y="417" on="0"/>
        <pt x="131" y="417" on="1"/>
        <pt x="178" y="417" on="0"/>
        <pt x="178" y="496" on="1"/>
        <pt x="258" y="496" on="1"/>
        <pt x="258" y="431" on="0"/>
        <pt x="198" y="342" on="0"/>
        <pt x="64" y="342" on="0"/>
        <pt x="0" y="426" on="0"/>
        <pt x="0" y="486" on="1"/>
        <pt x="0" y="584" on="0"/>
        <pt x="186" y="700" on="0"/>
        <pt x="389" y="700" on="1"/>
        <pt x="476" y="700" on="1"/>
        <pt x="476" y="625" on="1"/>
        <pt x="389" y="625" on="1"/>
        <pt x="389" y="220" on="1"/>
      </contour>
      <contour>
        <pt x="604" y="935" on="1"/>
        <pt x="740" y="783" on="1"/>
        <pt x="701" y="750" on="1"/>
        <pt x="577" y="864" on="1"/>
        <pt x="453" y="750" on="1"/>
        <pt x="414" y="783" on="1"/>
        <pt x="550" y="935" on="1"/>
      </contour>
    </TTGlyph>
    <TTGlyph name="Udieresis" xMin="0" yMin="-10" xMax="949" yMax="895">
      <contour>
        <pt x="389" y="156" on="0"/>
        <pt x="491" y="70" on="0"/>
        <pt x="652" y="70" on="0"/>
        <pt x="757" y="157" on="0"/>
        <pt x="757" y="220" on="1"/>
        <pt x="757" y="625" on="1"/>
        <pt x="670" y="625" on="1"/>
        <pt x="670" y="700" on="1"/>
        <pt x="949" y="700" on="1"/>
        <pt x="949" y="625" on="1"/>
        <pt x="842" y="625" on="1"/>
        <pt x="842" y="220" on="1"/>
        <pt x="842" y="122" on="0"/>
        <pt x="696" y="-10" on="0"/>
        <pt x="448" y="-10" on="0"/>
        <pt x="304" y="121" on="0"/>
        <pt x="304" y="220" on="1"/>
        <pt x="304" y="623" on="1"/>
        <pt x="181" y="615" on="0"/>
        <pt x="80" y="549" on="0"/>
        <pt x="80" y="486" on="1"/>
        <pt x="80" y="456" on="0"/>
        <pt x="106" y="417" on="0"/>
        <pt x="131" y="417" on="1"/>
        <pt x="178" y="417" on="0"/>
        <pt x="178" y="496" on="1"/>
        <pt x="258" y="496" on="1"/>
        <pt x="258" y="431" on="0"/>
        <pt x="198" y="342" on="0"/>
        <pt x="64" y="342" on="0"/>
        <pt x="0" y="426" on="0"/>
        <pt x="0" y="486" on="1"/>
        <pt x="0" y="584" on="0"/>
        <pt x="186" y="700" on="0"/>
        <pt x="389" y="700" on="1"/>
        <pt x="476" y="700" on="1"/>
        <pt x="476" y="625" on="1"/>
        <pt x="389" y="625" on="1"/>
        <pt x="389" y="220" on="1"/>
      </contour>
      <contour>
        <pt x="433" y="826" on="0"/>
        <pt x="433" y="866" on="0"/>
        <pt x="461" y="895" on="0"/>
        <pt x="501" y="895" on="0"/>
        <pt x="530" y="866" on="0"/>
        <pt x="530" y="826" on="0"/>
        <pt x="501" y="798" on="0"/>
        <pt x="462" y="798" on="0"/>
      </contour>
      <contour>
        <pt x="624" y="826" on="0"/>
        <pt x="624" y="866" on="0"/>
        <pt x="652" y="895" on="0"/>
        <pt x="692" y="895" on="0"/>
        <pt x="721" y="866" on="0"/>
        <pt x="721" y="826" on="0"/>
        <pt x="692" y="798" on="0"/>
        <pt x="652" y="798" on="0"/>
      </contour>
    </TTGlyph>
    <TTGlyph name="Ugrave" xMin="0" yMin="-10" xMax="949" yMax="968">
      <contour>
        <pt x="389" y="156" on="0"/>
        <pt x="491" y="70" on="0"/>
        <pt x="652" y="70" on="0"/>
        <pt x="757" y="157" on="0"/>
        <pt x="757" y="220" on="1"/>
        <pt x="757" y="625" on="1"/>
        <pt x="670" y="625" on="1"/>
        <pt x="670" y="700" on="1"/>
        <pt x="949" y="700" on="1"/>
        <pt x="949" y="625" on="1"/>
        <pt x="842" y="625" on="1"/>
        <pt x="842" y="220" on="1"/>
        <pt x="842" y="122" on="0"/>
        <pt x="696" y="-10" on="0"/>
        <pt x="448" y="-10" on="0"/>
        <pt x="304" y="121" on="0"/>
        <pt x="304" y="220" on="1"/>
        <pt x="304" y="623" on="1"/>
        <pt x="181" y="615" on="0"/>
        <pt x="80" y="549" on="0"/>
        <pt x="80" y="486" on="1"/>
        <pt x="80" y="456" on="0"/>
        <pt x="106" y="417" on="0"/>
        <pt x="131" y="417" on="1"/>
        <pt x="178" y="417" on="0"/>
        <pt x="178" y="496" on="1"/>
        <pt x="258" y="496" on="1"/>
        <pt x="258" y="431" on="0"/>
        <pt x="198" y="342" on="0"/>
        <pt x="64" y="342" on="0"/>
        <pt x="0" y="426" on="0"/>
        <pt x="0" y="486" on="1"/>
        <pt x="0" y="584" on="0"/>
        <pt x="186" y="700" on="0"/>
        <pt x="389" y="700" on="1"/>
        <pt x="476" y="700" on="1"/>
        <pt x="476" y="625" on="1"/>
        <pt x="389" y="625" on="1"/>
        <pt x="389" y="220" on="1"/>
      </contour>
      <contour>
        <pt x="599" y="760" on="1"/>
        <pt x="475" y="921" on="1"/>
        <pt x="546" y="968" on="1"/>
        <pt x="643" y="786" on="1"/>
      </contour>
    </TTGlyph>
    <TTGlyph name="Uring" xMin="0" yMin="-10" xMax="949" yMax="960">
      <contour>
        <pt x="389" y="156" on="0"/>
        <pt x="491" y="70" on="0"/>
        <pt x="652" y="70" on="0"/>
        <pt x="757" y="157" on="0"/>
        <pt x="757" y="220" on="1"/>
        <pt x="757" y="625" on="1"/>
        <pt x="670" y="625" on="1"/>
        <pt x="670" y="700" on="1"/>
        <pt x="949" y="700" on="1"/>
        <pt x="949" y="625" on="1"/>
        <pt x="842" y="625" on="1"/>
        <pt x="842" y="220" on="1"/>
        <pt x="842" y="122" on="0"/>
        <pt x="696" y="-10" on="0"/>
        <pt x="448" y="-10" on="0"/>
        <pt x="304" y="121" on="0"/>
        <pt x="304" y="220" on="1"/>
        <pt x="304" y="623" on="1"/>
        <pt x="181" y="615" on="0"/>
        <pt x="80" y="549" on="0"/>
        <pt x="80" y="486" on="1"/>
        <pt x="80" y="456" on="0"/>
        <pt x="106" y="417" on="0"/>
        <pt x="131" y="417" on="1"/>
        <pt x="178" y="417" on="0"/>
        <pt x="178" y="496" on="1"/>
        <pt x="258" y="496" on="1"/>
        <pt x="258" y="431" on="0"/>
        <pt x="198" y="342" on="0"/>
        <pt x="64" y="342" on="0"/>
        <pt x="0" y="426" on="0"/>
        <pt x="0" y="486" on="1"/>
        <pt x="0" y="584" on="0"/>
        <pt x="186" y="700" on="0"/>
        <pt x="389" y="700" on="1"/>
        <pt x="476" y="700" on="1"/>
        <pt x="476" y="625" on="1"/>
        <pt x="389" y="625" on="1"/>
        <pt x="389" y="220" on="1"/>
      </contour>
      <contour>
        <pt x="683" y="810" on="0"/>
        <pt x="622" y="750" on="0"/>
        <pt x="531" y="750" on="0"/>
        <pt x="468" y="811" on="0"/>
        <pt x="468" y="897" on="0"/>
        <pt x="532" y="960" on="0"/>
        <pt x="622" y="960" on="0"/>
        <pt x="683" y="898" on="0"/>
      </contour>
      <contour>
        <pt x="528" y="834" on="0"/>
        <pt x="555" y="805" on="0"/>
        <pt x="598" y="805" on="0"/>
        <pt x="623" y="833" on="0"/>
        <pt x="623" y="876" on="0"/>
        <pt x="598" y="905" on="0"/>
        <pt x="555" y="905" on="0"/>
        <pt x="528" y="875" on="0"/>
      </contour>
    </TTGlyph>
    <TTGlyph name="V" xMin="0" yMin="0" xMax="841" yMax="706">
      <contour>
        <pt x="841" y="700" on="1"/>
        <pt x="841" y="625" on="1"/>
        <pt x="777" y="625" on="1"/>
        <pt x="568" y="0" on="1"/>
        <pt x="480" y="0" on="1"/>
        <pt x="272" y="626" on="1"/>
        <pt x="168" y="615" on="0"/>
        <pt x="80" y="550" on="0"/>
        <pt x="80" y="492" on="1"/>
        <pt x="80" y="462" on="0"/>
        <pt x="106" y="423" on="0"/>
        <pt x="131" y="423" on="1"/>
        <pt x="178" y="423" on="0"/>
        <pt x="178" y="502" on="1"/>
        <pt x="258" y="502" on="1"/>
        <pt x="258" y="437" on="0"/>
        <pt x="198" y="348" on="0"/>
        <pt x="64" y="348" on="0"/>
        <pt x="0" y="432" on="0"/>
        <pt x="0" y="492" on="1"/>
        <pt x="0" y="590" on="0"/>
        <pt x="186" y="706" on="0"/>
        <pt x="389" y="706" on="1"/>
        <pt x="429" y="706" on="1"/>
        <pt x="429" y="631" on="1"/>
        <pt x="358" y="631" on="1"/>
        <pt x="524" y="126" on="1"/>
        <pt x="689" y="625" on="1"/>
        <pt x="619" y="625" on="1"/>
        <pt x="619" y="700" on="1"/>
      </contour>
    </TTGlyph>
    <TTGlyph name="W" xMin="0" yMin="0" xMax="1189" yMax="706">
      <contour>
        <pt x="80" y="492" on="1"/>
        <pt x="80" y="462" on="0"/>
        <pt x="106" y="423" on="0"/>
        <pt x="131" y="423" on="1"/>
        <pt x="178" y="423" on="0"/>
        <pt x="178" y="502" on="1"/>
        <pt x="258" y="502" on="1"/>
        <pt x="258" y="437" on="0"/>
        <pt x="198" y="348" on="0"/>
        <pt x="64" y="348" on="0"/>
        <pt x="0" y="432" on="0"/>
        <pt x="0" y="492" on="1"/>
        <pt x="0" y="590" on="0"/>
        <pt x="186" y="706" on="0"/>
        <pt x="389" y="706" on="1"/>
        <pt x="468" y="706" on="1"/>
        <pt x="468" y="631" on="1"/>
        <pt x="394" y="631" on="1"/>
        <pt x="528" y="123" on="1"/>
        <pt x="674" y="700" on="1"/>
        <pt x="762" y="700" on="1"/>
        <pt x="907" y="123" on="1"/>
        <pt x="1039" y="625" on="1"/>
        <pt x="967" y="625" on="1"/>
        <pt x="967" y="700" on="1"/>
        <pt x="1189" y="700" on="1"/>
        <pt x="1189" y="625" on="1"/>
        <pt x="1127" y="625" on="1"/>
        <pt x="956" y="0" on="1"/>
        <pt x="868" y="0" on="1"/>
        <pt x="718" y="541" on="1"/>
        <pt x="568" y="0" on="1"/>
        <pt x="480" y="0" on="1"/>
        <pt x="307" y="629" on="1"/>
        <pt x="182" y="621" on="0"/>
        <pt x="80" y="555" on="0"/>
      </contour>
    </TTGlyph>
    <TTGlyph name="X" xMin="2" yMin="0" xMax="761" yMax="704">
      <contour>
        <pt x="391" y="704" on="1"/>
        <pt x="391" y="628" on="1"/>
        <pt x="340" y="628" on="1"/>
        <pt x="465" y="428" on="1"/>
        <pt x="587" y="625" on="1"/>
        <pt x="522" y="625" on="1"/>
        <pt x="522" y="700" on="1"/>
        <pt x="744" y="700" on="1"/>
        <pt x="744" y="625" on="1"/>
        <pt x="685" y="625" on="1"/>
        <pt x="519" y="360" on="1"/>
        <pt x="698" y="75" on="1"/>
        <pt x="761" y="75" on="1"/>
        <pt x="761" y="0" on="1"/>
        <pt x="539" y="0" on="1"/>
        <pt x="539" y="75" on="1"/>
        <pt x="600" y="75" on="1"/>
        <pt x="465" y="294" on="1"/>
        <pt x="329" y="75" on="1"/>
        <pt x="388" y="75" on="1"/>
        <pt x="388" y="0" on="1"/>
        <pt x="166" y="0" on="1"/>
        <pt x="166" y="75" on="1"/>
        <pt x="232" y="75" on="1"/>
        <pt x="410" y="360" on="1"/>
        <pt x="247" y="621" on="1"/>
        <pt x="157" y="609" on="0"/>
        <pt x="82" y="545" on="0"/>
        <pt x="82" y="490" on="1"/>
        <pt x="82" y="460" on="0"/>
        <pt x="108" y="421" on="0"/>
        <pt x="133" y="421" on="1"/>
        <pt x="180" y="421" on="0"/>
        <pt x="180" y="500" on="1"/>
        <pt x="260" y="500" on="1"/>
        <pt x="260" y="435" on="0"/>
        <pt x="200" y="346" on="0"/>
        <pt x="66" y="346" on="0"/>
        <pt x="2" y="430" on="0"/>
        <pt x="2" y="490" on="1"/>
        <pt x="2" y="588" on="0"/>
        <pt x="188" y="704" on="0"/>
      </contour>
    </TTGlyph>
    <TTGlyph name="Y" xMin="0" yMin="0" xMax="744" yMax="704">
      <contour>
        <pt x="389" y="704" on="1"/>
        <pt x="389" y="629" on="1"/>
        <pt x="334" y="629" on="1"/>
        <pt x="465" y="388" on="1"/>
        <pt x="592" y="625" on="1"/>
        <pt x="522" y="625" on="1"/>
        <pt x="522" y="700" on="1"/>
        <pt x="744" y="700" on="1"/>
        <pt x="744" y="625" on="1"/>
        <pt x="689" y="625" on="1"/>
        <pt x="507" y="303" on="1"/>
        <pt x="507" y="75" on="1"/>
        <pt x="604" y="75" on="1"/>
        <pt x="604" y="0" on="1"/>
        <pt x="334" y="0" on="1"/>
        <pt x="334" y="75" on="1"/>
        <pt x="422" y="75" on="1"/>
        <pt x="422" y="303" on="1"/>
        <pt x="242" y="620" on="1"/>
        <pt x="154" y="608" on="0"/>
        <pt x="80" y="544" on="0"/>
        <pt x="80" y="490" on="1"/>
        <pt x="80" y="460" on="0"/>
        <pt x="106" y="421" on="0"/>
        <pt x="131" y="421" on="1"/>
        <pt x="178" y="421" on="0"/>
        <pt x="178" y="500" on="1"/>
        <pt x="258" y="500" on="1"/>
        <pt x="258" y="435" on="0"/>
        <pt x="198" y="346" on="0"/>
        <pt x="64" y="346" on="0"/>
        <pt x="0" y="430" on="0"/>
        <pt x="0" y="490" on="1"/>
        <pt x="0" y="588" on="0"/>
        <pt x="186" y="704" on="0"/>
      </contour>
    </TTGlyph>
    <TTGlyph name="Yacute" xMin="0" yMin="0" xMax="744" yMax="968">
      <contour>
        <pt x="389" y="704" on="1"/>
        <pt x="389" y="629" on="1"/>
        <pt x="334" y="629" on="1"/>
        <pt x="465" y="388" on="1"/>
        <pt x="592" y="625" on="1"/>
        <pt x="522" y="625" on="1"/>
        <pt x="522" y="700" on="1"/>
        <pt x="744" y="700" on="1"/>
        <pt x="744" y="625" on="1"/>
        <pt x="689" y="625" on="1"/>
        <pt x="507" y="303" on="1"/>
        <pt x="507" y="75" on="1"/>
        <pt x="604" y="75" on="1"/>
        <pt x="604" y="0" on="1"/>
        <pt x="334" y="0" on="1"/>
        <pt x="334" y="75" on="1"/>
        <pt x="422" y="75" on="1"/>
        <pt x="422" y="303" on="1"/>
        <pt x="242" y="620" on="1"/>
        <pt x="154" y="608" on="0"/>
        <pt x="80" y="544" on="0"/>
        <pt x="80" y="490" on="1"/>
        <pt x="80" y="460" on="0"/>
        <pt x="106" y="421" on="0"/>
        <pt x="131" y="421" on="1"/>
        <pt x="178" y="421" on="0"/>
        <pt x="178" y="500" on="1"/>
        <pt x="258" y="500" on="1"/>
        <pt x="258" y="435" on="0"/>
        <pt x="198" y="346" on="0"/>
        <pt x="64" y="346" on="0"/>
        <pt x="0" y="430" on="0"/>
        <pt x="0" y="490" on="1"/>
        <pt x="0" y="588" on="0"/>
        <pt x="186" y="704" on="0"/>
      </contour>
      <contour>
        <pt x="584" y="921" on="1"/>
        <pt x="460" y="760" on="1"/>
        <pt x="416" y="786" on="1"/>
        <pt x="513" y="968" on="1"/>
      </contour>
    </TTGlyph>
    <TTGlyph name="Z" xMin="0" yMin="0" xMax="612" yMax="700">
      <contour>
        <pt x="609" y="700" on="1"/>
        <pt x="609" y="645" on="1"/>
        <pt x="231" y="75" on="1"/>
        <pt x="542" y="75" on="1"/>
        <pt x="542" y="144" on="1"/>
        <pt x="612" y="144" on="1"/>
        <pt x="612" y="0" on="1"/>
        <pt x="115" y="0" on="1"/>
        <pt x="115" y="55" on="1"/>
        <pt x="492" y="625" on="1"/>
        <pt x="389" y="625" on="1"/>
        <pt x="217" y="625" on="0"/>
        <pt x="80" y="558" on="0"/>
        <pt x="80" y="486" on="1"/>
        <pt x="80" y="456" on="0"/>
        <pt x="106" y="417" on="0"/>
        <pt x="131" y="417" on="1"/>
        <pt x="178" y="417" on="0"/>
        <pt x="178" y="496" on="1"/>
        <pt x="258" y="496" on="1"/>
        <pt x="258" y="431" on="0"/>
        <pt x="198" y="342" on="0"/>
        <pt x="64" y="342" on="0"/>
        <pt x="0" y="426" on="0"/>
        <pt x="0" y="486" on="1"/>
        <pt x="0" y="584" on="0"/>
        <pt x="186" y="700" on="0"/>
        <pt x="389" y="700" on="1"/>
      </contour>
    </TTGlyph>
    <TTGlyph name="Zacute" xMin="0" yMin="0" xMax="612" yMax="968">
      <contour>
        <pt x="609" y="700" on="1"/>
        <pt x="609" y="645" on="1"/>
        <pt x="231" y="75" on="1"/>
        <pt x="542" y="75" on="1"/>
        <pt x="542" y="144" on="1"/>
        <pt x="612" y="144" on="1"/>
        <pt x="612" y="0" on="1"/>
        <pt x="115" y="0" on="1"/>
        <pt x="115" y="55" on="1"/>
        <pt x="492" y="625" on="1"/>
        <pt x="389" y="625" on="1"/>
        <pt x="217" y="625" on="0"/>
        <pt x="80" y="558" on="0"/>
        <pt x="80" y="486" on="1"/>
        <pt x="80" y="456" on="0"/>
        <pt x="106" y="417" on="0"/>
        <pt x="131" y="417" on="1"/>
        <pt x="178" y="417" on="0"/>
        <pt x="178" y="496" on="1"/>
        <pt x="258" y="496" on="1"/>
        <pt x="258" y="431" on="0"/>
        <pt x="198" y="342" on="0"/>
        <pt x="64" y="342" on="0"/>
        <pt x="0" y="426" on="0"/>
        <pt x="0" y="486" on="1"/>
        <pt x="0" y="584" on="0"/>
        <pt x="186" y="700" on="0"/>
        <pt x="389" y="700" on="1"/>
      </contour>
      <contour>
        <pt x="514" y="921" on="1"/>
        <pt x="390" y="760" on="1"/>
        <pt x="346" y="786" on="1"/>
        <pt x="443" y="968" on="1"/>
      </contour>
    </TTGlyph>
    <TTGlyph name="Zcaron" xMin="0" yMin="0" xMax="612" yMax="935">
      <contour>
        <pt x="609" y="700" on="1"/>
        <pt x="609" y="645" on="1"/>
        <pt x="231" y="75" on="1"/>
        <pt x="542" y="75" on="1"/>
        <pt x="542" y="144" on="1"/>
        <pt x="612" y="144" on="1"/>
        <pt x="612" y="0" on="1"/>
        <pt x="115" y="0" on="1"/>
        <pt x="115" y="55" on="1"/>
        <pt x="492" y="625" on="1"/>
        <pt x="389" y="625" on="1"/>
        <pt x="217" y="625" on="0"/>
        <pt x="80" y="558" on="0"/>
        <pt x="80" y="486" on="1"/>
        <pt x="80" y="456" on="0"/>
        <pt x="106" y="417" on="0"/>
        <pt x="131" y="417" on="1"/>
        <pt x="178" y="417" on="0"/>
        <pt x="178" y="496" on="1"/>
        <pt x="258" y="496" on="1"/>
        <pt x="258" y="431" on="0"/>
        <pt x="198" y="342" on="0"/>
        <pt x="64" y="342" on="0"/>
        <pt x="0" y="426" on="0"/>
        <pt x="0" y="486" on="1"/>
        <pt x="0" y="584" on="0"/>
        <pt x="186" y="700" on="0"/>
        <pt x="389" y="700" on="1"/>
      </contour>
      <contour>
        <pt x="553" y="902" on="1"/>
        <pt x="417" y="750" on="1"/>
        <pt x="363" y="750" on="1"/>
        <pt x="227" y="902" on="1"/>
        <pt x="266" y="935" on="1"/>
        <pt x="390" y="821" on="1"/>
        <pt x="514" y="935" on="1"/>
      </contour>
    </TTGlyph>
    <TTGlyph name="a" xMin="30" yMin="-10" xMax="512" yMax="510">
      <contour>
        <pt x="177" y="-10" on="1"/>
        <pt x="108" y="-10" on="0"/>
        <pt x="30" y="69" on="0"/>
        <pt x="30" y="202" on="0"/>
        <pt x="134" y="292" on="0"/>
        <pt x="236" y="292" on="1"/>
        <pt x="345" y="292" on="1"/>
        <pt x="345" y="343" on="1"/>
        <pt x="345" y="435" on="0"/>
        <pt x="257" y="435" on="1"/>
        <pt x="183" y="435" on="0"/>
        <pt x="121" y="417" on="1"/>
        <pt x="121" y="350" on="1"/>
        <pt x="51" y="350" on="1"/>
        <pt x="51" y="469" on="1"/>
        <pt x="96" y="488" on="0"/>
        <pt x="219" y="510" on="0"/>
        <pt x="260" y="510" on="1"/>
        <pt x="340" y="510" on="0"/>
        <pt x="430" y="419" on="0"/>
        <pt x="430" y="343" on="1"/>
        <pt x="430" y="60" on="1"/>
        <pt x="512" y="60" on="1"/>
        <pt x="512" y="18" on="1"/>
        <pt x="475" y="-5" on="0"/>
        <pt x="379" y="-5" on="0"/>
        <pt x="345" y="27" on="0"/>
        <pt x="345" y="65" on="1"/>
        <pt x="270" y="-10" on="0"/>
      </contour>
      <contour>
        <pt x="186" y="65" on="1"/>
        <pt x="272" y="65" on="0"/>
        <pt x="345" y="162" on="1"/>
        <pt x="345" y="226" on="1"/>
        <pt x="235" y="226" on="1"/>
        <pt x="174" y="226" on="0"/>
        <pt x="115" y="178" on="0"/>
        <pt x="115" y="105" on="0"/>
        <pt x="151" y="65" on="0"/>
      </contour>
    </TTGlyph>
    <TTGlyph name="aacute" xMin="20" yMin="-10" xMax="502" yMax="768">
      <contour>
        <pt x="370" y="721" on="1"/>
        <pt x="246" y="560" on="1"/>
        <pt x="202" y="586" on="1"/>
        <pt x="299" y="768" on="1"/>
      </contour>
      <contour>
        <pt x="167" y="-10" on="1"/>
        <pt x="98" y="-10" on="0"/>
        <pt x="20" y="69" on="0"/>
        <pt x="20" y="202" on="0"/>
        <pt x="124" y="292" on="0"/>
        <pt x="226" y="292" on="1"/>
        <pt x="335" y="292" on="1"/>
        <pt x="335" y="343" on="1"/>
        <pt x="335" y="435" on="0"/>
        <pt x="247" y="435" on="1"/>
        <pt x="173" y="435" on="0"/>
        <pt x="111" y="417" on="1"/>
        <pt x="111" y="350" on="1"/>
        <pt x="41" y="350" on="1"/>
        <pt x="41" y="469" on="1"/>
        <pt x="86" y="488" on="0"/>
        <pt x="209" y="510" on="0"/>
        <pt x="250" y="510" on="1"/>
        <pt x="330" y="510" on="0"/>
        <pt x="420" y="419" on="0"/>
        <pt x="420" y="343" on="1"/>
        <pt x="420" y="60" on="1"/>
        <pt x="502" y="60" on="1"/>
        <pt x="502" y="18" on="1"/>
        <pt x="465" y="-5" on="0"/>
        <pt x="369" y="-5" on="0"/>
        <pt x="335" y="27" on="0"/>
        <pt x="335" y="65" on="1"/>
        <pt x="260" y="-10" on="0"/>
      </contour>
      <contour>
        <pt x="176" y="65" on="1"/>
        <pt x="262" y="65" on="0"/>
        <pt x="335" y="162" on="1"/>
        <pt x="335" y="226" on="1"/>
        <pt x="225" y="226" on="1"/>
        <pt x="164" y="226" on="0"/>
        <pt x="105" y="178" on="0"/>
        <pt x="105" y="105" on="0"/>
        <pt x="141" y="65" on="0"/>
      </contour>
    </TTGlyph>
    <TTGlyph name="abreve" xMin="20" yMin="-10" xMax="502" yMax="694">
      <contour>
        <pt x="167" y="-10" on="1"/>
        <pt x="98" y="-10" on="0"/>
        <pt x="20" y="69" on="0"/>
        <pt x="20" y="202" on="0"/>
        <pt x="124" y="292" on="0"/>
        <pt x="226" y="292" on="1"/>
        <pt x="335" y="292" on="1"/>
        <pt x="335" y="343" on="1"/>
        <pt x="335" y="435" on="0"/>
        <pt x="247" y="435" on="1"/>
        <pt x="173" y="435" on="0"/>
        <pt x="111" y="417" on="1"/>
        <pt x="111" y="350" on="1"/>
        <pt x="41" y="350" on="1"/>
        <pt x="41" y="469" on="1"/>
        <pt x="86" y="488" on="0"/>
        <pt x="209" y="510" on="0"/>
        <pt x="250" y="510" on="1"/>
        <pt x="330" y="510" on="0"/>
        <pt x="420" y="419" on="0"/>
        <pt x="420" y="343" on="1"/>
        <pt x="420" y="60" on="1"/>
        <pt x="502" y="60" on="1"/>
        <pt x="502" y="18" on="1"/>
        <pt x="465" y="-5" on="0"/>
        <pt x="369" y="-5" on="0"/>
        <pt x="335" y="27" on="0"/>
        <pt x="335" y="65" on="1"/>
        <pt x="260" y="-10" on="0"/>
      </contour>
      <contour>
        <pt x="176" y="65" on="1"/>
        <pt x="262" y="65" on="0"/>
        <pt x="335" y="162" on="1"/>
        <pt x="335" y="226" on="1"/>
        <pt x="225" y="226" on="1"/>
        <pt x="164" y="226" on="0"/>
        <pt x="105" y="178" on="0"/>
        <pt x="105" y="105" on="0"/>
        <pt x="141" y="65" on="0"/>
      </contour>
      <contour>
        <pt x="339" y="550" on="0"/>
        <pt x="153" y="550" on="0"/>
        <pt x="73" y="664" on="1"/>
        <pt x="117" y="694" on="1"/>
        <pt x="174" y="625" on="0"/>
        <pt x="223" y="615" on="1"/>
        <pt x="233" y="613" on="0"/>
        <pt x="259" y="613" on="0"/>
        <pt x="279" y="617" on="0"/>
        <pt x="296" y="624" on="1"/>
        <pt x="329" y="638" on="0"/>
        <pt x="375" y="694" on="1"/>
        <pt x="419" y="664" on="1"/>
      </contour>
    </TTGlyph>
    <TTGlyph name="acircumflex" xMin="20" yMin="-10" xMax="502" yMax="735">
      <contour>
        <pt x="273" y="735" on="1"/>
        <pt x="409" y="583" on="1"/>
        <pt x="370" y="550" on="1"/>
        <pt x="246" y="664" on="1"/>
        <pt x="122" y="550" on="1"/>
        <pt x="83" y="583" on="1"/>
        <pt x="219" y="735" on="1"/>
      </contour>
      <contour>
        <pt x="167" y="-10" on="1"/>
        <pt x="98" y="-10" on="0"/>
        <pt x="20" y="69" on="0"/>
        <pt x="20" y="202" on="0"/>
        <pt x="124" y="292" on="0"/>
        <pt x="226" y="292" on="1"/>
        <pt x="335" y="292" on="1"/>
        <pt x="335" y="343" on="1"/>
        <pt x="335" y="435" on="0"/>
        <pt x="247" y="435" on="1"/>
        <pt x="173" y="435" on="0"/>
        <pt x="111" y="417" on="1"/>
        <pt x="111" y="350" on="1"/>
        <pt x="41" y="350" on="1"/>
        <pt x="41" y="469" on="1"/>
        <pt x="86" y="488" on="0"/>
        <pt x="209" y="510" on="0"/>
        <pt x="250" y="510" on="1"/>
        <pt x="330" y="510" on="0"/>
        <pt x="420" y="419" on="0"/>
        <pt x="420" y="343" on="1"/>
        <pt x="420" y="60" on="1"/>
        <pt x="502" y="60" on="1"/>
        <pt x="502" y="18" on="1"/>
        <pt x="465" y="-5" on="0"/>
        <pt x="369" y="-5" on="0"/>
        <pt x="335" y="27" on="0"/>
        <pt x="335" y="65" on="1"/>
        <pt x="260" y="-10" on="0"/>
      </contour>
      <contour>
        <pt x="176" y="65" on="1"/>
        <pt x="262" y="65" on="0"/>
        <pt x="335" y="162" on="1"/>
        <pt x="335" y="226" on="1"/>
        <pt x="225" y="226" on="1"/>
        <pt x="164" y="226" on="0"/>
        <pt x="105" y="178" on="0"/>
        <pt x="105" y="105" on="0"/>
        <pt x="141" y="65" on="0"/>
      </contour>
    </TTGlyph>
    <TTGlyph name="acute" xMin="44" yMin="760" xMax="212" yMax="968">
      <contour>
        <pt x="212" y="921" on="1"/>
        <pt x="88" y="760" on="1"/>
        <pt x="44" y="786" on="1"/>
        <pt x="141" y="968" on="1"/>
      </contour>
    </TTGlyph>
    <TTGlyph name="adieresis" xMin="20" yMin="-10" xMax="502" yMax="695">
      <contour>
        <pt x="102" y="626" on="0"/>
        <pt x="102" y="666" on="0"/>
        <pt x="130" y="695" on="0"/>
        <pt x="170" y="695" on="0"/>
        <pt x="199" y="666" on="0"/>
        <pt x="199" y="626" on="0"/>
        <pt x="170" y="598" on="0"/>
        <pt x="130" y="598" on="0"/>
      </contour>
      <contour>
        <pt x="293" y="626" on="0"/>
        <pt x="293" y="666" on="0"/>
        <pt x="321" y="695" on="0"/>
        <pt x="361" y="695" on="0"/>
        <pt x="390" y="666" on="0"/>
        <pt x="390" y="626" on="0"/>
        <pt x="361" y="598" on="0"/>
        <pt x="322" y="598" on="0"/>
      </contour>
      <contour>
        <pt x="167" y="-10" on="1"/>
        <pt x="98" y="-10" on="0"/>
        <pt x="20" y="69" on="0"/>
        <pt x="20" y="202" on="0"/>
        <pt x="124" y="292" on="0"/>
        <pt x="226" y="292" on="1"/>
        <pt x="335" y="292" on="1"/>
        <pt x="335" y="343" on="1"/>
        <pt x="335" y="435" on="0"/>
        <pt x="247" y="435" on="1"/>
        <pt x="173" y="435" on="0"/>
        <pt x="111" y="417" on="1"/>
        <pt x="111" y="350" on="1"/>
        <pt x="41" y="350" on="1"/>
        <pt x="41" y="469" on="1"/>
        <pt x="86" y="488" on="0"/>
        <pt x="209" y="510" on="0"/>
        <pt x="250" y="510" on="1"/>
        <pt x="330" y="510" on="0"/>
        <pt x="420" y="419" on="0"/>
        <pt x="420" y="343" on="1"/>
        <pt x="420" y="60" on="1"/>
        <pt x="502" y="60" on="1"/>
        <pt x="502" y="18" on="1"/>
        <pt x="465" y="-5" on="0"/>
        <pt x="369" y="-5" on="0"/>
        <pt x="335" y="27" on="0"/>
        <pt x="335" y="65" on="1"/>
        <pt x="260" y="-10" on="0"/>
      </contour>
      <contour>
        <pt x="176" y="65" on="1"/>
        <pt x="262" y="65" on="0"/>
        <pt x="335" y="162" on="1"/>
        <pt x="335" y="226" on="1"/>
        <pt x="225" y="226" on="1"/>
        <pt x="164" y="226" on="0"/>
        <pt x="105" y="178" on="0"/>
        <pt x="105" y="105" on="0"/>
        <pt x="141" y="65" on="0"/>
      </contour>
    </TTGlyph>
    <TTGlyph name="ae" xMin="30" yMin="-10" xMax="783" yMax="510">
      <contour>
        <pt x="783" y="284" on="1"/>
        <pt x="783" y="231" on="1"/>
        <pt x="430" y="231" on="1"/>
        <pt x="435" y="158" on="0"/>
        <pt x="511" y="65" on="0"/>
        <pt x="575" y="65" on="1"/>
        <pt x="617" y="65" on="0"/>
        <pt x="684" y="83" on="0"/>
        <pt x="710" y="98" on="0"/>
        <pt x="733" y="113" on="1"/>
        <pt x="770" y="57" on="1"/>
        <pt x="694" y="-10" on="0"/>
        <pt x="453" y="-10" on="0"/>
        <pt x="391" y="82" on="1"/>
        <pt x="299" y="-10" on="0"/>
        <pt x="177" y="-10" on="1"/>
        <pt x="108" y="-10" on="0"/>
        <pt x="30" y="69" on="0"/>
        <pt x="30" y="202" on="0"/>
        <pt x="134" y="291" on="0"/>
        <pt x="236" y="291" on="1"/>
        <pt x="345" y="291" on="1"/>
        <pt x="345" y="343" on="1"/>
        <pt x="345" y="435" on="0"/>
        <pt x="257" y="435" on="1"/>
        <pt x="183" y="435" on="0"/>
        <pt x="121" y="417" on="1"/>
        <pt x="121" y="350" on="1"/>
        <pt x="51" y="350" on="1"/>
        <pt x="51" y="469" on="1"/>
        <pt x="96" y="488" on="0"/>
        <pt x="219" y="510" on="0"/>
        <pt x="260" y="510" on="1"/>
        <pt x="362" y="510" on="0"/>
        <pt x="406" y="437" on="1"/>
        <pt x="469" y="510" on="0"/>
        <pt x="675" y="510" on="0"/>
        <pt x="783" y="384" on="0"/>
      </contour>
      <contour>
        <pt x="186" y="65" on="1"/>
        <pt x="285" y="65" on="0"/>
        <pt x="362" y="142" on="1"/>
        <pt x="348" y="183" on="0"/>
        <pt x="345" y="225" on="1"/>
        <pt x="235" y="225" on="1"/>
        <pt x="173" y="225" on="0"/>
        <pt x="115" y="178" on="0"/>
        <pt x="115" y="105" on="0"/>
        <pt x="151" y="65" on="0"/>
      </contour>
      <contour>
        <pt x="692" y="363" on="0"/>
        <pt x="631" y="435" on="0"/>
        <pt x="518" y="435" on="0"/>
        <pt x="446" y="362" on="0"/>
        <pt x="434" y="302" on="1"/>
        <pt x="698" y="302" on="1"/>
      </contour>
    </TTGlyph>
    <TTGlyph name="agrave" xMin="20" yMin="-10" xMax="502" yMax="768">
      <contour>
        <pt x="167" y="-10" on="1"/>
        <pt x="98" y="-10" on="0"/>
        <pt x="20" y="69" on="0"/>
        <pt x="20" y="202" on="0"/>
        <pt x="124" y="292" on="0"/>
        <pt x="226" y="292" on="1"/>
        <pt x="335" y="292" on="1"/>
        <pt x="335" y="343" on="1"/>
        <pt x="335" y="435" on="0"/>
        <pt x="247" y="435" on="1"/>
        <pt x="173" y="435" on="0"/>
        <pt x="111" y="417" on="1"/>
        <pt x="111" y="350" on="1"/>
        <pt x="41" y="350" on="1"/>
        <pt x="41" y="469" on="1"/>
        <pt x="86" y="488" on="0"/>
        <pt x="209" y="510" on="0"/>
        <pt x="250" y="510" on="1"/>
        <pt x="330" y="510" on="0"/>
        <pt x="420" y="419" on="0"/>
        <pt x="420" y="343" on="1"/>
        <pt x="420" y="60" on="1"/>
        <pt x="502" y="60" on="1"/>
        <pt x="502" y="18" on="1"/>
        <pt x="465" y="-5" on="0"/>
        <pt x="369" y="-5" on="0"/>
        <pt x="335" y="27" on="0"/>
        <pt x="335" y="65" on="1"/>
        <pt x="260" y="-10" on="0"/>
      </contour>
      <contour>
        <pt x="176" y="65" on="1"/>
        <pt x="262" y="65" on="0"/>
        <pt x="335" y="162" on="1"/>
        <pt x="335" y="226" on="1"/>
        <pt x="225" y="226" on="1"/>
        <pt x="164" y="226" on="0"/>
        <pt x="105" y="178" on="0"/>
        <pt x="105" y="105" on="0"/>
        <pt x="141" y="65" on="0"/>
      </contour>
      <contour>
        <pt x="268" y="560" on="1"/>
        <pt x="144" y="721" on="1"/>
        <pt x="215" y="768" on="1"/>
        <pt x="312" y="586" on="1"/>
      </contour>
    </TTGlyph>
    <TTGlyph name="ampersand" xMin="31" yMin="-54" xMax="684" yMax="722">
      <contour>
        <pt x="31" y="183" on="1"/>
        <pt x="31" y="251" on="0"/>
        <pt x="101" y="346" on="0"/>
        <pt x="178" y="401" on="1"/>
        <pt x="119" y="501" on="0"/>
        <pt x="119" y="635" on="0"/>
        <pt x="205" y="722" on="0"/>
        <pt x="360" y="722" on="0"/>
        <pt x="440" y="637" on="0"/>
        <pt x="440" y="513" on="0"/>
        <pt x="369" y="431" on="0"/>
        <pt x="288" y="377" on="1"/>
        <pt x="365" y="263" on="0"/>
        <pt x="467" y="164" on="1"/>
        <pt x="544" y="248" on="0"/>
        <pt x="544" y="336" on="1"/>
        <pt x="482" y="336" on="1"/>
        <pt x="482" y="409" on="1"/>
        <pt x="684" y="409" on="1"/>
        <pt x="684" y="336" on="1"/>
        <pt x="625" y="336" on="1"/>
        <pt x="625" y="282" on="0"/>
        <pt x="573" y="161" on="0"/>
        <pt x="527" y="110" on="1"/>
        <pt x="601" y="47" on="0"/>
        <pt x="672" y="16" on="1"/>
        <pt x="634" y="-54" on="1"/>
        <pt x="557" y="-13" on="0"/>
        <pt x="472" y="59" on="1"/>
        <pt x="376" y="-12" on="0"/>
        <pt x="256" y="-12" on="1"/>
        <pt x="157" y="-12" on="0"/>
        <pt x="31" y="87" on="0"/>
      </contour>
      <contour>
        <pt x="116" y="126" on="0"/>
        <pt x="198" y="62" on="0"/>
        <pt x="335" y="62" on="0"/>
        <pt x="411" y="115" on="1"/>
        <pt x="303" y="220" on="0"/>
        <pt x="223" y="333" on="1"/>
        <pt x="166" y="291" on="0"/>
        <pt x="116" y="225" on="0"/>
      </contour>
      <contour>
        <pt x="243" y="651" on="0"/>
        <pt x="204" y="605" on="0"/>
        <pt x="204" y="523" on="0"/>
        <pt x="245" y="446" on="1"/>
        <pt x="308" y="486" on="0"/>
        <pt x="355" y="537" on="0"/>
        <pt x="355" y="574" on="1"/>
        <pt x="355" y="651" on="0"/>
        <pt x="282" y="651" on="1"/>
      </contour>
    </TTGlyph>
    <TTGlyph name="aring" xMin="20" yMin="-10" xMax="502" yMax="760">
      <contour>
        <pt x="352" y="610" on="0"/>
        <pt x="291" y="550" on="0"/>
        <pt x="200" y="550" on="0"/>
        <pt x="137" y="611" on="0"/>
        <pt x="137" y="697" on="0"/>
        <pt x="201" y="760" on="0"/>
        <pt x="291" y="760" on="0"/>
        <pt x="352" y="698" on="0"/>
      </contour>
      <contour>
        <pt x="197" y="634" on="0"/>
        <pt x="224" y="605" on="0"/>
        <pt x="267" y="605" on="0"/>
        <pt x="292" y="633" on="0"/>
        <pt x="292" y="676" on="0"/>
        <pt x="267" y="705" on="0"/>
        <pt x="224" y="705" on="0"/>
        <pt x="197" y="675" on="0"/>
      </contour>
      <contour>
        <pt x="167" y="-10" on="1"/>
        <pt x="98" y="-10" on="0"/>
        <pt x="20" y="69" on="0"/>
        <pt x="20" y="202" on="0"/>
        <pt x="124" y="292" on="0"/>
        <pt x="226" y="292" on="1"/>
        <pt x="335" y="292" on="1"/>
        <pt x="335" y="343" on="1"/>
        <pt x="335" y="435" on="0"/>
        <pt x="247" y="435" on="1"/>
        <pt x="173" y="435" on="0"/>
        <pt x="111" y="417" on="1"/>
        <pt x="111" y="350" on="1"/>
        <pt x="41" y="350" on="1"/>
        <pt x="41" y="469" on="1"/>
        <pt x="86" y="488" on="0"/>
        <pt x="209" y="510" on="0"/>
        <pt x="250" y="510" on="1"/>
        <pt x="330" y="510" on="0"/>
        <pt x="420" y="419" on="0"/>
        <pt x="420" y="343" on="1"/>
        <pt x="420" y="60" on="1"/>
        <pt x="502" y="60" on="1"/>
        <pt x="502" y="18" on="1"/>
        <pt x="465" y="-5" on="0"/>
        <pt x="369" y="-5" on="0"/>
        <pt x="335" y="27" on="0"/>
        <pt x="335" y="65" on="1"/>
        <pt x="260" y="-10" on="0"/>
      </contour>
      <contour>
        <pt x="176" y="65" on="1"/>
        <pt x="262" y="65" on="0"/>
        <pt x="335" y="162" on="1"/>
        <pt x="335" y="226" on="1"/>
        <pt x="225" y="226" on="1"/>
        <pt x="164" y="226" on="0"/>
        <pt x="105" y="178" on="0"/>
        <pt x="105" y="105" on="0"/>
        <pt x="141" y="65" on="0"/>
      </contour>
    </TTGlyph>
    <TTGlyph name="asciicircum" xMin="13" yMin="425" xMax="376" yMax="700">
      <contour>
        <pt x="221" y="700" on="1"/>
        <pt x="376" y="425" on="1"/>
        <pt x="313" y="425" on="1"/>
        <pt x="194" y="629" on="1"/>
        <pt x="75" y="425" on="1"/>
        <pt x="13" y="425" on="1"/>
        <pt x="167" y="700" on="1"/>
      </contour>
    </TTGlyph>
    <TTGlyph name="asciitilde" xMin="30" yMin="230" xMax="425" yMax="333">
      <contour>
        <pt x="151" y="333" on="1"/>
        <pt x="190" y="333" on="0"/>
        <pt x="300" y="298" on="0"/>
        <pt x="315" y="294" on="1"/>
        <pt x="393" y="333" on="1"/>
        <pt x="425" y="309" on="1"/>
        <pt x="390" y="230" on="0"/>
        <pt x="314" y="230" on="1"/>
        <pt x="275" y="230" on="0"/>
        <pt x="165" y="265" on="0"/>
        <pt x="150" y="269" on="1"/>
        <pt x="62" y="230" on="1"/>
        <pt x="30" y="254" on="1"/>
        <pt x="69" y="333" on="0"/>
      </contour>
    </TTGlyph>
    <TTGlyph name="asterisk" xMin="49" yMin="410" xMax="343" yMax="690">
      <contour>
        <pt x="238" y="690" on="1"/>
        <pt x="215" y="577" on="1"/>
        <pt x="316" y="631" on="1"/>
        <pt x="343" y="552" on="1"/>
        <pt x="225" y="538" on="1"/>
        <pt x="309" y="459" on="1"/>
        <pt x="244" y="410" on="1"/>
        <pt x="194" y="516" on="1"/>
        <pt x="145" y="411" on="1"/>
        <pt x="78" y="459" on="1"/>
        <pt x="162" y="539" on="1"/>
        <pt x="49" y="554" on="1"/>
        <pt x="75" y="634" on="1"/>
        <pt x="176" y="577" on="1"/>
        <pt x="153" y="690" on="1"/>
      </contour>
    </TTGlyph>
    <TTGlyph name="at" xMin="50" yMin="-203" xMax="1059" yMax="903">
      <contour>
        <pt x="723" y="455" on="1"/>
        <pt x="723" y="402" on="0"/>
        <pt x="751" y="402" on="1"/>
        <pt x="775" y="402" on="0"/>
        <pt x="802" y="463" on="0"/>
        <pt x="802" y="497" on="1"/>
        <pt x="802" y="579" on="0"/>
        <pt x="658" y="677" on="0"/>
        <pt x="547" y="677" on="1"/>
        <pt x="468" y="677" on="0"/>
        <pt x="319" y="614" on="0"/>
        <pt x="202" y="501" on="0"/>
        <pt x="131" y="328" on="0"/>
        <pt x="131" y="227" on="1"/>
        <pt x="131" y="66" on="0"/>
        <pt x="301" y="-123" on="0"/>
        <pt x="614" y="-123" on="0"/>
        <pt x="852" y="35" on="0"/>
        <pt x="977" y="294" on="0"/>
        <pt x="977" y="450" on="1"/>
        <pt x="977" y="631" on="0"/>
        <pt x="801" y="823" on="0"/>
        <pt x="632" y="823" on="1"/>
        <pt x="645" y="903" on="1"/>
        <pt x="842" y="903" on="0"/>
        <pt x="1059" y="653" on="0"/>
        <pt x="1059" y="451" on="1"/>
        <pt x="1059" y="324" on="0"/>
        <pt x="970" y="87" on="0"/>
        <pt x="815" y="-94" on="0"/>
        <pt x="587" y="-203" on="0"/>
        <pt x="457" y="-203" on="1"/>
        <pt x="264" y="-203" on="0"/>
        <pt x="50" y="25" on="0"/>
        <pt x="50" y="220" on="1"/>
        <pt x="50" y="320" on="0"/>
        <pt x="109" y="496" on="0"/>
        <pt x="208" y="621" on="0"/>
        <pt x="272" y="666" on="1"/>
        <pt x="399" y="757" on="0"/>
        <pt x="693" y="757" on="0"/>
        <pt x="883" y="621" on="0"/>
        <pt x="883" y="508" on="1"/>
        <pt x="883" y="439" on="0"/>
        <pt x="808" y="322" on="0"/>
        <pt x="742" y="322" on="1"/>
        <pt x="716" y="322" on="0"/>
        <pt x="700" y="331" on="1"/>
        <pt x="664" y="98" on="1"/>
        <pt x="740" y="98" on="1"/>
        <pt x="734" y="60" on="1"/>
        <pt x="698" y="39" on="0"/>
        <pt x="613" y="39" on="0"/>
        <pt x="585" y="60" on="0"/>
        <pt x="585" y="85" on="1"/>
        <pt x="585" y="93" on="1"/>
        <pt x="520" y="34" on="0"/>
        <pt x="364" y="34" on="0"/>
        <pt x="291" y="131" on="0"/>
        <pt x="291" y="216" on="1"/>
        <pt x="291" y="340" on="0"/>
        <pt x="435" y="513" on="0"/>
        <pt x="564" y="513" on="1"/>
        <pt x="638" y="513" on="0"/>
        <pt x="725" y="485" on="1"/>
        <pt x="723" y="465" on="0"/>
      </contour>
      <contour>
        <pt x="370" y="229" on="1"/>
        <pt x="370" y="103" on="0"/>
        <pt x="466" y="103" on="1"/>
        <pt x="517" y="103" on="0"/>
        <pt x="596" y="188" on="0"/>
        <pt x="610" y="251" on="1"/>
        <pt x="638" y="427" on="1"/>
        <pt x="598" y="444" on="0"/>
        <pt x="556" y="444" on="1"/>
        <pt x="468" y="444" on="0"/>
        <pt x="370" y="318" on="0"/>
      </contour>
    </TTGlyph>
    <TTGlyph name="atilde" xMin="20" yMin="-10" xMax="502" yMax="685">
      <contour>
        <pt x="186" y="685" on="1"/>
        <pt x="216" y="685" on="0"/>
        <pt x="297" y="650" on="0"/>
        <pt x="310" y="646" on="1"/>
        <pt x="368" y="685" on="1"/>
        <pt x="400" y="661" on="1"/>
        <pt x="371" y="582" on="0"/>
        <pt x="309" y="582" on="1"/>
        <pt x="279" y="582" on="0"/>
        <pt x="198" y="617" on="0"/>
        <pt x="185" y="621" on="1"/>
        <pt x="127" y="582" on="1"/>
        <pt x="95" y="606" on="1"/>
        <pt x="124" y="685" on="0"/>
      </contour>
      <contour>
        <pt x="167" y="-10" on="1"/>
        <pt x="98" y="-10" on="0"/>
        <pt x="20" y="69" on="0"/>
        <pt x="20" y="202" on="0"/>
        <pt x="124" y="292" on="0"/>
        <pt x="226" y="292" on="1"/>
        <pt x="335" y="292" on="1"/>
        <pt x="335" y="343" on="1"/>
        <pt x="335" y="435" on="0"/>
        <pt x="247" y="435" on="1"/>
        <pt x="173" y="435" on="0"/>
        <pt x="111" y="417" on="1"/>
        <pt x="111" y="350" on="1"/>
        <pt x="41" y="350" on="1"/>
        <pt x="41" y="469" on="1"/>
        <pt x="86" y="488" on="0"/>
        <pt x="209" y="510" on="0"/>
        <pt x="250" y="510" on="1"/>
        <pt x="330" y="510" on="0"/>
        <pt x="420" y="419" on="0"/>
        <pt x="420" y="343" on="1"/>
        <pt x="420" y="60" on="1"/>
        <pt x="502" y="60" on="1"/>
        <pt x="502" y="18" on="1"/>
        <pt x="465" y="-5" on="0"/>
        <pt x="369" y="-5" on="0"/>
        <pt x="335" y="27" on="0"/>
        <pt x="335" y="65" on="1"/>
        <pt x="260" y="-10" on="0"/>
      </contour>
      <contour>
        <pt x="176" y="65" on="1"/>
        <pt x="262" y="65" on="0"/>
        <pt x="335" y="162" on="1"/>
        <pt x="335" y="226" on="1"/>
        <pt x="225" y="226" on="1"/>
        <pt x="164" y="226" on="0"/>
        <pt x="105" y="178" on="0"/>
        <pt x="105" y="105" on="0"/>
        <pt x="141" y="65" on="0"/>
      </contour>
    </TTGlyph>
    <TTGlyph name="b" xMin="10" yMin="-10" xMax="517" yMax="750">
      <contour>
        <pt x="87" y="685" on="1"/>
        <pt x="10" y="685" on="1"/>
        <pt x="10" y="750" on="1"/>
        <pt x="172" y="750" on="1"/>
        <pt x="172" y="445" on="1"/>
        <pt x="231" y="510" on="0"/>
        <pt x="416" y="510" on="0"/>
        <pt x="517" y="363" on="0"/>
        <pt x="517" y="136" on="0"/>
        <pt x="391" y="-10" on="0"/>
        <pt x="271" y="-10" on="1"/>
        <pt x="184" y="-10" on="0"/>
        <pt x="87" y="20" on="1"/>
      </contour>
      <contour>
        <pt x="367" y="435" on="0"/>
        <pt x="247" y="435" on="0"/>
        <pt x="172" y="341" on="0"/>
        <pt x="172" y="275" on="1"/>
        <pt x="172" y="82" on="1"/>
        <pt x="223" y="65" on="0"/>
        <pt x="263" y="65" on="1"/>
        <pt x="346" y="65" on="0"/>
        <pt x="432" y="167" on="0"/>
        <pt x="432" y="327" on="0"/>
      </contour>
    </TTGlyph>
    <TTGlyph name="backslash" xMin="10" yMin="-30" xMax="365" yMax="700">
      <contour>
        <pt x="75" y="700" on="1"/>
        <pt x="365" y="-30" on="1"/>
        <pt x="300" y="-30" on="1"/>
        <pt x="10" y="700" on="1"/>
      </contour>
    </TTGlyph>
    <TTGlyph name="bar" xMin="80" yMin="-160" xMax="145" yMax="750">
      <contour>
        <pt x="145" y="750" on="1"/>
        <pt x="145" y="-160" on="1"/>
        <pt x="80" y="-160" on="1"/>
        <pt x="80" y="750" on="1"/>
      </contour>
    </TTGlyph>
    <TTGlyph name="braceleft" xMin="12" yMin="-200" xMax="241" yMax="795">
      <contour>
        <pt x="78" y="-70" on="1"/>
        <pt x="78" y="210" on="1"/>
        <pt x="78" y="299" on="0"/>
        <pt x="12" y="318" on="1"/>
        <pt x="12" y="362" on="1"/>
        <pt x="78" y="381" on="0"/>
        <pt x="78" y="470" on="1"/>
        <pt x="78" y="665" on="1"/>
        <pt x="78" y="733" on="0"/>
        <pt x="140" y="795" on="0"/>
        <pt x="208" y="795" on="1"/>
        <pt x="241" y="795" on="1"/>
        <pt x="241" y="730" on="1"/>
        <pt x="203" y="730" on="1"/>
        <pt x="177" y="730" on="0"/>
        <pt x="153" y="706" on="0"/>
        <pt x="153" y="680" on="1"/>
        <pt x="153" y="480" on="1"/>
        <pt x="153" y="400" on="0"/>
        <pt x="124" y="367" on="1"/>
        <pt x="109" y="351" on="0"/>
        <pt x="87" y="340" on="1"/>
        <pt x="129" y="319" on="0"/>
        <pt x="153" y="242" on="0"/>
        <pt x="153" y="190" on="1"/>
        <pt x="153" y="-75" on="1"/>
        <pt x="153" y="-135" on="0"/>
        <pt x="203" y="-135" on="1"/>
        <pt x="241" y="-135" on="1"/>
        <pt x="241" y="-200" on="1"/>
        <pt x="208" y="-200" on="1"/>
        <pt x="140" y="-200" on="0"/>
        <pt x="78" y="-138" on="0"/>
      </contour>
    </TTGlyph>
    <TTGlyph name="braceright" xMin="12" yMin="-200" xMax="241" yMax="795">
      <contour>
        <pt x="175" y="210" on="1"/>
        <pt x="175" y="-70" on="1"/>
        <pt x="175" y="-138" on="0"/>
        <pt x="113" y="-200" on="0"/>
        <pt x="45" y="-200" on="1"/>
        <pt x="12" y="-200" on="1"/>
        <pt x="12" y="-135" on="1"/>
        <pt x="50" y="-135" on="1"/>
        <pt x="100" y="-135" on="0"/>
        <pt x="100" y="-75" on="1"/>
        <pt x="100" y="190" on="1"/>
        <pt x="100" y="276" on="0"/>
        <pt x="130" y="312" on="1"/>
        <pt x="144" y="329" on="0"/>
        <pt x="166" y="340" on="1"/>
        <pt x="121" y="363" on="0"/>
        <pt x="109" y="404" on="1"/>
        <pt x="100" y="437" on="0"/>
        <pt x="100" y="480" on="1"/>
        <pt x="100" y="680" on="1"/>
        <pt x="100" y="706" on="0"/>
        <pt x="76" y="730" on="0"/>
        <pt x="50" y="730" on="1"/>
        <pt x="12" y="730" on="1"/>
        <pt x="12" y="795" on="1"/>
        <pt x="45" y="795" on="1"/>
        <pt x="113" y="795" on="0"/>
        <pt x="175" y="733" on="0"/>
        <pt x="175" y="665" on="1"/>
        <pt x="175" y="470" on="1"/>
        <pt x="175" y="381" on="0"/>
        <pt x="241" y="362" on="1"/>
        <pt x="241" y="318" on="1"/>
        <pt x="175" y="299" on="0"/>
      </contour>
    </TTGlyph>
    <TTGlyph name="bracketleft" xMin="40" yMin="-200" xMax="203" yMax="795">
      <contour>
        <pt x="203" y="795" on="1"/>
        <pt x="203" y="730" on="1"/>
        <pt x="115" y="730" on="1"/>
        <pt x="115" y="-135" on="1"/>
        <pt x="203" y="-135" on="1"/>
        <pt x="203" y="-200" on="1"/>
        <pt x="40" y="-200" on="1"/>
        <pt x="40" y="795" on="1"/>
      </contour>
    </TTGlyph>
    <TTGlyph name="bracketright" xMin="40" yMin="-200" xMax="203" yMax="795">
      <contour>
        <pt x="40" y="730" on="1"/>
        <pt x="40" y="795" on="1"/>
        <pt x="203" y="795" on="1"/>
        <pt x="203" y="-200" on="1"/>
        <pt x="40" y="-200" on="1"/>
        <pt x="40" y="-135" on="1"/>
        <pt x="128" y="-135" on="1"/>
        <pt x="128" y="730" on="1"/>
      </contour>
    </TTGlyph>
    <TTGlyph name="breve" xMin="82" yMin="750" xMax="428" yMax="894">
      <contour>
        <pt x="348" y="750" on="0"/>
        <pt x="162" y="750" on="0"/>
        <pt x="82" y="864" on="1"/>
        <pt x="126" y="894" on="1"/>
        <pt x="183" y="825" on="0"/>
        <pt x="232" y="815" on="1"/>
        <pt x="242" y="813" on="0"/>
        <pt x="268" y="813" on="0"/>
        <pt x="288" y="817" on="0"/>
        <pt x="304" y="824" on="1"/>
        <pt x="338" y="838" on="0"/>
        <pt x="384" y="894" on="1"/>
        <pt x="428" y="864" on="1"/>
      </contour>
    </TTGlyph>
    <TTGlyph name="brokenbar" xMin="80" yMin="-160" xMax="145" yMax="750">
      <contour>
        <pt x="145" y="240" on="1"/>
        <pt x="145" y="-160" on="1"/>
        <pt x="80" y="-160" on="1"/>
        <pt x="80" y="240" on="1"/>
      </contour>
      <contour>
        <pt x="145" y="750" on="1"/>
        <pt x="145" y="350" on="1"/>
        <pt x="80" y="350" on="1"/>
        <pt x="80" y="750" on="1"/>
      </contour>
    </TTGlyph>
    <TTGlyph name="bullet" xMin="70" yMin="200" xMax="290" yMax="420">
      <contour>
        <pt x="134" y="200" on="0"/>
        <pt x="70" y="264" on="0"/>
        <pt x="70" y="355" on="0"/>
        <pt x="134" y="420" on="0"/>
        <pt x="225" y="420" on="0"/>
        <pt x="290" y="355" on="0"/>
        <pt x="290" y="264" on="0"/>
        <pt x="225" y="200" on="0"/>
      </contour>
    </TTGlyph>
    <TTGlyph name="c" xMin="35" yMin="-10" xMax="450" yMax="510">
      <contour>
        <pt x="35" y="363" on="0"/>
        <pt x="156" y="510" on="0"/>
        <pt x="358" y="510" on="0"/>
        <pt x="426" y="469" on="1"/>
        <pt x="426" y="350" on="1"/>
        <pt x="356" y="350" on="1"/>
        <pt x="356" y="417" on="1"/>
        <pt x="313" y="435" on="0"/>
        <pt x="265" y="435" on="1"/>
        <pt x="196" y="435" on="0"/>
        <pt x="120" y="331" on="0"/>
        <pt x="120" y="169" on="0"/>
        <pt x="196" y="65" on="0"/>
        <pt x="265" y="65" on="1"/>
        <pt x="304" y="65" on="0"/>
        <pt x="368" y="84" on="0"/>
        <pt x="390" y="97" on="0"/>
        <pt x="413" y="113" on="1"/>
        <pt x="450" y="57" on="1"/>
        <pt x="379" y="-10" on="0"/>
        <pt x="156" y="-10" on="0"/>
        <pt x="35" y="137" on="0"/>
      </contour>
    </TTGlyph>
    <TTGlyph name="cacute" xMin="35" yMin="-10" xMax="450" yMax="768">
      <contour>
        <pt x="35" y="363" on="0"/>
        <pt x="156" y="510" on="0"/>
        <pt x="358" y="510" on="0"/>
        <pt x="426" y="469" on="1"/>
        <pt x="426" y="350" on="1"/>
        <pt x="356" y="350" on="1"/>
        <pt x="356" y="417" on="1"/>
        <pt x="313" y="435" on="0"/>
        <pt x="265" y="435" on="1"/>
        <pt x="196" y="435" on="0"/>
        <pt x="120" y="331" on="0"/>
        <pt x="120" y="169" on="0"/>
        <pt x="196" y="65" on="0"/>
        <pt x="265" y="65" on="1"/>
        <pt x="338" y="65" on="0"/>
        <pt x="380" y="90" on="1"/>
        <pt x="394" y="98" on="0"/>
        <pt x="413" y="113" on="1"/>
        <pt x="450" y="57" on="1"/>
        <pt x="379" y="-10" on="0"/>
        <pt x="156" y="-10" on="0"/>
        <pt x="35" y="137" on="0"/>
      </contour>
      <contour>
        <pt x="389" y="721" on="1"/>
        <pt x="265" y="560" on="1"/>
        <pt x="221" y="586" on="1"/>
        <pt x="318" y="768" on="1"/>
      </contour>
    </TTGlyph>
    <TTGlyph name="caron" xMin="87" yMin="750" xMax="413" yMax="935">
      <contour>
        <pt x="413" y="902" on="1"/>
        <pt x="277" y="750" on="1"/>
        <pt x="223" y="750" on="1"/>
        <pt x="87" y="902" on="1"/>
        <pt x="126" y="935" on="1"/>
        <pt x="250" y="821" on="1"/>
        <pt x="374" y="935" on="1"/>
      </contour>
    </TTGlyph>
    <TTGlyph name="ccaron" xMin="35" yMin="-10" xMax="450" yMax="735">
      <contour>
        <pt x="35" y="363" on="0"/>
        <pt x="156" y="510" on="0"/>
        <pt x="358" y="510" on="0"/>
        <pt x="426" y="469" on="1"/>
        <pt x="426" y="350" on="1"/>
        <pt x="356" y="350" on="1"/>
        <pt x="356" y="417" on="1"/>
        <pt x="313" y="435" on="0"/>
        <pt x="265" y="435" on="1"/>
        <pt x="196" y="435" on="0"/>
        <pt x="120" y="331" on="0"/>
        <pt x="120" y="169" on="0"/>
        <pt x="196" y="65" on="0"/>
        <pt x="265" y="65" on="1"/>
        <pt x="304" y="65" on="0"/>
        <pt x="366" y="82" on="0"/>
        <pt x="393" y="98" on="0"/>
        <pt x="413" y="113" on="1"/>
        <pt x="450" y="57" on="1"/>
        <pt x="379" y="-10" on="0"/>
        <pt x="156" y="-10" on="0"/>
        <pt x="35" y="137" on="0"/>
      </contour>
      <contour>
        <pt x="428" y="702" on="1"/>
        <pt x="292" y="550" on="1"/>
        <pt x="238" y="550" on="1"/>
        <pt x="102" y="702" on="1"/>
        <pt x="141" y="735" on="1"/>
        <pt x="265" y="621" on="1"/>
        <pt x="389" y="735" on="1"/>
      </contour>
    </TTGlyph>
    <TTGlyph name="ccedilla" xMin="35" yMin="-260" xMax="450" yMax="510">
      <contour>
        <pt x="156" y="510" on="0"/>
        <pt x="35" y="363" on="0"/>
        <pt x="35" y="137" on="0"/>
        <pt x="156" y="-10" on="0"/>
        <pt x="379" y="-10" on="0"/>
        <pt x="450" y="57" on="1"/>
        <pt x="413" y="113" on="1"/>
        <pt x="394" y="98" on="0"/>
        <pt x="380" y="90" on="1"/>
        <pt x="338" y="65" on="0"/>
        <pt x="265" y="65" on="1"/>
        <pt x="196" y="65" on="0"/>
        <pt x="120" y="169" on="0"/>
        <pt x="120" y="331" on="0"/>
        <pt x="196" y="435" on="0"/>
        <pt x="265" y="435" on="1"/>
        <pt x="313" y="435" on="0"/>
        <pt x="356" y="417" on="1"/>
        <pt x="356" y="350" on="1"/>
        <pt x="426" y="350" on="1"/>
        <pt x="426" y="469" on="1"/>
        <pt x="358" y="510" on="0"/>
      </contour>
      <contour>
        <pt x="323" y="-51" on="0"/>
        <pt x="375" y="-101" on="0"/>
        <pt x="375" y="-203" on="0"/>
        <pt x="304" y="-260" on="0"/>
        <pt x="200" y="-260" on="0"/>
        <pt x="157" y="-238" on="1"/>
        <pt x="178" y="-184" on="1"/>
        <pt x="214" y="-200" on="0"/>
        <pt x="245" y="-200" on="1"/>
        <pt x="312" y="-200" on="0"/>
        <pt x="312" y="-147" on="1"/>
        <pt x="312" y="-96" on="0"/>
        <pt x="258" y="-96" on="1"/>
        <pt x="237" y="-96" on="0"/>
        <pt x="205" y="-104" on="1"/>
        <pt x="190" y="-74" on="1"/>
        <pt x="250" y="8" on="1"/>
        <pt x="322" y="8" on="1"/>
        <pt x="280" y="-47" on="1"/>
      </contour>
    </TTGlyph>
    <TTGlyph name="ccircumflex" xMin="35" yMin="-10" xMax="450" yMax="735">
      <contour>
        <pt x="35" y="363" on="0"/>
        <pt x="156" y="510" on="0"/>
        <pt x="358" y="510" on="0"/>
        <pt x="426" y="469" on="1"/>
        <pt x="426" y="350" on="1"/>
        <pt x="356" y="350" on="1"/>
        <pt x="356" y="417" on="1"/>
        <pt x="313" y="435" on="0"/>
        <pt x="265" y="435" on="1"/>
        <pt x="196" y="435" on="0"/>
        <pt x="120" y="331" on="0"/>
        <pt x="120" y="169" on="0"/>
        <pt x="196" y="65" on="0"/>
        <pt x="265" y="65" on="1"/>
        <pt x="304" y="65" on="0"/>
        <pt x="366" y="82" on="0"/>
        <pt x="393" y="98" on="0"/>
        <pt x="413" y="113" on="1"/>
        <pt x="450" y="57" on="1"/>
        <pt x="379" y="-10" on="0"/>
        <pt x="156" y="-10" on="0"/>
        <pt x="35" y="137" on="0"/>
      </contour>
      <contour>
        <pt x="292" y="735" on="1"/>
        <pt x="428" y="583" on="1"/>
        <pt x="389" y="550" on="1"/>
        <pt x="265" y="664" on="1"/>
        <pt x="141" y="550" on="1"/>
        <pt x="102" y="583" on="1"/>
        <pt x="238" y="735" on="1"/>
      </contour>
    </TTGlyph>
    <TTGlyph name="cedilla" xMin="113" yMin="-258" xMax="331" yMax="10">
      <contour>
        <pt x="279" y="-49" on="0"/>
        <pt x="331" y="-99" on="0"/>
        <pt x="331" y="-201" on="0"/>
        <pt x="260" y="-258" on="0"/>
        <pt x="156" y="-258" on="0"/>
        <pt x="113" y="-236" on="1"/>
        <pt x="134" y="-182" on="1"/>
        <pt x="170" y="-198" on="0"/>
        <pt x="201" y="-198" on="1"/>
        <pt x="268" y="-198" on="0"/>
        <pt x="268" y="-145" on="1"/>
        <pt x="268" y="-94" on="0"/>
        <pt x="214" y="-94" on="1"/>
        <pt x="193" y="-94" on="0"/>
        <pt x="161" y="-102" on="1"/>
        <pt x="146" y="-72" on="1"/>
        <pt x="206" y="10" on="1"/>
        <pt x="278" y="10" on="1"/>
        <pt x="236" y="-45" on="1"/>
      </contour>
    </TTGlyph>
    <TTGlyph name="cent" xMin="35" yMin="-82" xMax="450" yMax="582">
      <contour>
        <pt x="300" y="508" on="1"/>
        <pt x="372" y="502" on="0"/>
        <pt x="426" y="469" on="1"/>
        <pt x="426" y="350" on="1"/>
        <pt x="356" y="350" on="1"/>
        <pt x="356" y="419" on="1"/>
        <pt x="322" y="435" on="0"/>
        <pt x="277" y="435" on="1"/>
        <pt x="199" y="435" on="0"/>
        <pt x="120" y="331" on="0"/>
        <pt x="120" y="168" on="0"/>
        <pt x="200" y="65" on="0"/>
        <pt x="277" y="65" on="1"/>
        <pt x="312" y="65" on="0"/>
        <pt x="369" y="82" on="0"/>
        <pt x="394" y="98" on="0"/>
        <pt x="413" y="113" on="1"/>
        <pt x="450" y="57" on="1"/>
        <pt x="391" y="2" on="0"/>
        <pt x="300" y="-8" on="1"/>
        <pt x="300" y="-82" on="1"/>
        <pt x="230" y="-82" on="1"/>
        <pt x="230" y="-7" on="1"/>
        <pt x="137" y="5" on="0"/>
        <pt x="35" y="147" on="0"/>
        <pt x="35" y="353" on="0"/>
        <pt x="137" y="495" on="0"/>
        <pt x="230" y="507" on="1"/>
        <pt x="230" y="582" on="1"/>
        <pt x="300" y="582" on="1"/>
      </contour>
    </TTGlyph>
    <TTGlyph name="circumflex" xMin="87" yMin="750" xMax="413" yMax="935">
      <contour>
        <pt x="277" y="935" on="1"/>
        <pt x="413" y="783" on="1"/>
        <pt x="374" y="750" on="1"/>
        <pt x="250" y="864" on="1"/>
        <pt x="126" y="750" on="1"/>
        <pt x="87" y="783" on="1"/>
        <pt x="223" y="935" on="1"/>
      </contour>
    </TTGlyph>
    <TTGlyph name="colon" xMin="70" yMin="-10" xMax="190" yMax="420">
      <contour>
        <pt x="70" y="25" on="0"/>
        <pt x="70" y="75" on="0"/>
        <pt x="105" y="110" on="0"/>
        <pt x="155" y="110" on="0"/>
        <pt x="190" y="75" on="0"/>
        <pt x="190" y="25" on="0"/>
        <pt x="155" y="-10" on="0"/>
        <pt x="105" y="-10" on="0"/>
      </contour>
      <contour>
        <pt x="70" y="335" on="0"/>
        <pt x="70" y="385" on="0"/>
        <pt x="105" y="420" on="0"/>
        <pt x="155" y="420" on="0"/>
        <pt x="190" y="385" on="0"/>
        <pt x="190" y="335" on="0"/>
        <pt x="155" y="300" on="0"/>
        <pt x="105" y="300" on="0"/>
      </contour>
    </TTGlyph>
    <TTGlyph name="comma" xMin="70" yMin="-152" xMax="189" yMax="105">
      <contour>
        <pt x="93" y="-4" on="0"/>
        <pt x="70" y="32" on="0"/>
        <pt x="70" y="74" on="0"/>
        <pt x="104" y="105" on="0"/>
        <pt x="154" y="105" on="0"/>
        <pt x="189" y="71" on="0"/>
        <pt x="189" y="0" on="0"/>
        <pt x="141" y="-114" on="0"/>
        <pt x="106" y="-152" on="1"/>
        <pt x="74" y="-132" on="1"/>
        <pt x="93" y="-108" on="0"/>
        <pt x="120" y="-37" on="0"/>
        <pt x="120" y="-9" on="1"/>
      </contour>
    </TTGlyph>
    <TTGlyph name="copyright" xMin="24" yMin="-10" xMax="721" yMax="697">
      <contour>
        <pt x="211" y="-10" on="0"/>
        <pt x="24" y="196" on="0"/>
        <pt x="24" y="499" on="0"/>
        <pt x="211" y="697" on="0"/>
        <pt x="535" y="697" on="0"/>
        <pt x="721" y="500" on="0"/>
        <pt x="721" y="195" on="0"/>
        <pt x="534" y="-10" on="0"/>
      </contour>
      <contour>
        <pt x="239" y="645" on="0"/>
        <pt x="86" y="478" on="0"/>
        <pt x="86" y="217" on="0"/>
        <pt x="240" y="41" on="0"/>
        <pt x="505" y="41" on="0"/>
        <pt x="659" y="217" on="0"/>
        <pt x="659" y="478" on="0"/>
        <pt x="506" y="645" on="0"/>
      </contour>
      <contour>
        <pt x="381" y="556" on="1"/>
        <pt x="444" y="556" on="0"/>
        <pt x="531" y="485" on="0"/>
        <pt x="531" y="427" on="1"/>
        <pt x="459" y="426" on="1"/>
        <pt x="459" y="458" on="0"/>
        <pt x="417" y="489" on="0"/>
        <pt x="386" y="489" on="1"/>
        <pt x="334" y="489" on="0"/>
        <pt x="269" y="405" on="0"/>
        <pt x="269" y="280" on="0"/>
        <pt x="334" y="196" on="0"/>
        <pt x="440" y="196" on="0"/>
        <pt x="489" y="249" on="1"/>
        <pt x="540" y="208" on="1"/>
        <pt x="483" y="130" on="0"/>
        <pt x="298" y="130" on="0"/>
        <pt x="190" y="249" on="0"/>
        <pt x="190" y="434" on="0"/>
        <pt x="298" y="556" on="0"/>
      </contour>
    </TTGlyph>
    <TTGlyph name="currency" xMin="8" yMin="75" xMax="497" yMax="479">
      <contour>
        <pt x="76" y="178" on="1"/>
        <pt x="55" y="223" on="0"/>
        <pt x="55" y="334" on="0"/>
        <pt x="78" y="378" on="1"/>
        <pt x="8" y="423" on="1"/>
        <pt x="49" y="479" on="1"/>
        <pt x="111" y="422" on="1"/>
        <pt x="166" y="475" on="0"/>
        <pt x="337" y="475" on="0"/>
        <pt x="393" y="422" on="1"/>
        <pt x="456" y="479" on="1"/>
        <pt x="497" y="423" on="1"/>
        <pt x="426" y="377" on="1"/>
        <pt x="449" y="333" on="0"/>
        <pt x="449" y="225" on="0"/>
        <pt x="427" y="179" on="1"/>
        <pt x="497" y="135" on="1"/>
        <pt x="456" y="79" on="1"/>
        <pt x="396" y="132" on="1"/>
        <pt x="341" y="75" on="0"/>
        <pt x="163" y="75" on="0"/>
        <pt x="108" y="132" on="1"/>
        <pt x="49" y="79" on="1"/>
        <pt x="8" y="135" on="1"/>
      </contour>
      <contour>
        <pt x="195" y="410" on="0"/>
        <pt x="130" y="336" on="0"/>
        <pt x="130" y="219" on="0"/>
        <pt x="195" y="140" on="0"/>
        <pt x="309" y="140" on="0"/>
        <pt x="374" y="219" on="0"/>
        <pt x="374" y="336" on="0"/>
        <pt x="309" y="410" on="0"/>
      </contour>
    </TTGlyph>
    <TTGlyph name="d" xMin="35" yMin="-10" xMax="547" yMax="750">
      <contour>
        <pt x="465" y="750" on="1"/>
        <pt x="465" y="60" on="1"/>
        <pt x="547" y="60" on="1"/>
        <pt x="547" y="18" on="1"/>
        <pt x="510" y="-5" on="0"/>
        <pt x="416" y="-5" on="0"/>
        <pt x="381" y="22" on="0"/>
        <pt x="380" y="55" on="1"/>
        <pt x="321" y="-10" on="0"/>
        <pt x="137" y="-10" on="0"/>
        <pt x="35" y="135" on="0"/>
        <pt x="35" y="362" on="0"/>
        <pt x="155" y="510" on="0"/>
        <pt x="266" y="510" on="1"/>
        <pt x="320" y="510" on="0"/>
        <pt x="380" y="489" on="1"/>
        <pt x="380" y="685" on="1"/>
        <pt x="303" y="685" on="1"/>
        <pt x="303" y="750" on="1"/>
      </contour>
      <contour>
        <pt x="120" y="171" on="0"/>
        <pt x="186" y="65" on="0"/>
        <pt x="305" y="65" on="0"/>
        <pt x="380" y="159" on="0"/>
        <pt x="380" y="225" on="1"/>
        <pt x="380" y="403" on="1"/>
        <pt x="327" y="435" on="0"/>
        <pt x="204" y="435" on="0"/>
        <pt x="120" y="336" on="0"/>
      </contour>
    </TTGlyph>
    <TTGlyph name="degree" xMin="60" yMin="532" xMax="284" yMax="754">
      <contour>
        <pt x="111" y="708" on="0"/>
        <pt x="111" y="578" on="0"/>
        <pt x="232" y="578" on="0"/>
        <pt x="232" y="708" on="0"/>
      </contour>
      <contour>
        <pt x="60" y="592" on="0"/>
        <pt x="60" y="694" on="0"/>
        <pt x="117" y="754" on="0"/>
        <pt x="227" y="754" on="0"/>
        <pt x="284" y="694" on="0"/>
        <pt x="284" y="592" on="0"/>
        <pt x="227" y="532" on="0"/>
        <pt x="117" y="532" on="0"/>
      </contour>
    </TTGlyph>
    <TTGlyph name="dieresis" xMin="96" yMin="798" xMax="384" yMax="895">
      <contour>
        <pt x="96" y="826" on="0"/>
        <pt x="96" y="866" on="0"/>
        <pt x="124" y="895" on="0"/>
        <pt x="164" y="895" on="0"/>
        <pt x="193" y="866" on="0"/>
        <pt x="193" y="826" on="0"/>
        <pt x="164" y="798" on="0"/>
        <pt x="124" y="798" on="0"/>
      </contour>
      <contour>
        <pt x="287" y="826" on="0"/>
        <pt x="287" y="866" on="0"/>
        <pt x="315" y="895" on="0"/>
        <pt x="355" y="895" on="0"/>
        <pt x="384" y="866" on="0"/>
        <pt x="384" y="826" on="0"/>
        <pt x="355" y="798" on="0"/>
        <pt x="316" y="798" on="0"/>
      </contour>
    </TTGlyph>
    <TTGlyph name="divide" xMin="60" yMin="130" xMax="310" yMax="560">
      <contour>
        <pt x="60" y="320" on="1"/>
        <pt x="60" y="377" on="1"/>
        <pt x="310" y="377" on="1"/>
        <pt x="310" y="320" on="1"/>
      </contour>
      <contour>
        <pt x="130" y="165" on="0"/>
        <pt x="130" y="215" on="0"/>
        <pt x="165" y="250" on="0"/>
        <pt x="215" y="250" on="0"/>
        <pt x="250" y="215" on="0"/>
        <pt x="250" y="165" on="0"/>
        <pt x="215" y="130" on="0"/>
        <pt x="165" y="130" on="0"/>
      </contour>
      <contour>
        <pt x="130" y="475" on="0"/>
        <pt x="130" y="525" on="0"/>
        <pt x="165" y="560" on="0"/>
        <pt x="215" y="560" on="0"/>
        <pt x="250" y="525" on="0"/>
        <pt x="250" y="475" on="0"/>
        <pt x="215" y="440" on="0"/>
        <pt x="165" y="440" on="0"/>
      </contour>
    </TTGlyph>
    <TTGlyph name="dollar" xMin="36" yMin="-61" xMax="509" yMax="769">
      <contour>
        <pt x="224" y="769" on="1"/>
        <pt x="294" y="769" on="1"/>
        <pt x="294" y="697" on="1"/>
        <pt x="412" y="695" on="0"/>
        <pt x="482" y="656" on="1"/>
        <pt x="482" y="522" on="1"/>
        <pt x="412" y="522" on="1"/>
        <pt x="412" y="605" on="1"/>
        <pt x="354" y="622" on="0"/>
        <pt x="286" y="622" on="1"/>
        <pt x="280" y="622" on="1"/>
        <pt x="218" y="620" on="0"/>
        <pt x="129" y="565" on="0"/>
        <pt x="129" y="521" on="1"/>
        <pt x="129" y="454" on="0"/>
        <pt x="290" y="401" on="1"/>
        <pt x="340" y="384" on="0"/>
        <pt x="399" y="359" on="0"/>
        <pt x="436" y="336" on="1"/>
        <pt x="509" y="289" on="0"/>
        <pt x="509" y="117" on="0"/>
        <pt x="399" y="23" on="0"/>
        <pt x="304" y="14" on="1"/>
        <pt x="304" y="-61" on="1"/>
        <pt x="234" y="-61" on="1"/>
        <pt x="234" y="12" on="1"/>
        <pt x="116" y="16" on="0"/>
        <pt x="36" y="63" on="1"/>
        <pt x="36" y="198" on="1"/>
        <pt x="106" y="198" on="1"/>
        <pt x="106" y="117" on="1"/>
        <pt x="173" y="87" on="0"/>
        <pt x="329" y="87" on="0"/>
        <pt x="423" y="152" on="0"/>
        <pt x="423" y="203" on="1"/>
        <pt x="423" y="237" on="0"/>
        <pt x="392" y="267" on="0"/>
        <pt x="378" y="281" on="0"/>
        <pt x="337" y="299" on="0"/>
        <pt x="330" y="302" on="1"/>
        <pt x="302" y="313" on="0"/>
        <pt x="219" y="342" on="0"/>
        <pt x="172" y="362" on="0"/>
        <pt x="105" y="398" on="0"/>
        <pt x="88" y="415" on="1"/>
        <pt x="45" y="458" on="0"/>
        <pt x="45" y="587" on="0"/>
        <pt x="143" y="678" on="0"/>
        <pt x="224" y="691" on="1"/>
      </contour>
    </TTGlyph>
    <TTGlyph name="dotaccent" xMin="108" yMin="800" xMax="211" yMax="911">
      <contour>
        <pt x="136" y="800" on="0"/>
        <pt x="108" y="832" on="0"/>
        <pt x="108" y="877" on="0"/>
        <pt x="139" y="911" on="0"/>
        <pt x="183" y="911" on="0"/>
        <pt x="211" y="879" on="0"/>
        <pt x="211" y="834" on="0"/>
        <pt x="180" y="800" on="0"/>
      </contour>
    </TTGlyph>
    <TTGlyph name="dotlessi" xMin="40" yMin="0" xMax="290" yMax="500">
      <contour>
        <pt x="41" y="435" on="1"/>
        <pt x="41" y="500" on="1"/>
        <pt x="203" y="500" on="1"/>
        <pt x="203" y="65" on="1"/>
        <pt x="290" y="65" on="1"/>
        <pt x="290" y="0" on="1"/>
        <pt x="40" y="0" on="1"/>
        <pt x="40" y="65" on="1"/>
        <pt x="118" y="65" on="1"/>
        <pt x="118" y="435" on="1"/>
      </contour>
    </TTGlyph>
    <TTGlyph name="e" xMin="35" yMin="-10" xMax="473" yMax="510">
      <contour>
        <pt x="473" y="284" on="1"/>
        <pt x="473" y="231" on="1"/>
        <pt x="120" y="231" on="1"/>
        <pt x="125" y="158" on="0"/>
        <pt x="201" y="65" on="0"/>
        <pt x="265" y="65" on="1"/>
        <pt x="307" y="65" on="0"/>
        <pt x="374" y="83" on="0"/>
        <pt x="400" y="98" on="0"/>
        <pt x="423" y="113" on="1"/>
        <pt x="460" y="57" on="1"/>
        <pt x="384" y="-10" on="0"/>
        <pt x="156" y="-10" on="0"/>
        <pt x="35" y="137" on="0"/>
        <pt x="35" y="363" on="0"/>
        <pt x="156" y="510" on="0"/>
        <pt x="365" y="510" on="0"/>
        <pt x="473" y="384" on="0"/>
      </contour>
      <contour>
        <pt x="382" y="363" on="0"/>
        <pt x="321" y="435" on="0"/>
        <pt x="208" y="435" on="0"/>
        <pt x="136" y="362" on="0"/>
        <pt x="124" y="302" on="1"/>
        <pt x="388" y="302" on="1"/>
      </contour>
    </TTGlyph>
    <TTGlyph name="eacute" xMin="35" yMin="-10" xMax="473" yMax="768">
      <contour>
        <pt x="473" y="284" on="1"/>
        <pt x="473" y="231" on="1"/>
        <pt x="120" y="231" on="1"/>
        <pt x="125" y="158" on="0"/>
        <pt x="201" y="65" on="0"/>
        <pt x="265" y="65" on="1"/>
        <pt x="307" y="65" on="0"/>
        <pt x="374" y="83" on="0"/>
        <pt x="400" y="98" on="0"/>
        <pt x="423" y="113" on="1"/>
        <pt x="460" y="57" on="1"/>
        <pt x="384" y="-10" on="0"/>
        <pt x="156" y="-10" on="0"/>
        <pt x="35" y="137" on="0"/>
        <pt x="35" y="363" on="0"/>
        <pt x="156" y="510" on="0"/>
        <pt x="365" y="510" on="0"/>
        <pt x="473" y="384" on="0"/>
      </contour>
      <contour>
        <pt x="382" y="363" on="0"/>
        <pt x="321" y="435" on="0"/>
        <pt x="208" y="435" on="0"/>
        <pt x="136" y="362" on="0"/>
        <pt x="124" y="302" on="1"/>
        <pt x="388" y="302" on="1"/>
      </contour>
      <contour>
        <pt x="394" y="721" on="1"/>
        <pt x="270" y="560" on="1"/>
        <pt x="226" y="586" on="1"/>
        <pt x="323" y="768" on="1"/>
      </contour>
    </TTGlyph>
    <TTGlyph name="ebreve" xMin="35" yMin="-10" xMax="473" yMax="694">
      <contour>
        <pt x="473" y="284" on="1"/>
        <pt x="473" y="231" on="1"/>
        <pt x="120" y="231" on="1"/>
        <pt x="125" y="158" on="0"/>
        <pt x="201" y="65" on="0"/>
        <pt x="265" y="65" on="1"/>
        <pt x="307" y="65" on="0"/>
        <pt x="374" y="83" on="0"/>
        <pt x="400" y="98" on="0"/>
        <pt x="423" y="113" on="1"/>
        <pt x="460" y="57" on="1"/>
        <pt x="384" y="-10" on="0"/>
        <pt x="156" y="-10" on="0"/>
        <pt x="35" y="137" on="0"/>
        <pt x="35" y="363" on="0"/>
        <pt x="156" y="510" on="0"/>
        <pt x="365" y="510" on="0"/>
        <pt x="473" y="384" on="0"/>
      </contour>
      <contour>
        <pt x="382" y="363" on="0"/>
        <pt x="321" y="435" on="0"/>
        <pt x="208" y="435" on="0"/>
        <pt x="136" y="362" on="0"/>
        <pt x="124" y="302" on="1"/>
        <pt x="388" y="302" on="1"/>
      </contour>
      <contour>
        <pt x="363" y="550" on="0"/>
        <pt x="177" y="550" on="0"/>
        <pt x="97" y="664" on="1"/>
        <pt x="141" y="694" on="1"/>
        <pt x="198" y="625" on="0"/>
        <pt x="247" y="615" on="1"/>
        <pt x="257" y="613" on="0"/>
        <pt x="283" y="613" on="0"/>
        <pt x="303" y="617" on="0"/>
        <pt x="320" y="624" on="1"/>
        <pt x="353" y="638" on="0"/>
        <pt x="399" y="694" on="1"/>
        <pt x="443" y="664" on="1"/>
      </contour>
    </TTGlyph>
    <TTGlyph name="ecaron" xMin="35" yMin="-10" xMax="473" yMax="735">
      <contour>
        <pt x="473" y="284" on="1"/>
        <pt x="473" y="231" on="1"/>
        <pt x="120" y="231" on="1"/>
        <pt x="125" y="158" on="0"/>
        <pt x="201" y="65" on="0"/>
        <pt x="265" y="65" on="1"/>
        <pt x="307" y="65" on="0"/>
        <pt x="374" y="83" on="0"/>
        <pt x="400" y="98" on="0"/>
        <pt x="423" y="113" on="1"/>
        <pt x="460" y="57" on="1"/>
        <pt x="384" y="-10" on="0"/>
        <pt x="156" y="-10" on="0"/>
        <pt x="35" y="137" on="0"/>
        <pt x="35" y="363" on="0"/>
        <pt x="156" y="510" on="0"/>
        <pt x="365" y="510" on="0"/>
        <pt x="473" y="384" on="0"/>
      </contour>
      <contour>
        <pt x="382" y="363" on="0"/>
        <pt x="321" y="435" on="0"/>
        <pt x="208" y="435" on="0"/>
        <pt x="136" y="362" on="0"/>
        <pt x="124" y="302" on="1"/>
        <pt x="388" y="302" on="1"/>
      </contour>
      <contour>
        <pt x="433" y="702" on="1"/>
        <pt x="297" y="550" on="1"/>
        <pt x="243" y="550" on="1"/>
        <pt x="107" y="702" on="1"/>
        <pt x="146" y="735" on="1"/>
        <pt x="270" y="621" on="1"/>
        <pt x="394" y="735" on="1"/>
      </contour>
    </TTGlyph>
    <TTGlyph name="ecircumflex" xMin="35" yMin="-10" xMax="473" yMax="735">
      <contour>
        <pt x="473" y="284" on="1"/>
        <pt x="473" y="231" on="1"/>
        <pt x="120" y="231" on="1"/>
        <pt x="125" y="158" on="0"/>
        <pt x="201" y="65" on="0"/>
        <pt x="265" y="65" on="1"/>
        <pt x="307" y="65" on="0"/>
        <pt x="374" y="83" on="0"/>
        <pt x="400" y="98" on="0"/>
        <pt x="423" y="113" on="1"/>
        <pt x="460" y="57" on="1"/>
        <pt x="384" y="-10" on="0"/>
        <pt x="156" y="-10" on="0"/>
        <pt x="35" y="137" on="0"/>
        <pt x="35" y="363" on="0"/>
        <pt x="156" y="510" on="0"/>
        <pt x="365" y="510" on="0"/>
        <pt x="473" y="384" on="0"/>
      </contour>
      <contour>
        <pt x="382" y="363" on="0"/>
        <pt x="321" y="435" on="0"/>
        <pt x="208" y="435" on="0"/>
        <pt x="136" y="362" on="0"/>
        <pt x="124" y="302" on="1"/>
        <pt x="388" y="302" on="1"/>
      </contour>
      <contour>
        <pt x="297" y="735" on="1"/>
        <pt x="433" y="583" on="1"/>
        <pt x="394" y="550" on="1"/>
        <pt x="270" y="664" on="1"/>
        <pt x="146" y="550" on="1"/>
        <pt x="107" y="583" on="1"/>
        <pt x="243" y="735" on="1"/>
      </contour>
    </TTGlyph>
    <TTGlyph name="edieresis" xMin="35" yMin="-10" xMax="473" yMax="695">
      <contour>
        <pt x="473" y="284" on="1"/>
        <pt x="473" y="231" on="1"/>
        <pt x="120" y="231" on="1"/>
        <pt x="125" y="158" on="0"/>
        <pt x="201" y="65" on="0"/>
        <pt x="265" y="65" on="1"/>
        <pt x="307" y="65" on="0"/>
        <pt x="374" y="83" on="0"/>
        <pt x="400" y="98" on="0"/>
        <pt x="423" y="113" on="1"/>
        <pt x="460" y="57" on="1"/>
        <pt x="384" y="-10" on="0"/>
        <pt x="156" y="-10" on="0"/>
        <pt x="35" y="137" on="0"/>
        <pt x="35" y="363" on="0"/>
        <pt x="156" y="510" on="0"/>
        <pt x="365" y="510" on="0"/>
        <pt x="473" y="384" on="0"/>
      </contour>
      <contour>
        <pt x="382" y="363" on="0"/>
        <pt x="321" y="435" on="0"/>
        <pt x="208" y="435" on="0"/>
        <pt x="136" y="362" on="0"/>
        <pt x="124" y="302" on="1"/>
        <pt x="388" y="302" on="1"/>
      </contour>
      <contour>
        <pt x="126" y="626" on="0"/>
        <pt x="126" y="666" on="0"/>
        <pt x="154" y="695" on="0"/>
        <pt x="194" y="695" on="0"/>
        <pt x="223" y="666" on="0"/>
        <pt x="223" y="626" on="0"/>
        <pt x="194" y="598" on="0"/>
        <pt x="154" y="598" on="0"/>
      </contour>
      <contour>
        <pt x="317" y="626" on="0"/>
        <pt x="317" y="666" on="0"/>
        <pt x="345" y="695" on="0"/>
        <pt x="385" y="695" on="0"/>
        <pt x="414" y="666" on="0"/>
        <pt x="414" y="626" on="0"/>
        <pt x="385" y="598" on="0"/>
        <pt x="346" y="598" on="0"/>
      </contour>
    </TTGlyph>
    <TTGlyph name="egrave" xMin="35" yMin="-10" xMax="473" yMax="768">
      <contour>
        <pt x="473" y="284" on="1"/>
        <pt x="473" y="231" on="1"/>
        <pt x="120" y="231" on="1"/>
        <pt x="125" y="158" on="0"/>
        <pt x="201" y="65" on="0"/>
        <pt x="265" y="65" on="1"/>
        <pt x="307" y="65" on="0"/>
        <pt x="374" y="83" on="0"/>
        <pt x="400" y="98" on="0"/>
        <pt x="423" y="113" on="1"/>
        <pt x="460" y="57" on="1"/>
        <pt x="384" y="-10" on="0"/>
        <pt x="156" y="-10" on="0"/>
        <pt x="35" y="137" on="0"/>
        <pt x="35" y="363" on="0"/>
        <pt x="156" y="510" on="0"/>
        <pt x="365" y="510" on="0"/>
        <pt x="473" y="384" on="0"/>
      </contour>
      <contour>
        <pt x="382" y="363" on="0"/>
        <pt x="321" y="435" on="0"/>
        <pt x="208" y="435" on="0"/>
        <pt x="136" y="362" on="0"/>
        <pt x="124" y="302" on="1"/>
        <pt x="388" y="302" on="1"/>
      </contour>
      <contour>
        <pt x="292" y="560" on="1"/>
        <pt x="168" y="721" on="1"/>
        <pt x="239" y="768" on="1"/>
        <pt x="336" y="586" on="1"/>
      </contour>
    </TTGlyph>
    <TTGlyph name="eight" xMin="40" yMin="-10" xMax="494" yMax="710">
      <contour>
        <pt x="494" y="193" on="1"/>
        <pt x="494" y="104" on="0"/>
        <pt x="378" y="-10" on="0"/>
        <pt x="156" y="-10" on="0"/>
        <pt x="40" y="104" on="0"/>
        <pt x="40" y="193" on="1"/>
        <pt x="40" y="294" on="0"/>
        <pt x="151" y="373" on="1"/>
        <pt x="71" y="427" on="0"/>
        <pt x="71" y="608" on="0"/>
        <pt x="187" y="710" on="0"/>
        <pt x="348" y="710" on="0"/>
        <pt x="463" y="607" on="0"/>
        <pt x="463" y="520" on="1"/>
        <pt x="463" y="472" on="0"/>
        <pt x="419" y="400" on="0"/>
        <pt x="375" y="358" on="1"/>
        <pt x="494" y="294" on="0"/>
      </contour>
      <contour>
        <pt x="125" y="193" on="1"/>
        <pt x="125" y="65" on="0"/>
        <pt x="409" y="65" on="0"/>
        <pt x="409" y="193" on="1"/>
        <pt x="409" y="242" on="0"/>
        <pt x="335" y="299" on="0"/>
        <pt x="257" y="324" on="1"/>
        <pt x="240" y="329" on="0"/>
        <pt x="218" y="338" on="1"/>
        <pt x="177" y="316" on="0"/>
        <pt x="125" y="241" on="0"/>
      </contour>
      <contour>
        <pt x="378" y="518" on="1"/>
        <pt x="378" y="574" on="0"/>
        <pt x="318" y="635" on="0"/>
        <pt x="216" y="635" on="0"/>
        <pt x="156" y="574" on="0"/>
        <pt x="156" y="472" on="0"/>
        <pt x="222" y="411" on="0"/>
        <pt x="300" y="390" on="0"/>
        <pt x="310" y="386" on="1"/>
        <pt x="378" y="442" on="0"/>
      </contour>
    </TTGlyph>
    <TTGlyph name="emdash" xMin="0" yMin="261" xMax="614" yMax="318">
      <contour>
        <pt x="614" y="261" on="1"/>
        <pt x="0" y="261" on="1"/>
        <pt x="0" y="318" on="1"/>
        <pt x="614" y="318" on="1"/>
      </contour>
    </TTGlyph>
    <TTGlyph name="endash" xMin="30" yMin="261" xMax="553" yMax="318">
      <contour>
        <pt x="553" y="261" on="1"/>
        <pt x="30" y="261" on="1"/>
        <pt x="30" y="318" on="1"/>
        <pt x="553" y="318" on="1"/>
      </contour>
    </TTGlyph>
    <TTGlyph name="equal" xMin="60" yMin="185" xMax="430" yMax="393">
      <contour>
        <pt x="430" y="336" on="1"/>
        <pt x="60" y="336" on="1"/>
        <pt x="60" y="393" on="1"/>
        <pt x="430" y="393" on="1"/>
      </contour>
      <contour>
        <pt x="430" y="185" on="1"/>
        <pt x="60" y="185" on="1"/>
        <pt x="60" y="242" on="1"/>
        <pt x="430" y="242" on="1"/>
      </contour>
    </TTGlyph>
</ttFont>
